<svg width="170" height="25" viewBox="0 0 170 25" xmlns="http://www.w3.org/2000/svg"><title>eb-logo</title><g fill="none" fill-rule="evenodd"><path d="M36.554 12.564c.566.2 1.07.372 1.567.558.56.21 1.083.487 1.533.886.882.78 1.055 1.794.468 2.814-.526.914-1.306 1.578-2.188 2.127-1.593.99-3.352 1.628-5.073 2.343-1.735.72-3.484 1.405-5.284 1.953-.31.095-.69.168-.752.616-.028.194-.21.108-.323.093-.93-.12-1.58-.957-1.47-1.98.142-1.337.863-2.293 2.125-2.765 1.055-.393 2.145-.693 3.215-1.047 1.605-.532 3.18-1.148 4.73-1.826.052-.023.105-.045.155-.075.298-.175.683-.327.64-.736-.045-.437-.452-.58-.82-.668-.978-.237-1.977-.236-2.977-.19-.13.007-.26.012-.39.013-.894.004-1.07-.13-1.273-1-.052-.226-.082-.458-.1-.688-.073-.904.26-1.605 1.05-2.08 1.19-.717 2.406-1.383 3.665-1.97 1.48-.69 2.987-1.326 4.392-2.167.297-.178.583-.376.87-.572.127-.088.304-.183.247-.366-.054-.17-.25-.183-.404-.197-.655-.06-1.3.03-1.946.125-2.44.356-4.798 1.058-7.186 1.638-.317.077-.747.024-.922.287-.176.266.155.58.22.886.197.915.2 1.807-.233 2.668-.897 1.786-1.934 3.49-3.046 5.147-.823 1.227-1.65 2.45-2.487 3.666-.632.916-1.99.8-2.503-.208-.434-.856-.418-1.727-.055-2.6.273-.662.67-1.25 1.105-1.812 1.692-2.18 3.002-4.6 4.358-6.99.1-.173.09-.272-.06-.4-.5-.428-.626-.96-.495-1.603.333-1.634 1.17-2.767 2.837-3.28 3.484-1.07 7.03-1.4 10.64-.985 1.145.13 2.235.483 3.156 1.224 1.127.907 1.443 2.277.813 3.587-.323.672-.78 1.256-1.362 1.724-1.946 1.563-3.996 2.96-6.436 3.85zM.23 14.072c.452.774 1.132 1.17 2.02 1.228.216.014.43.045.647.063.173.015.237.107.178.264-.25.666-.14 1.346-.057 2.018.257 2.104 1.844 3.262 3.62 3.445.833.085 1.678.034 2.517-.023 2.707-.188 5.348-.818 8.03-1.166.75-.096 1.1-.6.978-1.352-.155-.96-.83-1.462-1.667-1.77-1.19-.44-2.432-.327-3.655-.22-1.6.14-3.193.354-4.79.525-.52.055-1.042.055-1.557-.058-.516-.114-.68-.34-.503-.834.26-.715.578-1.404 1.51-1.443.2-.008.396-.08.595-.116 4.236-.794 8.44-1.772 12.736-2.225 1.02-.108 2.04-.277 2.996-.68.886-.372 1.098-.964.638-1.812-.462-.852-1.177-1.375-2.147-1.52-.735-.11-1.477-.083-2.213-.048-2.723.13-5.41.566-8.098.99-.495.077-.987.213-1.563.21.382-.407.69-.772 1.037-1.096.375-.35.388-.752.252-1.193-.047-.15-.117-.293-.183-.453.236-.058.46-.106.682-.168 2.88-.815 5.766-1.604 8.708-2.17 1.483-.285 2.972-.506 4.466-.055.467.14.917.113 1.23-.28.316-.397.364-.863.128-1.345-.297-.605-.746-1.063-1.303-1.422-1.23-.792-2.605-.9-4.01-.826-2.25.118-4.442.593-6.618 1.147-3.337.85-6.594 1.954-9.838 3.1-.586.207-1.21.346-1.767-.125-.15-.128-.236-.018-.33.067-.262.23-.303.55-.356.864-.21 1.257.424 2.85 2.285 2.746.783-.044 1.555-.13 2.3-.396.154-.055.35-.12.45.005.135.17-.092.273-.178.385-.626.816-1.265 1.62-1.896 2.433-.097.125-.18.253-.345.31-1.277.44-2.56.844-3.938.658-.25-.033-.406.053-.556.24-.23.29-.277.652-.43.972v1.13zM28.75 24.768c-.226-.19-.448-.392-.312-.725.133-.325.417-.417.747-.406.13.004.26 0 .39 0h131.34c.572 0 .62-.005.56-.57-.07-.628.192-.99.672-1.356 1.8-1.365 3.565-2.774 5.343-4.17.08-.06.152-.13.246-.213-.2-.195-.455-.27-.688-.346-.393-.125-.494-.284-.348-.71.384-1.12.703-2.262 1.048-3.396.032-.107.09-.21.043-.364-1.047.27-2.096.522-3.135.814-.292.083-.413.02-.516-.248-.16-.418-.355-.822-.564-1.3l-5.703 6.364 1.922-10.94c-.56.347-1.08.643-1.57.982-.266.183-.364.128-.5-.143-.87-1.747-1.755-3.485-2.668-5.29l-1.172 2.296c-.4.787-.806 1.57-1.188 2.365-.114.24-.21.244-.412.11-.518-.34-1.047-.66-1.655-1.04.152.908.27 1.732.434 2.548.073.364.02.55-.39.542-.14-.003-.285.046-.427.07-.147.026-.246.002-.275-.178-.286-1.736-.58-3.47-.884-5.294.916.573 1.77 1.085 2.596 1.636.34.228.473.18.652-.186.8-1.637 1.632-3.258 2.454-4.884.078-.154.166-.304.27-.496.515 1.012 1.014 1.986 1.507 2.963.54 1.072 1.09 2.14 1.61 3.22.14.292.25.298.503.135.86-.555 1.734-1.088 2.675-1.674l-1.673 9.527 4.227-4.712c.322.735.633 1.413.915 2.104.092.225.188.257.413.197 1.284-.344 2.574-.672 3.862-1.004.122-.03.247-.054.44-.096l-.754 2.476c-.244.802-.472 1.61-.74 2.404-.102.295-.028.406.245.5.57.195 1.08.545 1.68.665v.174c-.053.015-.115.017-.155.048-2.33 1.825-4.658 3.653-6.987 5.48-.104.082-.208.157-.202.31.023.605-.05 1.21.038 1.814H28.75zm-4.607 0c.27-.168.518-.36.39-.727-.12-.347-.425-.398-.744-.402h-.348c-6.953 0-13.905-.002-20.857.003-.37.002-.864-.165-1.077.08-.182.21-.052.688-.06 1.048h22.695z" fill="#EC1D25"/><path d="M91.4 8.63c-.438 1.085-.847 2.094-1.253 3.103-1.388 3.456-2.78 6.91-4.157 10.37-.095.24-.197.33-.46.324-.824-.018-1.65-.007-2.54-.007.264-.652.513-1.272.764-1.89 1.42-3.492 2.84-6.98 4.256-10.473.272-.67.482-1.36.578-2.08.19-1.416-.088-2.602-1.573-3.188.075-.18.21-.105.307-.105 3.52-.005 7.043 0 10.564-.01.323-.003.375.1.343.388-.314 2.805-.617 5.612-.92 8.418-.052.475-.1.95-.148 1.427.16.018.172-.107.22-.18 2.124-3.242 4.244-6.485 6.367-9.728.107-.166.188-.328.453-.326 2.694.012 5.39.007 8.133.007-.365 1.017-.715 2.006-1.072 2.99-1.735 4.792-3.476 9.582-5.2 14.377-.107.294-.24.383-.548.38-2.143-.014-4.286-.007-6.493-.007l4.988-13.773-.093-.046c-.633.96-1.267 1.917-1.898 2.876-2.345 3.565-4.69 7.128-7.025 10.698-.13.2-.27.253-.493.25-1.348-.01-2.695-.008-4.043 0-.26.002-.376-.01-.34-.343.358-3.28.693-6.563 1.034-9.845l.3-2.937c.02-.195.022-.388-.054-.668zM56.13 22.095c.006.24.09.318.334.316 1.507-.01 3.014-.01 4.52.002.215 0 .303-.077.374-.263 1.04-2.725 2.082-5.447 3.135-8.166.104-.267.05-.31-.214-.308-3 .007-6 .006-8.998.002-.195 0-.31.036-.387.247-.228.638-.48 1.27-.738 1.896-.112.273-.015.306.23.3.71-.012 1.42 0 2.13-.006.205-.002.308.033.213.266-.174.428-.312.872-.51 1.29-.846 1.797-2.832 2.745-4.642 2.23-.86-.242-1.28-.865-1.204-1.753.036-.423.155-.823.305-1.214.618-1.618 1.238-3.234 1.862-4.85.4-1.037.753-2.093 1.354-3.04 1.08-1.704 2.696-2.313 4.636-1.92.84.17 1.2.74 1.11 1.59-.035.35-.123.68-.247 1.007-.193.51-.387 1.017-.592 1.555.13.007.212.014.296.014 2.042 0 4.085-.004 6.128.006.2 0 .24-.117.288-.25.195-.527.41-1.05.577-1.586.63-2.03-.046-3.483-2.008-4.31-.384-.16-.786-.3-1.194-.38-3.66-.712-7.315-.663-10.925.277-2.547.664-4.398 2.24-5.54 4.628-.393.82-.698 1.678-1.015 2.53-.584 1.57-1.3 3.092-1.736 4.71-.726 2.69.413 4.66 3.09 5.417 1.38.39 2.79.472 4.215.392 1.76-.1 3.48-.354 5.053-1.352.038.267.092.494.097.723zM148.1 9.482c.2 0 .262-.09.325-.264.464-1.275.1-2.58-.976-3.42-.662-.516-1.42-.83-2.225-1.033-2.064-.522-4.156-.522-6.254-.3-1.81.192-3.558.622-5.155 1.535-1.553.887-2.7 2.112-3.182 3.883-.465 1.71.003 3.01 1.47 3.987.36.24.746.446 1.136.632.94.45 1.935.755 2.906 1.126.65.248 1.29.514 1.82.985.34.303.56.68.502 1.145-.093.75-.402 1.414-1.09 1.783-1.227.657-2.504.653-3.756.075-.63-.29-.882-.925-.733-1.604.057-.263.15-.52.234-.807h-5.365c-.1 0-.19-.005-.25.114-.504.978-.706 2.438.16 3.48.568.68 1.316 1.08 2.137 1.348 1.83.6 3.72.664 5.622.58 1.99-.087 3.943-.385 5.79-1.177 2.012-.864 3.6-2.178 4.422-4.28.853-2.188.167-3.987-1.916-5.043-.956-.485-1.97-.825-2.976-1.182-.72-.256-1.466-.45-2.115-.877-.743-.488-.916-1.166-.494-1.95.213-.395.532-.684.94-.865.84-.368 1.71-.427 2.59-.197.685.18 1.093.64 1.143 1.26.03.352-.088.683-.23 1.065 1.867 0 3.692-.002 5.516.004zM65.473 22.426c.244.003.39-.07.527-.277.795-1.192 1.612-2.367 2.406-3.56.144-.215.292-.307.557-.306 2.072.01 4.144.015 6.215 0 .33-.004.377.102.35.394-.104 1.138-.175 2.28-.288 3.417-.028.286.044.332.306.33 1.927-.01 3.854-.01 5.78 0 .254.003.354-.055.373-.324.137-1.962.29-3.923.438-5.885.283-3.707.563-7.415.86-11.12.027-.35-.06-.423-.4-.422-3.577.013-7.156.007-10.734.01-.133 0-.278-.044-.423.054.04.047.057.092.088.104.917.366 1.364 1.294 1.06 2.462-.22.84-.66 1.568-1.15 2.27l-6.362 9.104c-.858 1.228-1.712 2.458-2.608 3.745 1.048 0 2.027-.008 3.006.006zm10.82-12.708L75.79 15.6c-.016.196.027.395-.303.392-1.736-.014-3.473-.006-5.288-.006l6.23-9.12c.03.006.06.01.092.017-.076.945-.15 1.89-.23 2.835zm41.575 10.108c-.476 0-.475 0-.298-.46.577-1.494 1.164-2.984 1.724-4.486.11-.294.25-.382.557-.38 1.97.014 3.94.003 5.91.013.248 0 .382-.055.468-.308.223-.656.463-1.306.728-1.946.133-.32.03-.354-.26-.352-1.55.01-3.1.005-4.65.005H120.5c-.044-.194.052-.32.1-.45.485-1.267.988-2.527 1.46-3.8.118-.32.27-.428.62-.425 2.522.018 5.043.01 7.564.006.144 0 .338.087.42-.12.313-.8.618-1.605.928-2.41h-18.19c.065.07.086.112.12.125.88.355 1.262 1.043 1.334 1.956.072.928-.106 1.822-.426 2.677-1.14 3.04-2.31 6.07-3.466 9.106l-1.467 3.84h12.033c.984 0 1.97.002 2.954-.002.146 0 .3.055.383-.17.294-.795.613-1.583.94-2.422h-7.94z" fill="#010101"/></g></svg>