<svg xmlns="http://www.w3.org/2000/svg" width="93.068" height="130.355" viewBox="0 0 93.068 130.355"><path fill="#FFF" d="M91.426.927H.98V129.44h91.11V.927"/><path d="M3.364 3.346h86.358v123.728H3.364z"/><path fill="#FFF" d="M7.92 23.726h77.185v76.75H7.92z"/><path d="M92.41 0H0v130.355h93.068V0h-.657zm-.667 129.098H1.326V1.258h90.417V129.1z"/><path fill="#FFF" d="M11.857 108.098c-.012.13-.02.268-.03.396-.068 1.253-.5 2.217-1.99 2.217-2.196 0-2.33-1.337-2.33-3.17v-.98c.055-1.758.2-3.048 2.33-3.048 1.186.012 1.855.602 1.947 1.776.024.165.042.353.03.523H10.5c-.055-.44-.012-1.27-.663-1.27-1.053 0-.96 1.208-.96 1.746v1.892c0 .57.047 1.49.96 1.49.73 0 .65-1.125.675-1.57h1.345zM12.86 106.56c.055-1.76.2-3.05 2.33-3.05 2.137 0 2.276 1.29 2.33 3.05v.978c0 1.834-.14 3.176-2.33 3.176s-2.33-1.34-2.33-3.176v-.98zm1.37 1.62c0 .568.042 1.487.96 1.487.95 0 .962-.937.962-1.6v-1.752c0-.548.03-1.773-.96-1.773-1.047 0-.962 1.208-.962 1.743v1.895zM21.938 103.678h1.338v6.865h-1.393l-1.046-2.446c-.347-.815-.633-1.643-.95-2.73h-.018c.048.576.103 1.264.145 1.97.037.68.067 1.36.067 1.912v1.293H18.75v-6.865h1.38l1.035 2.503c.34.792.632 1.607.955 2.727h.02c-.05-.62-.098-1.296-.135-1.953-.037-.657-.067-1.314-.067-1.93v-1.346zM24.085 103.678h4.448v1.01H26.98v5.855h-1.337v-5.855h-1.558M29.293 110.543v-6.865h3.76v1.01H30.63v1.728h2.234v1.01H30.63v2.114h2.423v1.003M37.293 103.678h1.333v6.865h-1.393l-1.034-2.446c-.354-.815-.64-1.643-.956-2.73h-.02c.05.576.105 1.264.147 1.97.043.68.068 1.36.068 1.912v1.293H34.1v-6.865h1.38l1.042 2.503c.347.792.626 1.607.955 2.727h.02c-.05-.62-.1-1.296-.135-1.953-.037-.657-.067-1.314-.067-1.93v-1.346h-.002zM39.44 103.678h4.448v1.01H42.33v5.855H41v-5.855h-1.56M48.39 107.58v2.963h-1.338v-6.868h2.525c1.156 0 2.026.383 2.026 1.648 0 .75-.195 1.533-1.09 1.655v.024c.792.1 1.03.578 1.03 1.247 0 .276-.038 1.957.284 2.165v.128h-1.472c-.158-.438-.127-1.29-.14-1.733-.006-.426 0-.998-.456-1.132-.366-.104-.75-.098-1.133-.098h-.237zm0-1.003h1.047c.438-.024.778-.292.778-.992 0-.766-.334-.894-.833-.9h-.992v1.892zM52.332 110.543l1.71-6.862h1.793l1.62 6.863H56.03l-.352-1.737h-1.563l-.353 1.737h-1.43zm1.99-2.743h1.143l-.36-1.953c-.065-.322-.09-.626-.133-.95-.012-.164-.024-.315-.048-.46h-.012c-.03.145-.037.297-.05.46-.048.323-.078.627-.14.95l-.4 1.953zM57.71 103.678h4.448v1.01h-1.552v5.855h-1.338v-5.855H57.71M62.924 110.543v-6.865h3.753v1.01h-2.415v1.728h2.22v1.01h-2.22v2.114h2.415v1.003M67.766 110.543v-6.865h2.78c.323 0 .974.13 1.382.77.304.48.383 1.247.383 2.372 0 1.357 0 2.927-1.088 3.553-.292.152-.657.17-.992.17h-2.464zm1.91-1.006c1.193 0 1.272-.605 1.272-2.59 0-1.63-.177-2.262-.973-2.262H69.1v4.852h.577zM75.906 110.543v-6.868h2.148c.578 0 1.144.03 1.515.505.303.377.358.767.358 1.23 0 .595-.14 1.186-.857 1.44v.02c.743.103 1.035.705 1.035 1.6 0 .28-.018.56-.097.836-.286.873-.803 1.238-1.746 1.238h-2.356zm1.613-1.01c.28 0 .565.028.81-.066.358-.16.4-.614.4-.955 0-.736-.15-1.06-.973-1.06h-.517v2.082h.28zm-.038-3.08c.33 0 .742.017.956-.248.122-.176.14-.404.14-.742 0-.505-.11-.76-.725-.772h-.614v1.762h.242zM82.91 105.476c.14.34.255.694.31 1.056h.023c.098-.536.28-.916.438-1.293l.633-1.56h1.46l-1.886 3.944v2.92h-1.332v-2.92l-1.855-3.946h1.454l.755 1.798zM7.745 122.717V112.57H22.15v2.375h-8.62v1.45h7.295v2.362H13.53v1.594h8.955v2.367M36.97 115.52c-.09-.34-.413-.566-.832-.688-.414-.128-.925-.188-1.497-.188-1.27 0-1.843.22-1.843.587 0 1.513 10.16.576 10.16 4.257 0 2.354-3.413 3.498-8.268 3.498-4.66 0-7.703-1.558-7.825-3.39h5.542c.122.366.468.634.96.797.463.17 1.072.256 1.644.256 1.45 0 2.41-.268 2.41-.746 0-1.536-10.166-.483-10.166-4.353 0-2.16 3.243-3.244 7.66-3.244 4.903 0 7.136 1.442 7.556 3.212h-5.5v.002zM53.52 119.186v3.532h-5.793V112.57h8.34c5.884 0 7.825.925 7.825 2.896 0 1.174-.906 2.147-2.963 2.482 1.86.396 2.992.64 2.992 2.69 0 1.32-.08 1.772.608 1.772v.308h-5.864c-.146-.225-.292-.876-.292-1.777 0-1.325-.396-1.754-3.09-1.754H53.52zm0-2.224h2.274c1.794 0 2.75-.265 2.75-.967 0-.71-.974-1.053-2.33-1.053h-2.696v2.02zM69.543 122.717V112.57h8.438c3.98 0 7.144.543 7.144 2.554 0 1.046-1.18 1.807-2.306 2.208 1.91.28 2.938 1.232 2.938 2.324 0 2.27-3.01 3.06-7.604 3.06h-8.61zm5.786-4.234v1.868h2.523c1.43 0 2.507-.17 2.507-.93 0-.888-1.345-.937-3.194-.937H75.33zm0-3.538v1.692h2.408c1.15 0 1.99-.302 1.99-.89 0-.79-1.138-.802-2.354-.802H75.33z"/><path d="M10.19 30.588c0-2.233 1.983-4.052 4.465-4.052 2.458 0 4.435 1.82 4.435 4.052 0 2.257-1.978 4.08-4.435 4.08-2.482 0-4.465-1.823-4.465-4.08m8.116 0c0-1.837-1.625-3.334-3.65-3.334-2.032 0-3.68 1.497-3.68 3.334 0 1.855 1.648 3.364 3.68 3.364 2.026 0 3.65-1.508 3.65-3.364m-4.6.284v2.06h-.814v-4.795h1.698c.96 0 1.935.237 1.935 1.326 0 .544-.353.985-1.046 1.12v.02c.705.125.802.43.88.946.08.45.13.948.312 1.38h-1.047c-.06-.268-.14-.584-.176-.86-.05-.41-.05-.798-.293-1.014-.2-.185-.474-.164-.76-.185l-.69.002m.87-.755c.76-.02.95-.325.95-.678 0-.36-.19-.554-.84-.554h-.98v1.23h.87z"/><path fill="#FFF" d="M81.74 17.6v-2.69h3.93v-2.488h-3.93V10.12h4.06V7.61h-7.205v12.472h7.228V17.6M73.63 14.588h-.047L71.15 7.61h-3.232v12.475h2.98l-.284-6.945.036-.033 2.44 6.978h3.218V7.61h-2.98M61.81 7.39c-2.75 0-4.282 1.327-4.282 3.712v5.086c0 2.81 1.1 4.27 4.283 4.27 3.19 0 4.235-1.46 4.235-4.27v-5.085c0-2.386-1.49-3.712-4.234-3.712m1.084 9.042c0 .72-.073 1.776-1.083 1.776-1.015 0-1.148-1.056-1.148-1.776v-5.116c0-.773.133-1.683 1.13-1.683 1.03 0 1.103.91 1.103 1.683v5.116zM51.432 11.695h-.043L49.812 7.61h-3.175l3.163 7.234v5.238h3.14v-5.238l3.237-7.234h-3.14M45.494 15.556c-.048-.864-.675-1.43-1.545-1.603V13.9c1.32-.54 1.66-1.505 1.66-2.834 0-2.47-1.295-3.456-3.857-3.456h-4.6v12.477H40.3V15.16h1.046c.73.064.967.554 1.07 1.326.08.767.006 1.795.067 2.893.012.24.085.477.176.707h3.43v-.164c-.15-.113-.242-.252-.303-.417-.178-.805-.202-2.953-.293-3.95m-4.124-2.632H40.3V9.867c1.54-.024 2.195.024 2.195 1.502 0 .78-.213 1.554-1.125 1.554M31.07 14.91h3.936v-2.488H31.07V10.12h4.07V7.613h-7.21v12.472h7.41V17.6h-4.27M21.615 16.364h-.036L19.972 7.61h-3.145l2.907 12.477h3.7L26.373 7.61h-3.145M11.28 14.91h3.966v-2.488H11.28V10.12h4.094V7.613H8.122v12.472h7.464V17.6H11.28"/><path d="M16.7 38.546L64.414 26.46l4.375 15.444-28.133 7.133 1.802 6.318 28.124-7.118 4.386 15.447-28.143 7.124 1.88 6.66 28.142-7.126 4.374 15.447-47.71 12.084"/></svg>