<svg xmlns="http://www.w3.org/2000/svg" width="286" height="192.319" viewBox="0 0 286 192.319"><path fill-rule="evenodd" clip-rule="evenodd" d="M0 56.074h10.485c5.292 5.3 10.584 10.596 15.754 15.77L41.89 56.193h10.652c-1.168 5.084-.372 10.26-.512 15.394-.145 5.32-.032 10.65-.032 15.976v31.42h-8.99V71.017c-3.39.196-3.374 3.434-5.126 4.86-1.745 1.424-3.593 2.845-5.026 4.733-1.495 1.97-3.47 3.576-5.297 5.402h-2.148c-4.79-4.942-10.066-9.72-15.4-16.226-.02 9.198-.01 17.12-.01 25.04-.003 7.97 0 15.937 0 24.075H1v-3.616c0-18.475.015-36.95-.05-55.423-.004-.912.995-2.435-.952-2.786v-1zm0 75c1.673.178.964 1.49.968 2.29.047 11.317.032 22.634.032 33.95 0 7.324.01 14.647-.015 21.97-.002.722.39 1.776-.985 1.79v1h10c0-15.66 0-30.97.008-46.278 0-.14.1-.297.194-.413.088-.108.23-.174.347-.26 4.948 4.95 9.896 9.898 14.897 14.898h2.366c1.46-1.537 3.154-3.356 4.888-5.138 1.627-1.672 3.082-3.64 5.002-4.863 2.06-1.313 1.833-4.69 5.18-5.063v46.9h9.117v-15.69-15.495c0-5.165-.127-10.334.035-15.494.157-4.98-.748-10.013.64-15.008H42.018l-15.715 15.715-15.807-15.81H0v1zm0-123c.283.116.81.228.812.35.046 2.767.046 5.534 0 8.302-.002.12-.53.232-.812.348v1c2.553 2.304 5.106 4.607 7.778 7.02H19.65c1.05 1.638 2.19 3.28 4.205 4.054v4.572l-4.25 4.25h-7.757l-3.733-3.896H0v1l.83.67-.83.33v1l7.72 6.967h15.813l6.43-6.43V25.942l-6.94-6.94H11.43c-1.486-1.484-2.9-2.898-4.313-4.312v-4.233l4.218-4.217h8.958l3.61 3.727h5.955V6.434L23.64.217H7.607L0 7.074v1zm286 181c-1.37 1.006-1.37 1.994 0 3v-3zm0-2v-1c-.758.15-1.914-.496-2 1h2zM214.68 56.25l-16.435 16.435c1.454 2.18.587 4.71.72 7.09.15 2.654.035 5.323.035 7.985 0 2.496.098 4.997-.027 7.486-.125 2.51.67 5.134-.8 7.502l16.21 16.208h25.234c5.53-5.53 10.943-10.94 16.355-16.355-.216-.234-.623-.47-.623-.704-.033-10.105-.028-20.21-.028-29.91l-15.69-15.735H214.68zm25.425 47.22c-.073 3.013-3.84 3-4.53 5.56H218.81l-10.783-10.78V76.817l10.744-10.73h16.67c3.478 3.515 6.978 7.05 10.56 10.667V98.96c-1.822 1.394-3.858 2.95-5.895 4.51zM131 118.897c0-8.81 0-17.446.008-26.082 0-.142.09-.3.18-.42.095-.126.24-.216.35-.31h14.814c2.118 1.942 4.137 3.794 6.648 6.1 0 6.172 0 13.14.006 20.105 0 .146.073.306.152.433.086.14.22.246.154.176h8.596V92.31l-4.876-4.183v-1.124c1.84-1.574 3.42-2.925 4.825-4.124V66.524l-10.21-10.273h-30.57V118.9c3.55-.002 6.67-.002 9.923-.002zm21.988-42.312l-6.382 6.382h-15.463V66.3h16.37c1.522 1.577 3.246 3.36 5.475 5.664v4.622zm103.817 94.794c2.14 6.084.773 12.192 1.2 17.415l-1.047 3.15h9.92V166.29l-4.855-4.165V160.3c3.43.242 2.666-3.815 4.896-4.63V140.49l-10.316-10.314h-30.437v61.96c3.06-.23 5.973.18 9.007-.254v-25.732h16.404l5.227 5.228zM235 140.6c.11-.12.208-.263.34-.354.122-.086.282-.165.426-.165 5.492-.007 10.982-.006 16.232-.006 1.627 1.634 3.136 3.15 5.15 5.176.18.562-.823 2.267.56 3.123l-1.067 3.56c-1.422 1.424-3.187 3.188-5.14 5.142H235V140.6zM91.063 56.163h-9.04L66 72.188c0 15.176 0 30.658.007 46.142 0 .142.09.3.178.42.095.128.238.22.466.417 2.985-.842 6.526 1.356 9.325-1.45-1.217-2.626-1.46-10.417-.64-19.48l1.164-1.162c6.04 0 12.187-.04 18.332.04 1.03.012 2.053.533 3.306.883v20.912h8.777V72.015c-5.486-5.487-10.648-10.65-15.852-15.852zM75.045 86.62v-8.83L86.91 65.935c2.16 1.208 3.7 3.393 5.586 5.16 1.822 1.706 3.545 3.52 5.407 5.382V87.9H76.327l-1.282-1.28zM66.17 191.977h8.697v-19.27l1.482-1.482H96.65l1.386 1.386v19.255h8.834v-46.42l-15.22-15.22h-10.3c-5.22 5.218-10.286 10.283-15.18 15.178v46.573zm8.904-39.757l11.647-11.645 11.158 11.157v10.215H75.074v-9.726zm59.395 17.823c2.37.362 3.896 2.307 4.712 3.97 1.036 2.11 3.23 2.57 4.242 4.16 1.148 1.804 3.644 2.247 4.18 4.14.607 2.14 3.78 1.893 3.574 4.44 2.143.642 3.486 2.083 4.262 4.52 1.99.322 4.12.67 6.443 1.047v-9.863c-7.176-7.175-14.325-14.39-21.573-21.502-1.075-1.055-1.52-2.047-1.3-3.138 1.137-.95 2.125-1.668 2.968-2.526.534-.543.696-1.566 1.292-1.915 3.406-1.988 5.09-5.88 8.622-7.69 2.288-4.734 7.118-7.192 9.866-11.03v-4.57h-9.266l-7.387 7.386c-2.354 2.355-4.63 4.795-7.085 7.04-2.458 2.25-4.292 5.273-8.505 7.117.738-1.646 1.342-2.39 1.334-3.13-.01-.875-.79-1.74-.81-2.618-.09-4.327-.077-8.658-.01-12.985.015-.85.434-1.69.69-2.625h-9.622v61.608h9.882c-1.238-2.92-1.52-14.813-.687-25.615 1.816.8 3.775 1.425 4.176 3.78zm41.625-39.793v61.63h35.786v-8.896h-26.735v-17.05h21.684v-8.877h-20.563c-2.23-2.524-1.044-5.46-1.222-8.133-.196-2.93-.045-5.884-.045-8.98h26.9v-9.695h-35.805zm-12.93-105.09h11.42l4.47 4.468v14.24h6.83v-18.73l-3.69-3.073 3.643-3.642V8.058c-2.93-2.93-5.378-5.38-7.89-7.89h-21.792V43.98h7.008V25.16zm15.76-10.968c-1.54 1.534-3.052 3.036-4.808 4.784h-10.965V6.188c1.74-.036 3.662-.09 5.583-.11 1.968-.02 3.937-.004 5.765-.004l4.426 4.426v3.692zM46.816 33.29V.012c-2.377.236-4.605-.24-6.115.146.507 3.27.25 6.206.29 9.1.044 3.165.01 6.33.01 9.494 0 2.998.133 6.004-.036 8.992-.17 3.006.85 6.13-.668 8.812l7.227 7.473h16.023l6.313-6.313V.32h-7.016v34.343l-3.812 3.384h-7.55l-4.667-4.757zm139.01 22.88h-9.65v62.808h9.65V56.17zm-65.65-12.197h25.62V37.99h-18.543c-.874-3.934.65-7.913-1.02-11.646l1.357-1.357h14.264v-5.882h-14.346l-1.47-1.538c1.288-2.83 1.34-7.087.143-10.172l1.414-1.413h18.257V.175h-25.673v43.798zM81.233.235V43.92h5.917V25.08h15.87c2.433-2.435 4.647-4.65 6.905-6.907V6.505L103.66.235H81.232zm5.854 5.84c2.79 0 5.566.134 8.323-.04 2.785-.174 4.977.772 6.822 2.765.562.606 1.167 1.174 1.76 1.767v4.007l-4.505 4.5H87.085v-13zm193.164 183v3h.5v-3h-.5zm-4.992-1.965l1.637-.39-.078-.476h-1.658c.03.29.065.578.098.866zm5.34-.07c.48-.066.937-.276 1.402-.432-.603-.17-1.205-.343-2.475-.703.725.786.927 1.157 1.074 1.136zm1.402.034l.756 1 1.244-1h-2z"/></svg>