<?xml version="1.0" encoding="UTF-8" standalone="no"?>
<svg width="170px" height="25px" viewBox="0 0 170 25" version="1.1" xmlns="http://www.w3.org/2000/svg" xmlns:xlink="http://www.w3.org/1999/xlink" xmlns:sketch="http://www.bohemiancoding.com/sketch/ns">
    <!-- Generator: Sketch 3.3.2 (12043) - http://www.bohemiancoding.com/sketch -->
    <title>eb-logo</title>
    <desc>Created with Sketch.</desc>
    <defs></defs>
    <g id="Page-1" stroke="none" stroke-width="1" fill="none" fill-rule="evenodd" sketch:type="MSPage">
        <g id="Desktop" sketch:type="MSArtboardGroup" transform="translate(-100.000000, -29.000000)">
            <g id="eb-logo" sketch:type="MSLayerGroup" transform="translate(100.000000, 29.000000)">
                <path d="M36.5539855,12.5644928 C37.1202899,12.7648551 37.623913,12.9355072 38.1213768,13.1217391 C38.6804348,13.3311594 39.2028986,13.6094203 39.6528986,14.007971 C40.5347826,14.7894928 40.7076087,15.8021739 40.1206522,16.8217391 C39.5942029,17.7362319 38.8144928,18.4003623 37.9322464,18.948913 C36.3391304,19.9398551 34.5804348,20.5782609 32.8594203,21.2931159 C31.125,22.0137681 29.3764493,22.6978261 27.5764493,23.2460145 C27.2655797,23.3405797 26.8869565,23.4141304 26.8235507,23.8623188 C26.7960145,24.0557971 26.6130435,23.9699275 26.501087,23.9554348 C25.5713768,23.8351449 24.9188406,22.9981884 25.0286232,21.9764493 C25.1721014,20.6380435 25.8931159,19.6815217 27.1554348,19.2101449 C28.2101449,18.8166667 29.2996377,18.5166667 30.3695652,18.1626812 C31.9753623,17.6311594 33.5492754,17.0152174 35.098913,16.3369565 C35.1518116,16.3137681 35.2054348,16.2916667 35.2547101,16.2623188 C35.5528986,16.0873188 35.9380435,15.9351449 35.8952899,15.526087 C35.85,15.0891304 35.4434783,14.9471014 35.0764493,14.857971 C34.0967391,14.6210145 33.0978261,14.6217391 32.0978261,14.6684783 C31.9677536,14.6746377 31.8376812,14.6804348 31.7072464,14.6807971 C30.8141304,14.6844203 30.6365942,14.5485507 30.4351449,13.6789855 C30.382971,13.4539855 30.3525362,13.2224638 30.334058,12.992029 C30.2619565,12.0876812 30.5952899,11.3869565 31.3847826,10.9112319 C32.5746377,10.1945652 33.7913043,9.52934783 35.0503623,8.9423913 C36.5304348,8.25217391 38.0369565,7.61557971 39.442029,6.775 C39.7394928,6.59710145 40.025,6.39927536 40.3108696,6.20326087 C40.4394928,6.11485507 40.6155797,6.02028986 40.559058,5.83695652 C40.5061594,5.66630435 40.3108696,5.65434783 40.1557971,5.64021739 C39.5014493,5.58115942 38.8561594,5.67065217 38.2101449,5.76485507 C35.7713768,6.12065217 33.4115942,6.82282609 31.0242754,7.40289855 C30.7068841,7.47971014 30.2768116,7.42717391 30.1021739,7.69021739 C29.926087,7.9557971 30.2565217,8.27028986 30.3221014,8.57608696 C30.5192029,9.49130435 30.5210145,10.382971 30.0891304,11.2438406 C29.1927536,13.0300725 28.1557971,14.732971 27.0438406,16.390942 C26.2213768,17.617029 25.3945652,18.8402174 24.5565217,20.0557971 C23.9253623,20.9717391 22.5655797,20.8550725 22.0543478,19.8478261 C21.6199275,18.992029 21.6362319,18.1210145 21.998913,17.2467391 C22.2731884,16.5858696 22.6695652,15.9967391 23.1047101,15.4362319 C24.7971014,13.2550725 26.1068841,10.8365942 27.4634058,8.44673913 C27.5623188,8.27282609 27.5536232,8.17391304 27.4032609,8.04565217 C26.9032609,7.61847826 26.7771739,7.08695652 26.9083333,6.44311594 C27.2405797,4.80905797 28.0793478,3.67572464 29.7452899,3.16413043 C33.2293478,2.0942029 36.7735507,1.76304348 40.3855072,2.17753623 C41.5304348,2.30905797 42.6195652,2.66050725 43.5405797,3.40217391 C44.667029,4.30942029 44.9826087,5.67862319 44.3532609,6.98913043 C44.0297101,7.66195652 43.5742754,8.24565217 42.990942,8.71376812 C41.0438406,10.2771739 38.9938406,11.6731884 36.5539855,12.5644928 L36.5539855,12.5644928 Z M0.230072464,14.0724638 C0.681884058,14.8456522 1.3615942,15.2423913 2.24927536,15.3003623 C2.46594203,15.3144928 2.68115942,15.3449275 2.89746377,15.3630435 C3.07028986,15.3775362 3.13369565,15.4702899 3.07536232,15.6268116 C2.82572464,16.2934783 2.93623188,16.9728261 3.01811594,17.6445652 C3.27536232,19.7485507 4.86195652,20.9072464 6.63804348,21.0898551 C7.47137681,21.1753623 8.31557971,21.1242754 9.15543478,21.0666667 C11.8619565,20.8793478 14.5032609,20.248913 17.1862319,19.901087 C17.9355072,19.8036232 18.2844203,19.3003623 18.1626812,18.5478261 C18.0076087,17.5876812 17.3344203,17.0858696 16.4963768,16.7778986 C15.3054348,16.3394928 14.0641304,16.451087 12.840942,16.557971 C11.2405797,16.6978261 9.64710145,16.9119565 8.04963768,17.0826087 C7.53043478,17.1380435 7.00797101,17.1376812 6.49311594,17.0246377 C5.97717391,16.9112319 5.81231884,16.6851449 5.99021739,16.1913043 C6.24855072,15.4746377 6.56775362,14.7862319 7.49927536,14.7471014 C7.69891304,14.7387681 7.89601449,14.6684783 8.09528986,14.6311594 C12.3307971,13.8355072 16.534058,12.8576087 20.8307971,12.4047101 C21.8492754,12.2974638 22.8699275,12.1275362 23.8264493,11.7257246 C24.7123188,11.3532609 24.9235507,10.7605072 24.4641304,9.91304348 C24.0021739,9.06050725 23.2869565,8.53768116 22.317029,8.39311594 C21.5818841,8.28333333 20.8402174,8.31014493 20.1039855,8.34528986 C17.3811594,8.47572464 14.6942029,8.91050725 12.0061594,9.33405797 C11.5108696,9.41195652 11.0192029,9.54782609 10.4427536,9.54528986 C10.825,9.13804348 11.134058,8.77318841 11.4804348,8.44855072 C11.8547101,8.09855072 11.8681159,7.69818841 11.7315217,7.25688406 C11.6847826,7.10688406 11.6148551,6.96413043 11.5492754,6.80362319 C11.7862319,6.74565217 12.0108696,6.69818841 12.2315217,6.63550725 C15.1112319,5.82101449 17.9981884,5.03224638 20.9398551,4.46630435 C22.4231884,4.1807971 23.9123188,3.96014493 25.4061594,4.41050725 C25.8728261,4.55108696 26.3231884,4.52282609 26.6355072,4.13043478 C26.9518116,3.73297101 27.0003623,3.2673913 26.7637681,2.78478261 C26.467029,2.18043478 26.0184783,1.72246377 25.4608696,1.3634058 C24.2311594,0.571376812 22.8547101,0.463405797 21.4492754,0.536956522 C19.198913,0.655072464 17.0076087,1.12971014 14.8318841,1.68369565 C11.4945652,2.53333333 8.23768116,3.63768116 4.99384058,4.78405797 C4.40833333,4.99094203 3.78297101,5.12971014 3.22717391,4.65869565 C3.07789855,4.53224638 2.99130435,4.6423913 2.89565217,4.72681159 C2.63514493,4.95615942 2.5942029,5.27753623 2.54130435,5.59130435 C2.32934783,6.84710145 2.96376812,8.43949275 4.82463768,8.33550725 C5.6076087,8.29166667 6.38043478,8.20507246 7.12391304,7.93985507 C7.27862319,7.88478261 7.475,7.82065217 7.57463768,7.94492754 C7.70978261,8.11376812 7.4826087,8.21811594 7.39673913,8.33007246 C6.77065217,9.14565217 6.13224638,9.95144928 5.50108696,10.7626812 C5.40326087,10.8884058 5.31992754,11.015942 5.15471014,11.0731884 C3.87826087,11.5141304 2.59528986,11.917029 1.21666667,11.7307971 C0.967028986,11.6971014 0.811231884,11.7826087 0.661231884,11.9695652 C0.429347826,12.2586957 0.383333333,12.6224638 0.230072464,12.942029 L0.230072464,14.0724638 L0.230072464,14.0724638 Z" id="eb" fill="#EC1D25" sketch:type="MSShapeGroup"></path>
                <path d="M28.7514493,24.7681159 C28.5242754,24.5793478 28.3018116,24.376087 28.4380435,24.0434783 C28.5713768,23.7181159 28.8554348,23.6264493 29.1847826,23.6365942 C29.3152174,23.640942 29.4456522,23.6373188 29.576087,23.6373188 L160.913768,23.6373188 C161.486594,23.6373188 161.53587,23.6322464 161.473913,23.0663043 C161.405072,22.4391304 161.667029,22.0757246 162.146739,21.7112319 C163.945652,20.3445652 165.711957,18.9355072 167.489855,17.540942 C167.568841,17.4789855 167.642029,17.409058 167.735507,17.3271739 C167.535507,17.1322464 167.281159,17.0557971 167.047826,16.9811594 C166.655072,16.8554348 166.554348,16.6956522 166.7,16.2706522 C167.084058,15.1503623 167.402899,14.0076087 167.748188,12.873913 C167.780435,12.7673913 167.836957,12.6644928 167.791304,12.5101449 C166.743116,12.7786232 165.693841,13.0322464 164.655435,13.323913 C164.362681,13.4065217 164.242029,13.3445652 164.138768,13.076087 C163.978623,12.6583333 163.785145,12.2536232 163.576449,11.7757246 C161.684058,13.8873188 159.818841,15.9688406 157.872826,18.1402174 C158.522826,14.4405797 159.152174,10.8605072 159.79529,7.20036232 C159.234058,7.54746377 158.715217,7.84347826 158.225,8.18152174 C157.95942,8.36521739 157.860507,8.30978261 157.725725,8.03949275 C156.856159,6.29311594 155.969928,4.55471014 155.056522,2.75 C154.649275,3.54818841 154.26558,4.29673913 153.885145,5.04637681 C153.48587,5.83297101 153.078623,6.61557971 152.697464,7.41086957 C152.582609,7.65 152.486594,7.65398551 152.285145,7.52137681 C151.767391,7.18115942 151.237681,6.85978261 150.630072,6.47934783 C150.782246,7.38804348 150.901449,8.21231884 151.06413,9.02753623 C151.137319,9.39202899 151.083333,9.57862319 150.674275,9.56992754 C150.532971,9.56666667 150.389493,9.61557971 150.247464,9.64057971 C150.100362,9.66630435 150.001449,9.64202899 149.971739,9.46231884 C149.68587,7.72608696 149.393478,5.99094203 149.088406,4.16775362 C150.003986,4.74094203 150.857246,5.25289855 151.683696,5.80434783 C152.024275,6.03152174 152.156522,5.98478261 152.335507,5.61775362 C153.135145,3.9807971 153.967754,2.35978261 154.790217,0.733695652 C154.867754,0.579710145 154.955797,0.430434783 155.061232,0.238405797 C155.575362,1.24963768 156.073551,2.22427536 156.567029,3.20072464 C157.108333,4.27210145 157.657609,5.33985507 158.177899,6.42101449 C158.318116,6.71195652 158.427899,6.71847826 158.680435,6.55507246 C159.539493,5.99963768 160.41413,5.4673913 161.355435,4.88115942 C160.795652,8.0692029 160.250725,11.1699275 159.682246,14.4068841 C161.136594,12.7851449 162.507246,11.2572464 163.909058,9.69456522 C164.231522,10.4300725 164.543478,11.1083333 164.825,11.798913 C164.917029,12.025 165.013043,12.0572464 165.238406,11.9971014 C166.522464,11.6525362 167.811957,11.325 169.1,10.9934783 C169.222101,10.9615942 169.346739,10.9391304 169.540942,10.8971014 C169.278261,11.7576087 169.031884,12.5652174 168.78587,13.3728261 C168.541667,14.175 168.31413,14.982971 168.044928,15.7768116 C167.944203,16.0721014 168.018478,16.182971 168.290942,16.2768116 C168.860145,16.4724638 169.368841,16.8221014 169.968841,16.942029 L169.968841,17.115942 C169.917391,17.1311594 169.85471,17.1333333 169.814855,17.1644928 C167.484783,18.9894928 165.156522,20.8173913 162.827536,22.6445652 C162.724275,22.726087 162.619928,22.8014493 162.625725,22.9543478 C162.648551,23.5586957 162.575,24.1652174 162.664493,24.7681159 L28.7514493,24.7681159 L28.7514493,24.7681159 Z M24.1431159,24.7681159 C24.4137681,24.6003623 24.6605072,24.4068841 24.534058,24.0405797 C24.4144928,23.6934783 24.1083333,23.642029 23.7894928,23.6380435 C23.6735507,23.6365942 23.5576087,23.6376812 23.442029,23.6376812 C16.4894928,23.6376812 9.53695652,23.6362319 2.58478261,23.6413043 C2.21449275,23.6416667 1.72137681,23.4753623 1.50833333,23.7199275 C1.32644928,23.9286232 1.4557971,24.4083333 1.44746377,24.7681159 L24.1431159,24.7681159 L24.1431159,24.7681159 Z" id="canada" fill="#EC1D25" sketch:type="MSShapeGroup"></path>
                <path d="M91.3996377,8.62971014 C90.9615942,9.71485507 90.5528986,10.7235507 90.1474638,11.7333333 C88.759058,15.1891304 87.3684783,18.6442029 85.9902174,22.1043478 C85.8952899,22.3423913 85.7927536,22.432971 85.5307971,22.4271739 C84.7057971,22.4086957 83.8797101,22.4202899 82.9902174,22.4202899 C83.2536232,21.7681159 83.5028986,21.1478261 83.7543478,20.5289855 C85.1731884,17.0384058 86.5949275,13.548913 88.0101449,10.0568841 C88.2815217,9.38695652 88.492029,8.69710145 88.5884058,7.97608696 C88.7771739,6.56050725 88.4996377,5.37463768 87.0152174,4.78913043 C87.0898551,4.60905797 87.2257246,4.68514493 87.3221014,4.68514493 C90.8431159,4.68007246 94.3648551,4.68586957 97.8862319,4.67355072 C98.2086957,4.67210145 98.2608696,4.77427536 98.2286232,5.06304348 C97.9163043,7.86847826 97.6134058,10.6746377 97.309058,13.4807971 C97.257971,13.9550725 97.2112319,14.4293478 97.1623188,14.9072464 C97.3224638,14.925 97.3344203,14.8 97.3818841,14.7264493 C99.5057971,11.4847826 101.626449,8.24166667 103.748913,4.99855072 C103.856884,4.83369565 103.938043,4.67246377 104.202899,4.67355072 C106.897464,4.68586957 109.592391,4.68115942 112.33587,4.68115942 C111.971377,5.69746377 111.620652,6.68550725 111.263768,7.67101449 C109.528623,12.4623188 107.788406,17.2521739 106.062681,22.0474638 C105.956884,22.340942 105.823188,22.4300725 105.515942,22.4278986 C103.372826,22.4134058 101.230072,22.4202899 99.0228261,22.4202899 C100.69529,17.8025362 102.352899,13.2246377 104.01087,8.64673913 C103.979348,8.63152174 103.948188,8.61666667 103.916667,8.60144928 C103.28442,9.55978261 102.650362,10.5166667 102.019203,11.476087 C99.6753623,15.0405797 97.3304348,18.6043478 94.9945652,22.173913 C94.8641304,22.3728261 94.726087,22.4268116 94.5018116,22.4253623 C93.1539855,22.4152174 91.8065217,22.4155797 90.4586957,22.4246377 C90.201087,22.426087 90.084058,22.4126812 90.1202899,22.0807971 C90.4775362,18.8003623 90.8134058,15.5173913 91.1539855,12.2351449 C91.2554348,11.2561594 91.3528986,10.2768116 91.4536232,9.29818841 C91.473913,9.10253623 91.4757246,8.90978261 91.3996377,8.62971014 L91.3996377,8.62971014 Z M56.1304348,22.0945652 C56.1358696,22.3347826 56.2192029,22.4126812 56.4644928,22.4108696 C57.9713768,22.4007246 59.4782609,22.4007246 60.9851449,22.4115942 C61.1985507,22.4130435 61.2873188,22.3347826 61.3583333,22.148913 C62.3981884,19.4253623 63.4398551,16.7025362 64.4934783,13.9844203 C64.5971014,13.717029 64.5431159,13.675 64.2789855,13.6757246 C61.2797101,13.682971 58.2807971,13.6818841 55.2815217,13.6775362 C55.0865942,13.6771739 54.9706522,13.7144928 54.8952899,13.925 C54.6666667,14.5630435 54.4163043,15.1945652 54.1572464,15.8213768 C54.0449275,16.0927536 54.1416667,16.1264493 54.3884058,16.1213768 C55.0981884,16.1083333 55.8083333,16.1210145 56.5181159,16.1144928 C56.7221014,16.1123188 56.825,16.1474638 56.7304348,16.3797101 C56.5561594,16.807971 56.4177536,17.2518116 56.2213768,17.6688406 C55.3742754,19.4666667 53.3876812,20.4152174 51.5775362,19.9014493 C50.7192029,19.657971 50.2981884,19.0347826 50.373913,18.1471014 C50.4097826,17.7235507 50.5293478,17.3242754 50.6793478,16.9326087 C51.2981884,15.3152174 51.9184783,13.6985507 52.5416667,12.082971 C52.940942,11.0463768 53.2952899,9.99021739 53.8960145,9.0423913 C54.9757246,7.33876812 56.592029,6.73043478 58.5322464,7.12318841 C59.3706522,7.2923913 59.7311594,7.86195652 59.6431159,8.71231884 C59.6068841,9.0615942 59.5188406,9.3942029 59.3952899,9.71956522 C59.2018116,10.2286232 59.007971,10.7373188 58.8028986,11.275 C58.9318841,11.2815217 59.0152174,11.2894928 59.0985507,11.2894928 C61.1416667,11.2902174 63.1847826,11.2862319 65.2275362,11.2956522 C65.4282609,11.2963768 65.4666667,11.1789855 65.5155797,11.0467391 C65.7112319,10.5192029 65.926087,9.99710145 66.0927536,9.46014493 C66.7235507,7.42934783 66.0467391,5.97681159 64.0847826,5.15144928 C63.7007246,4.98985507 63.2985507,4.84891304 62.8905797,4.76956522 C59.2297101,4.05797101 55.575,4.10652174 51.9648551,5.04710145 C49.4181159,5.71050725 47.5673913,7.28768116 46.4257246,9.67463768 C46.0322464,10.4963768 45.7268116,11.3532609 45.4097826,12.2054348 C44.826087,13.773913 44.1105072,15.2967391 43.6735507,16.9155797 C42.9478261,19.6043478 44.0865942,21.5746377 46.7644928,22.3322464 C48.1438406,22.7224638 49.5554348,22.8043478 50.9793478,22.7242754 C52.7394928,22.625 54.4601449,22.3702899 56.0333333,21.3724638 C56.0713768,21.6387681 56.1253623,21.8663043 56.1304348,22.0945652 L56.1304348,22.0945652 Z M148.099275,9.48188406 C148.300362,9.4826087 148.361594,9.39166667 148.424638,9.21847826 C148.888768,7.94311594 148.523913,6.63695652 147.448913,5.79746377 C146.788406,5.28188406 146.030435,4.96847826 145.225,4.76521739 C143.161232,4.24347826 141.069203,4.24347826 138.971014,4.46521739 C137.160145,4.65652174 135.411957,5.08731884 133.814855,6 C132.262319,6.88695652 131.114855,8.11195652 130.632971,9.88333333 C130.167754,11.5934783 130.635507,12.8934783 132.104348,13.8695652 C132.464493,14.1086957 132.848551,14.3163043 133.238768,14.5021739 C134.178623,14.951087 135.175,15.2572464 136.146377,15.6278986 C136.796014,15.8757246 137.436594,16.142029 137.964855,16.6126812 C138.305797,16.9155797 138.526087,17.2931159 138.468478,17.757971 C138.375362,18.509058 138.06558,19.1724638 137.377899,19.5405797 C136.150725,20.1971014 134.873913,20.1934783 133.622101,19.6148551 C132.992391,19.3235507 132.739855,18.6898551 132.888768,18.0105072 C132.946739,17.7467391 133.038768,17.4902174 133.123551,17.2032609 L127.759058,17.2032609 C127.658696,17.2032609 127.57029,17.1981884 127.50942,17.317029 C127.005797,18.2952899 126.803986,19.7554348 127.671377,20.7963768 C128.238043,21.4764493 128.98587,21.8757246 129.806522,22.1449275 C131.636957,22.7456522 133.526449,22.8094203 135.429348,22.7257246 C137.421377,22.6380435 139.373188,22.3398551 141.219203,21.5478261 C143.231884,20.6836957 144.821377,19.3699275 145.641667,17.2673913 C146.494565,15.0800725 145.80942,13.2811594 143.726087,12.2246377 C142.769565,11.7398551 141.756159,11.4003623 140.75,11.0431159 C140.029348,10.7873188 139.284058,10.592029 138.634783,10.165942 C137.892029,9.67826087 137.719203,9.00036232 138.140942,8.21594203 C138.353261,7.82065217 138.671739,7.53152174 139.081159,7.35072464 C139.919565,6.98152174 140.78913,6.92282609 141.669203,7.15253623 C142.355072,7.33152174 142.763043,7.7942029 142.813406,8.4134058 C142.842029,8.76485507 142.724638,9.09565217 142.582246,9.47826087 C144.45,9.47826087 146.274638,9.47572464 148.099275,9.48188406 L148.099275,9.48188406 Z M65.4742754,22.426087 C65.7184783,22.4293478 65.8626812,22.3561594 66.0007246,22.1492754 C66.7945652,20.9583333 67.6115942,19.7826087 68.4057971,18.5913043 C68.55,18.3753623 68.6978261,18.2833333 68.9630435,18.2844203 C71.0347826,18.2952899 73.1065217,18.2985507 75.1782609,18.2826087 C75.5068841,18.2797101 75.5554348,18.3855072 75.5282609,18.6782609 C75.4235507,19.815942 75.3532609,20.9576087 75.2402174,22.0949275 C75.2115942,22.3807971 75.284058,22.4271739 75.5463768,22.426087 C77.4731884,22.4155797 79.4,22.4155797 81.3268116,22.426087 C81.5800725,22.4275362 81.6797101,22.3702899 81.698913,22.101087 C81.8365942,20.1384058 81.9887681,18.1768116 82.1384058,16.2148551 C82.4213768,12.5076087 82.7007246,8.8 82.9974638,5.09384058 C83.0253623,4.74528986 82.9384058,4.67173913 82.5992754,4.67318841 C79.0210145,4.68586957 75.4423913,4.68043478 71.8641304,4.68333333 C71.7311594,4.68333333 71.5855072,4.63876812 71.4405797,4.73695652 C71.4793478,4.78442029 71.4974638,4.82898551 71.5278986,4.84094203 C72.4445652,5.20615942 72.892029,6.13442029 72.5873188,7.30217391 C72.3684783,8.14311594 71.9278986,8.86992754 71.4384058,9.57101449 C69.3188406,12.6068841 67.1963768,15.6405797 65.076087,18.676087 C64.2181159,19.9039855 63.3637681,21.1344203 62.4681159,22.4206522 C63.5163043,22.4206522 64.4952899,22.4123188 65.4742754,22.426087 L65.4742754,22.426087 Z M76.2927536,9.71847826 C76.1271739,11.6789855 75.957971,13.6391304 75.7905797,15.6 C75.773913,15.7963768 75.8173913,15.9949275 75.4873188,15.9923913 C73.7507246,15.9778986 72.0141304,15.9855072 70.198913,15.9855072 C72.2971014,12.9152174 74.3634058,9.89057971 76.4297101,6.86666667 C76.4605072,6.87210145 76.490942,6.87717391 76.5217391,6.88297101 C76.4456522,7.82826087 76.3728261,8.77355072 76.2927536,9.71847826 L76.2927536,9.71847826 Z M117.868841,19.826087 C117.394203,19.8257246 117.394565,19.8253623 117.571739,19.367029 C118.149275,17.8724638 118.736232,16.3818841 119.295652,14.8804348 C119.405435,14.5858696 119.544565,14.4978261 119.852536,14.4996377 C121.822464,14.5144928 123.793478,14.5028986 125.763768,14.5126812 C126.01087,14.5141304 126.144928,14.4583333 126.230797,14.2054348 C126.452899,13.5492754 126.693116,12.8985507 126.957971,12.2586957 C127.09058,11.9394928 126.986594,11.9057971 126.697464,11.907971 C125.147464,11.9184783 123.597101,11.9126812 122.047101,11.9126812 L120.502174,11.9126812 C120.457971,11.7192029 120.553623,11.5942029 120.603261,11.4637681 C121.087319,10.1963768 121.589855,8.93586957 122.06087,7.6634058 C122.17971,7.34202899 122.332246,7.23514493 122.682609,7.23768116 C125.203623,7.2557971 127.724638,7.24855072 130.245652,7.24384058 C130.389855,7.24347826 130.58442,7.3307971 130.66558,7.12355072 C130.978623,6.32282609 131.28442,5.5192029 131.593841,4.71449275 L113.402536,4.71449275 C113.469203,4.78514493 113.490217,4.82644928 113.522826,4.83949275 C114.402899,5.19528986 114.786232,5.8826087 114.857971,6.79565217 C114.930435,7.72427536 114.752174,8.61775362 114.431522,9.47318841 C113.291304,12.5137681 112.123188,15.5442029 110.96558,18.5786232 C110.483333,19.8431159 110.000362,21.1072464 109.499275,22.4206522 L110.013043,22.4206522 L121.531522,22.4206522 C122.516667,22.4206522 123.501812,22.4221014 124.486957,22.4184783 C124.632609,22.4181159 124.787319,22.4728261 124.87029,22.2492754 C125.163768,21.4525362 125.482609,20.6648551 125.81087,19.826087 L117.868841,19.826087 L117.868841,19.826087 Z" id="games" fill="#010101" sketch:type="MSShapeGroup"></path>
            </g>
        </g>
    </g>
</svg>