<?xml version="1.0" encoding="utf-8"?>
<!-- Generator: Adobe Illustrator 16.0.0, SVG Export Plug-In . SVG Version: 6.00 Build 0)  -->
<!DOCTYPE svg PUBLIC "-//W3C//DTD SVG 1.1//EN" "http://www.w3.org/Graphics/SVG/1.1/DTD/svg11.dtd">
<svg version="1.1" id="Layer_1" xmlns="http://www.w3.org/2000/svg" xmlns:xlink="http://www.w3.org/1999/xlink" x="0px" y="0px"
	 width="93.068px" height="130.355px" viewBox="0 0 93.068 130.355" enable-background="new 0 0 93.068 130.355"
	 xml:space="preserve">
<metadata><?xpacket begin="﻿" id="W5M0MpCehiHzreSzNTczkc9d"?>
<x:xmpmeta xmlns:x="adobe:ns:meta/" x:xmptk="Adobe XMP Core 5.3-c011 66.145661, 2012/02/06-14:56:27        ">
   <rdf:RDF xmlns:rdf="http://www.w3.org/1999/02/22-rdf-syntax-ns#">
      <rdf:Description rdf:about=""
            xmlns:dc="http://purl.org/dc/elements/1.1/">
         <dc:format>image/svg+xml</dc:format>
         <dc:title>
            <rdf:Alt>
               <rdf:li xml:lang="x-default">Web</rdf:li>
            </rdf:Alt>
         </dc:title>
      </rdf:Description>
      <rdf:Description rdf:about=""
            xmlns:xmp="http://ns.adobe.com/xap/1.0/"
            xmlns:xmpGImg="http://ns.adobe.com/xap/1.0/g/img/">
         <xmp:CreatorTool>Adobe Illustrator CS6 (Macintosh)</xmp:CreatorTool>
         <xmp:CreateDate>2015-11-15T23:20:03-05:00</xmp:CreateDate>
         <xmp:ModifyDate>2015-11-15T23:20:04-05:00</xmp:ModifyDate>
         <xmp:MetadataDate>2015-11-15T23:20:04-05:00</xmp:MetadataDate>
         <xmp:Thumbnails>
            <rdf:Alt>
               <rdf:li rdf:parseType="Resource">
                  <xmpGImg:width>184</xmpGImg:width>
                  <xmpGImg:height>256</xmpGImg:height>
                  <xmpGImg:format>JPEG</xmpGImg:format>
                  <xmpGImg:image>/9j/4AAQSkZJRgABAgEASABIAAD/7QAsUGhvdG9zaG9wIDMuMAA4QklNA+0AAAAAABAASAAAAAEA&#xA;AQBIAAAAAQAB/+4ADkFkb2JlAGTAAAAAAf/bAIQABgQEBAUEBgUFBgkGBQYJCwgGBggLDAoKCwoK&#xA;DBAMDAwMDAwQDA4PEA8ODBMTFBQTExwbGxscHx8fHx8fHx8fHwEHBwcNDA0YEBAYGhURFRofHx8f&#xA;Hx8fHx8fHx8fHx8fHx8fHx8fHx8fHx8fHx8fHx8fHx8fHx8fHx8fHx8fHx8f/8AAEQgBAAC4AwER&#xA;AAIRAQMRAf/EAaIAAAAHAQEBAQEAAAAAAAAAAAQFAwIGAQAHCAkKCwEAAgIDAQEBAQEAAAAAAAAA&#xA;AQACAwQFBgcICQoLEAACAQMDAgQCBgcDBAIGAnMBAgMRBAAFIRIxQVEGE2EicYEUMpGhBxWxQiPB&#xA;UtHhMxZi8CRygvElQzRTkqKyY3PCNUQnk6OzNhdUZHTD0uIIJoMJChgZhJRFRqS0VtNVKBry4/PE&#xA;1OT0ZXWFlaW1xdXl9WZ2hpamtsbW5vY3R1dnd4eXp7fH1+f3OEhYaHiImKi4yNjo+Ck5SVlpeYmZ&#xA;qbnJ2en5KjpKWmp6ipqqusra6voRAAICAQIDBQUEBQYECAMDbQEAAhEDBCESMUEFURNhIgZxgZEy&#xA;obHwFMHR4SNCFVJicvEzJDRDghaSUyWiY7LCB3PSNeJEgxdUkwgJChgZJjZFGidkdFU38qOzwygp&#xA;0+PzhJSktMTU5PRldYWVpbXF1eX1RlZmdoaWprbG1ub2R1dnd4eXp7fH1+f3OEhYaHiImKi4yNjo&#xA;+DlJWWl5iZmpucnZ6fkqOkpaanqKmqq6ytrq+v/aAAwDAQACEQMRAD8AIvyM/Jv8qvMf5W3vm/zo&#xA;88AsryeKe6WdookhjSMgsFB7yHFU8/wD/wA4bf8AUx/9Psv/ADRirv8AAP8Azht/1Mf/AE+y/wDN&#xA;GKu/wD/zht/1Mf8A0+y/80Yq7/AP/OG3/Ux/9Psv/NGKu/wD/wA4bf8AUx/9Psv/ADRirv8AAP8A&#xA;zht/1Mf/AE+y/wDNGKu/wD/zht/1Mf8A0+y/80Yq7/AP/OG3/Ux/9Psv/NGKu/wD/wA4bf8AUx/9&#xA;Psv/ADRirv8AAP8Azht/1Mf/AE+y/wDNGKu/wD/zht/1Mf8A0+y/80Yq7/AP/OG3/Ux/9Psv/NGK&#xA;u/wD/wA4bf8AUx/9Psv/ADRirv8AAP8Azht/1Mf/AE+y/wDNGKu/wD/zht/1Mf8A0+y/80Yq7/AP&#xA;/OG3/Ux/9Psv/NGKu/wD/wA4bf8AUx/9Psv/ADRirv8AAP8Azht/1Mf/AE+y/wDNGKu/wD/zht/1&#xA;Mf8A0+y/80Yq7/AP/OG3/Ux/9Psv/NGKu/wD/wA4bf8AUx/9Psv/ADRiqD/ML8pfJX5f/mf+U0nl&#xA;dJ1TV9bha4aeUyhhBd2RjK1Ap/fNirf5af8ArH/nL/jPd/8AEbfFXzEiPI6xoCzuQqqOpJ2AGKsz&#xA;/wCVKfm5/wBShqv/AEiy/wBMVQmr/lX+ZGj6dNqWq+WtRstPtgGnup7eRI0BIUFmIoNyBircP5Uf&#xA;mVPpcerQ+WdRk02WAXUd2tvIY2gZPUEgYChUpvXwxVJtB8ua95hv/wBH6HYT6lfFGk+rWyNJJwX7&#xA;TcVqaCuKphqf5d+etL1Cw03UdBvbS/1RzHp1rNC6STuCAVjUirGrjp44qmf/ACpT83P+pQ1X/pFl&#xA;/piqW6/+XPnzy7Yi/wBd0C+0yyLiIXFzA8ac2BKryYUqQpxVHWv5Pfmnd2sN1a+VNTmtrhFlgmS2&#xA;kKujgMrKQNwQajFUJrP5ZfmJolo95q3lrU7KzjHKW6mtJliQf5cnHiv0nFUP5c8iecvM0U03l/Rb&#xA;zVYrZgk72kTShGYVUNxBpUDFUDrHl/XNF1R9J1awnsdTj4c7OeNklHqKGT4CK/EGBGKp1q35V/mR&#xA;o+nT6lqvlrULLT7YBp7qe3dI0BIUFmYUG5AxVLvLXk3zX5nuWtvL2k3WqSx0MotomkCA9C7AcUB/&#xA;yjiqba7+UX5m6DYtf6t5av7WyjqZbkws8aAd5GTkEHu1MVSPQPLXmDzFfGw0LT59TvQhlNvbI0j8&#xA;FIDNxXegLDFUR5k8k+b/ACyLc+YdHu9KF1y+rG7heISenTnxLAV48hX54qjda/K/8xdE02bVNY8u&#xA;ahYadb8fXu7i3eONObhF5MRQVdgB74q1on5ZfmFr2nR6lo3l2/1DT5Syx3VvA8kbFCVYBlFNiKYq&#xA;jv8AlSn5uf8AUoar/wBIsv8ATFWHTwTQTyQTIY5omKSxsKMrKaMCPEHFX2N+fH/KffkV/wBtVP8A&#xA;qJ07FWKflp/6x/5y/wCM93/xG3xV816T/wAdWy/4zxf8TGKv0k/Mjzn/AIL8kar5o+p/X/0ZGkn1&#xA;P1PR9TnKsdPU4Scac6/ZOKvlX8yP+ctf8aeSNV8r/wCFfqH6TjSP659f9b0+EqyV9P6tHyrwp9oY&#xA;q90/5xi12PzB+SmlQTn1X0/19LuQenGNyY1/5ESIMVeU/wDOIfk+XTvzK86yzKS2gxtpJZuoeS5N&#xA;e3X/AEQ4qiPza8xfpH/nLHyZpSNWLRJ9PgZf+LZ5frDH6UkQfRir2/8AOT8z/wDlW3lFPMP6M/Sv&#xA;O7itPqvr/Vqeqrtz5+nN09PpxxV8q/nJ/wA5Mf8AKyfKKeXv8OforhdxXf1r679Zr6SuvDh9Xh6+&#xA;p15Yq+s9C1WTSPye0/Vo4xLJp/l6G6SJiQrNBZCQKSOx44qlH5GfmxL+Z/lO71W701dPntLprOeF&#xA;HMsTj00kDLyAI2koVNfnvirw/wAg+YdN/Lj/AJyj17yzalYPLuu3f1L0UoI4ppgJrUKB0CSyGEDs&#xA;G9sVevfmF+S0Hmj83vJ/m8ops9ND/plT1c2p9az2/arKxDV/ZGKvOv8AnNH8wRDYaZ5Fspf3t2Rq&#xA;GrKp6RIStvG3+s4Z6f5K+OKvWPyw0zSvIv5I6bdWtstLfRxq9+I6Bp7h7b6xMSxFSSfhUnooA6DF&#xA;UD/zj9+bmpfmd5Z1O91ezt7W8sbs27R2wf0mhdA6EiRnNdyDvv7Yq8u/KXy/pvl//nLPzXpWmRCC&#xA;xhtLl4IFFFjWc283BQOiqZKKPDFXof8AzlZ5M/xF+U93ewpyvfL8i6lEQNzEoKXC17ARuXP+qMVR&#xA;X/OTc6z/AJA+YZ1BCypp7qD1Aa/tjviqj/zif/5JLR/+M95/1EyYqwTzD/zmj+h9f1PSP8Hev+jr&#xA;ue09f9JcOfoSNHz4/VW48uNaVOKvlDVr79Iare3/AA9L63PLP6deXH1XL8a0FaV60xV9f/nx/wAp&#xA;9+RX/bVT/qJ07FWKflp/6x/5y/4z3f8AxG3xV816T/x1bL/jPF/xMYq/TDzl5k0Xyz5avtd1sMdK&#xA;slV7oKnqnizqgonf4mGKvmz86/z9/KTzX+WWs6BoCSjVrz6t9WL2npD91dxSvV+3wRtiqr/zhB5h&#xA;rD5n8uSN9loNRtkr15AwzGn+xixV7h+XvkoeXvMXni/MYT9OayLuFwPtxNawyE/RPLMMVfHnl7zF&#xA;/iT/AJycsdcVuUV95kSS3PX9wLjjCPojVRir7S/MXzz5V8l+X11jzMGOnNOluAkXrn1XVivwfJDv&#xA;ir5Y/wCcj/zj/Lfzz5W0zT/KyyC8tr4XE/O29Ael6Lp9rv8AEw2xV9R+WJdLh/KfSZtWCnSo9Bt3&#xA;vw6l1Nutmpl5IoYsOFagDfFVH8udR/L/AFXyfLL+Wr2dvpBlmjje2tWhjjuuI5NJAwgcsKqfipVa&#xA;b0pir4H/ADJtNf0n8x9eg1i9+ua1bX8rXGoR1X1JOfMSKP2K1BC/s9O2Kv0A/KvzZP5t/LvQfMNw&#xA;vC6v7VTcjahmjJilYU6BnQke2Kvz5/Mbzld+c/O2reZLmo+vzs0ETGvpwL8EMf8AsY1UH3xV94/+&#xA;UC/8FX/u3Yq8q/5wh/5RXzL/AMx0P/JnFXeR/wD1snzf/wAwL/8AJq0xV7rPqumal5i1byZeqsvL&#xA;TILuSFv92W17JcW0iU7hTb7n/LGKsE/5yYt/q3/OP3mC35F/Rj0+PmaAnjf2wqQPGmKqX/OJ/wD5&#xA;JLR/+M95/wBRMmKoXV/+cl/yR07Vr3T71JvrlnPLb3NLHkPVico9G7/EDvir4bv5Y5r64lj/ALuS&#xA;V3Tt8LMSMVfYf58f8p9+RX/bVT/qJ07FWKflp/6x/wCcv+M93/xG3xV81aUQuqWZJoBPGST0A5jF&#xA;X6PebX8gea/Lt75f1fV7R9Ov1VLhY7uJHIV1cUYNt8SjFXhf5h/kL+Q+j+Rtd1XR77nqllZTT2Sf&#xA;pFJayohKDgD8W/bFXkv/ADi55og8v/nBpzXUy29nqcFxYXM0jBEUOnqpyJoN5YUG+Kvr/wDM38xP&#xA;L+j/AJe+YdRtNVtZLyGwnFokU8buZ5EKRUVWJ+2wxV8Mfk1PDB+a3lOaeRYoY9UtWkkchVVRIKkk&#xA;7AYq+6fP+lfln570JdE8watbSWCzpchYb2KJvUjDKvxBulHOKvnf89vyc/J3yp5Am1fyrd+tqyXM&#xA;Eap9eW4/duxD/uwfxxV7h/iTy7/yor6t+lLT6x/hf0/R9eLnz/R9OPHlWtdqYq85/wCcMtd0Wx8j&#xA;a5b32oW9rKdT9RY55UjJVreMcgHI7qcVeG/85HxRL+cvmGe3eKW1u3guLeaBleN1e3j5EMu1eYYN&#xA;7g4q+rv+cd/MXl+1/Jnyxb3Op2kE8cEweKSeNHUm5lO6swIxV8DYq+9/yJ87+VvPf5T6f5ee6jbU&#xA;bPTV0jV9OLgXASOL6v6gUnkyyRjlzG1SR1BGKpx+Xn5f+Tvyb8p6hG+qlbCW4a8u9R1B44qfAFVK&#xA;gKPhVNh1Jr8sVeFfkz560bX/APnJzzL5nNxHa6bf2t0LSW4ZYQ0SPBHETzIozJGDTFWZ+f8A8xNI&#xA;0D/nJbyfqUF7BLp2o6WNI1KeKVWQJPcy+nzZSVASYo5r2xVkX/OTPmHQLv8AJHzJb2mp2lxcP9S4&#xA;QxTxu7Uv7cmiqxJoBXFUN/zi15g0Gz/JnSbe71K1tp1nvC0Us8aOAblyKqzA4qoar+QH/OPWqape&#xA;and6iDdX08lzOV1ONVMkzl2oK7CrYq+NPNVjZWHmfWLGwblY2l7cwWrcudYo5WWM8v2vhA3xV9bf&#xA;nx/yn35Ff9tVP+onTsVYp+Wn/rH/AJy/4z3f/EbfFXzJb281zcRW8CGSeZ1jijHVnY0UD5k4qzz/&#xA;AJUD+cv/AFKd9/wK/wDNWKu/5UD+cv8A1Kd9/wACv/NWKu/5UD+cv/Up33/Ar/zVirv+VA/nL/1K&#xA;d9/wK/8ANWKu/wCVA/nL/wBSnff8Cv8AzVirv+VA/nL/ANSnff8AAr/zVirv+VA/nL/1Kd9/wK/8&#xA;1Yq7/lQP5y/9Snff8Cv/ADVirv8AlQP5y/8AUp33/Ar/AM1Yq7/lQP5y/wDUp33/AAK/81Yq7/lQ&#xA;P5y/9Snff8Cv/NWKu/5UD+cv/Up33/Ar/wA1YquT8hPzojcPH5Vv0dTVWUKCD4ghsVVJ/wAjPzvu&#xA;OP1jyzqU3GvH1KNSvWlW9sVUf+VA/nL/ANSnff8AAr/zVirv+VA/nL/1Kd9/wK/81Yq7/lQP5y/9&#xA;Snff8Cv/ADVirv8AlQP5y/8AUp33/Ar/AM1Yqo3n5G/m3ZWc95deV72G1to3mnlZV4pHGpZmPxdA&#xA;BXFWC4q+yvz4/wCU+/Ir/tqp/wBROnYqxT8tP/WP/OX/ABnu/wDiNvir528p/wDKVaN/zHW3/J5c&#xA;VfpN5t826D5T0OfW9cuRbWMFBWnJ5JG+xFEg3d3PRR+rFXmX/K+vMs91wsvJsIiL8Etb7XtOstTJ&#xA;/lNg5Z0k7cHcNXFWeeRfzF0TzhDdpaxXGn6tpriLVtFvk9G7tZCKgSJU1VuqspocVZTirsVdirsV&#xA;dirsVdirsVWyzRQxtLM6xxIKu7kKoA7knYYqwDzN+f35ReXOS33mS1nnWo+r2JN5JUfsn6uJFU/6&#xA;xGKvO1/5zL8nXfmPTtK0zRrtrO8u4ba41G8eO3ESSyBGlEaesWCg1oWXFX0LirsVdirsVSD8wv8A&#xA;lAfMv/bKvv8AqGfFX5lYq+yvz4/5T78iv+2qn/UTp2KsU/LT/wBY/wDOX/Ge7/4jb4q+dvKf/KVa&#xA;N/zHW3/J5cVfdf5pLat+af5Wpqh/3DG91E8ZKeidRFsn1DlX9vnz9P8AysVeG/mDoWvz+XvzO1aP&#xA;T9Gn8vW3mu4j1K+ltmk1yGslsGNnKSIxGBIvwmh3fehxV7LZ/oz/AJXr5XbQpmmeTyrK2sS1BaSz&#xA;DxfUpJ6dXLk79foxV7BirsVdirsVWySRxRtJIwSNBVnYgAAdyTirBPMn57/lJ5d5rqHmazeZNjb2&#xA;bG8kr/KVtxLxP+tTFXlXmT/nNnypbc4/Lug3mouNhNeOlpHXxAT13I+YXFXk/mT/AJy5/N3VuaWN&#xA;xaaJA2wWygDSU95LgzGvutMVeW6/5x82eYZPU13WLzU2rUC6nklUf6qsSq/QMVSfFWwSDUbEYq/S&#xA;v8r/ADT/AIq/L3QNfL85r6zja6YdPrCD05x9EqMMVZRirsVdiqQfmF/ygPmX/tlX3/UM+KvzKxV9&#xA;lfnx/wAp9+RX/bVT/qJ07FWKflp/6x/5y/4z3f8AxG3xV87eU/8AlKtG/wCY62/5PLir9JPOHk7Q&#xA;fN2hTaLrcBltJCskbo3CWGZN45oZBukiHoR8jsSMVefr+U35k2thc6NZeeLWXR712e5a/wBEtbq7&#xA;csAC00nNI7mQhRWSVKnvXFWWfl7+WmieSrW4NrLNf6tflG1LV7shrif014xp8ICxxRr8McaiijFW&#xA;WsyqpZiFVRVmOwAHc4qwjzJ+d35UeXOa6p5mshMn2re2f63MD4GO3ErKfmBirynzN/zmv5PtC0fl&#xA;3RLzVZBsJrl0s4ifEUE8hHzVcVeU+ZP+cv8A82tU5pprWehwnZTawCWWh8XuTMK+6quKvK/MXnjz&#xA;j5kflr+t3upivIR3M8kkan/IjJ4L/sRiqR4q7FXYq7FXYq7FX2Z/zhb5pN95H1Xy7K/KXRrwTQqe&#xA;1veKWAA9pYpD9OKvojFXYq7FUg/ML/lAfMv/AGyr7/qGfFX5lYq+yvz4/wCU+/Ir/tqp/wBROnYq&#xA;xT8tP/WP/OX/ABnu/wDiNvir528p/wDKVaN/zHW3/J5cVfp9irsVfHv5vf8AOTf5t6P5w1ryzYCz&#xA;0dNMupbeKeGD1Z3iDfu5C05lT44yG2QdcVeF+YvPvnXzIxOva5fakpNfSuJ5HiH+rHXgv0DFUhxV&#xA;2KuxV2KuxV2KuxV2KuxV2KvbP+cRvNJ0b82YtOkfjba9ay2bAn4fVQevE3z/AHRQf62KvujFXYq7&#xA;FUg/ML/lAfMv/bKvv+oZ8VfmVir7K/Pj/lPvyK/7aqf9ROnYqxT8tP8A1j/zl/xnu/8AiNvir528&#xA;p/8AKVaN/wAx1t/yeXFX6fYq7FXxV/zmZ5XGnfmNZa9GlIddsl9Rv5rizIif7ojFirwDFXYq7FXY&#xA;q7FXYq7FXYq7FU/8ueQfO3mV1XQdDvdSVjT1YIHaIf60tPTX6WxV6t5b/wCcO/zU1Pg+qvZaHCft&#xA;LPN68wHsluJE++QYq9i8gf8AOIXlfyzrGn63fa7e6hqmmzx3Vt6Cx2kPqxMHXkh9Z2FR05iuKvfc&#xA;VdirsVSD8wv+UB8y/wDbKvv+oZ8VfmVir7K/Pj/lPvyK/wC2qn/UTp2KsU/LT/1j/wA5f8Z7v/iN&#xA;vir528p/8pVo3/Mdbf8AJ5cVfp9irsVeFf8AOYflb9K/lcmsRpyuNBvI52YCp9C4/cSD/g3jY/LF&#xA;XxBirsVdirsVdiqd+XfJHnHzJJw0DRb3U96M9tBJJGv+vIBwX/ZHFXqvlv8A5xA/NrVOD6ktnocJ&#xA;3YXU4llofBLYTCvszLir1byz/wA4UeT7QrJ5i1u81WQbmG2RLOInwNTPIR8mXFXq3lv8kfyo8ucG&#xA;0vyzZCZPs3Fyn1uYHxElwZWU/IjFWbqqqoVQFVRRVGwAHYYq3iqjd3lnZ27XF5PHbW6bvNM6xoo9&#xA;2YgDFUJofmPy/r9tLdaHqNtqdtBK1vLPaSpNGsqqrMhdCy1Cup+nFUxxV2KpB+YX/KA+Zf8AtlX3&#xA;/UM+KvzKxV9lfnx/yn35Ff8AbVT/AKidOxVin5af+sf+cv8AjPd/8Rt8VfO3lP8A5SrRv+Y62/5P&#xA;Lir9PsVdiqT+cfL0PmPypq+gzUCanZzWvI/stKhVX/2LEHFX5j3FvNbXEtvOhjnhdo5Yz1V1NGB+&#xA;RGKqeKuxV2KuxV+kv5Q+ZY/M35ZeXNZQgvPZRx3HEUHrwfuZ6D/jLG2KsvxVSurq1tIHuLqZLeCM&#xA;VeWVgiKPEsxAGKvPfMn/ADkT+Tugc1ufMcF5OvSDTw14xI7coQ8YP+swxV5V5k/5zd0aLnH5a8uT&#xA;3R6LcahKkCj39KL1iw/2YxV5P5l/5ys/OLWi6W+ow6NbvX91p8Koaf8AGWX1ZR9DDFXmGs+YvMGu&#xA;XH1jWdTutSn6+rdzSTsK+BkLYq+jf+cI/NPpat5h8rSv8NzDHqVqp6BoW9Ganuwlj/4HFX1tirsV&#xA;SD8wv+UB8y/9sq+/6hnxV+ZWKvsr8+P+U+/Ir/tqp/1E6dirFPy0/wDWP/OX/Ge7/wCI2+Kvnbyn&#xA;/wApVo3/ADHW3/J5cVfp9irsVdir89/+cjvKx8ufnBr0KJwttRlGp2x6Ardj1JKewm9RfoxV5nir&#xA;sVdirsVe3flF/wA5MXn5deR5vLiaMNVn+tyXFnPJP6McKSqtUKKjs/xqW6j7WKobzJ/zln+cOsc0&#xA;tL220SBtvTsIF5U/4yTmdwfdSMVeXa55p8y6/N6+uareapKDUNdzyT0/1ebNT6MVSvFXYq7FXYqz&#xA;78h/NI8s/mz5c1J34W0l0LO7JNFEV2DAzN7J6gf6MVfotirsVSD8wv8AlAfMv/bKvv8AqGfFX5lY&#xA;q+yvz4/5T78iv+2qn/UTp2KsU/LT/wBY/wDOX/Ge7/4jb4q+dvKf/KVaN/zHW3/J5cVfp9irsVdi&#xA;r5Y/5zd8rVi8ueaok+yZdLu5KdjWe3H4TYq+UsVdirsVdirsVdirsVdirsVdirsVbVmVgykqymqs&#xA;NiCMVfpf+W/mhfNPkPQfMAblJqFnFJcU6CcLwnX/AGMqsMVZJiqQfmF/ygPmX/tlX3/UM+KvzKxV&#xA;9lfnx/yn35Ff9tVP+onTsVYp+Wn/AKx/5y/4z3f/ABG3xV87eU/+Uq0b/mOtv+Ty4q/T7FXYq7FX&#xA;nH/OQ/lX/En5Q+YLVE53NlD+kbbxD2Z9VuPu0auv04q/PLFXYq7FXYq7FXYq7FXYq7FXYq7FWUeW&#xA;/wAr/wAw/M3BtD8vX17E/wBm5WFkg3/4ufjEP+CxV9tf844+TvOnk/8ALsaD5rgjt7mC7mksoY5U&#xA;mKW8wV+LGMslfVLnZj1xV6liqQfmF/ygPmX/ALZV9/1DPir8ysVfZX58f8p9+RX/AG1U/wConTsV&#xA;Yp+Wn/rH/nL/AIz3f/EbfFXzt5T/AOUq0b/mOtv+Ty4q/T7FXYq7FVs0Uc0TwyqHikUo6HcFWFCD&#xA;8xir8yfPHlyTyz5x1rQJAf8AcZeTWyMf2o0ciN/9klG+nFUjxV2KuxV2KuxV2Ksk8tflt5+8zlTo&#xA;OgX1/E3S4jhYQCvjMwWIfS2KvVvLf/OG35n6jwk1m4sdDiP245JDczj5JAGiP/I3FXq3lr/nC78v&#xA;7EpJruqX2syrTlGnGzgbxqiepL90uKvV/Lf5S/lp5a4NovluxtpU+xctEJpxT/i6b1Jf+GxVluKu&#xA;xV2KpB+YX/KA+Zf+2Vff9Qz4q/MrFX2V+fH/ACn35Ff9tVP+onTsVYp+Wn/rH/nL/jPd/wDEbfFX&#xA;zt5T/wCUq0b/AJjrb/k8uKv0+xV2KuxV2KviX/nMfyr+i/zMg1uNKW+v2aSO1KVuLX9xIP8AkWIj&#xA;9OKvBcVdirsVdir1z/nG38vPJPnzzhe6N5n+skw2n1uyiglESSGORVkSQ8S52cEcWXocVfY3lv8A&#xA;Jv8AK7y3wbSPLVjFMn2LiWP6zOPlNP6sg/4LFWZAACg2A6DFXYq4kAVOwHU4qwvzN+c/5W+Wiy6v&#xA;5kso5k+1bQv9ZmB8DFAJXH0jFXlPmT/nNXyRZ849A0e91aVdhJOUs4T7g/vpPvQYq8z1L/nMr8yb&#xA;vUreS2tbHTdNjmjeeCCMyzSRK4LxtJMWX4lBWqopxV9o2l1b3drDd27iS3uI1lhkHRkcBlI+YOKp&#xA;L+YX/KA+Zf8AtlX3/UM+KvzKxV9lfnx/yn35Ff8AbVT/AKidOxVin5af+sf+cv8AjPd/8Rt8VfO3&#xA;lP8A5SrRv+Y62/5PLir9PsVdirsVdirwX/nMfysNT/LO31uNK3Gg3iSO1K0t7r9zIP8AkYYj9GKv&#xA;iXFXYq7FXYqzr8j/ADV/hf8ANXy5qrPwtzdra3ZJ+EQ3YMEjN7IJOX0Yq+6vMn5v/lh5a5rrPmWx&#xA;glT7dtHKLicU8YYPUl/4XFXlXmX/AJzR8gWIePQdLvtYmWvGSThZwN4UZvUl++LFXlHmT/nMb80d&#xA;S5x6RDY6HCfsPFF9YnHzecvGf+RYxV5V5k/Mbz55lLDXdfvtQjbrBLO/o/RCCIx9C4qxzFXYq7FX&#xA;6C/841+af8Rfk7ocjvzutMRtMud60NqeMQ/5EGM4qzD8wv8AlAfMv/bKvv8AqGfFX5lYq+yvz4/5&#xA;T78iv+2qn/UTp2KsU/LT/wBY/wDOX/Ge7/4jb4q+dvKf/KVaN/zHW3/J5cVfp9irsVdirsVSPz15&#xA;bi8z+Tda8vyU/wBydnNbxsf2ZHQ+m+/8r0bFX5lSxSQyvFKpSWNijodiGU0IPyOKrMVdirsVdirs&#xA;VdirsVdirsVdirsVfUn/ADhH5q43fmLypK+0qR6naJXoUIgn+8PF92KvpH8wv+UB8y/9sq+/6hnx&#xA;V+ZWKvsr8+P+U+/Ir/tqp/1E6dirFPy0/wDWP/OX/Ge7/wCI2+Kvnbyn/wApVo3/ADHW3/J5cVfp&#xA;9irsVdirsVdir88v+chvK48ufm/5htI04W13P+kLbwKXgEzcfZZGdfoxV5xirsVdirsVdirsVdir&#xA;sVdirsVdir0T/nH3zT/hr83fLt67cba5uPqFzXYcLwGEE+yu6t9GKvvH8wv+UB8y/wDbKvv+oZ8V&#xA;fmVir7K/Pj/lPvyK/wC2qn/UTp2KsU/LT/1j/wA5f8Z7v/iNvir528p/8pVo3/Mdbf8AJ5cVfp9i&#xA;rsVdirsVdir5S/5zd8q0m8uea4k+2sml3cn+qTPbj8ZsVfLGKuxV2KuxV2KuxV2KuxVNdC8q+ZvM&#xA;E/oaHpV3qctaFbSCSah/yuAPH5nFXqflv/nEn839X4PeWtrokDb876dS9PaO3EzA+zUxV6r5b/5w&#xA;k8uwcJPMfmG6vm6tBYxJbJXwLyeuzD6FxV6x5X/IX8pPLZjk0/y5bS3MZDLdXgN3KGG4YGcuFP8A&#xA;qgYqyD8wv+UB8y/9sq+/6hnxV+ZWKvsr8+P+U+/Ir/tqp/1E6dirFPy0/wDWP/OX/Ge7/wCI2+Kv&#xA;nbyn/wApVo3/ADHW3/J5cVfp9irsVdirsVdirzP/AJyQ8rf4i/J7XoUTndadGupW21SGtDzkp7mH&#xA;1F+nFX574q7FXYq7FUz0Tyz5j12f0NE0u71OatDHaQSTkfP0w1PpxV6h5b/5xQ/OLWeD3NhBosDb&#xA;iTUJ1Vqf8Y4fWkB9mUYq9W8s/wDOEeixFZPM3mK4uz1a20+JLdQfD1ZfWLD/AGC4q9W8t/8AOPX5&#xA;PeX+DWnlu2up139e/wCV6xI/a4zl0U/6qjFXoNvb29tCkFvEkMEYpHFGoVFHgFFAMVVMVdirsVSD&#xA;8wv+UB8y/wDbKvv+oZ8VfmVir7K/Pj/lPvyK/wC2qn/UTp2KsU/LT/1j/wA5f8Z7v/iNvir528p/&#xA;8pVo3/Mdbf8AJ5cVfp9irsVdirsVdiqnc20F1by21wgkgnRo5Y26Mjjiyn5g4q/NbWfy/wDMdt5z&#xA;1fyxpunXWpXmmXk1r6drDJM7LHIVR+MYY/EoBxVm/ln/AJxW/OPWyjzaZFo1u/8Au7UZljI+cUfq&#xA;zD6UGKvV/Lf/ADhFpcfCTzL5kmuD1e306FYQPb1pvVr/AMixir1Xy3/zjl+TmgcHg8uw3069Z9RL&#xA;XZJHfhKWiH0IMVei2lnaWdultaQR21vGKRwxKqIo8AqgAYqq4q7FXYq7FXYq7FXYqkH5hf8AKA+Z&#xA;f+2Vff8AUM+KvzKxV9lfnx/yn35Ff9tVP+onTsVYp+Wn/rH/AJy/4z3f/EbfFXzfoF5DZa7p15OS&#xA;ILa6hmlIFTwjkVmoPkMVfbf/AEN5+TX/AC033/SI39cVd/0N5+TX/LTff9Ijf1xV3/Q3n5Nf8tN9&#xA;/wBIjf1xV3/Q3n5Nf8tN9/0iN/XFXf8AQ3n5Nf8ALTff9Ijf1xV3/Q3n5Nf8tN9/0iN/XFWl/wCc&#xA;uvyYUkrPegsatS0YVPSp3xVv/obz8mv+Wm+/6RG/rirv+hvPya/5ab7/AKRG/rirv+hvPya/5ab7&#xA;/pEb+uKu/wChvPya/wCWm+/6RG/rirv+hvPya/5ab7/pEb+uKu/6G8/Jr/lpvv8ApEb+uKu/6G8/&#xA;Jr/lpvv+kRv64q7/AKG8/Jr/AJab7/pEb+uKu/6G8/Jr/lpvv+kRv64q7/obz8mv+Wm+/wCkRv64&#xA;q7/obz8mv+Wm+/6RG/riqU+bv+cq/wApNU8qa1ptrcXpur6wubaANasqmSaFkWprsKtir4rxV9lf&#xA;nx/yn35Ff9tVP+onTsVYp+Wn/rH/AJy/4z3f/EbfFXzp5X0C68xeZNL0G0ZUudUuobSKRvsqZnCc&#xA;m9lrU4q9017/AJx1/LwWnmzTPLnme8u/Nvk6zF7qVvcwottJSIyskZUAg0Wn2zxJANd6KpZ5b/I/&#xA;8ubbyj5W1jz55jvNNv8AzjIF0i0so0ZFRiAjSsyybUdCx248gPfFVfy7/wA4yW17+bfmHyHqOsTR&#xA;W+lWSX9lqEMS8po5WjCckY7U9QhqHqMVY7bfkpYWvkDXvMvmHUJ7G68veYl0K/to4w6CJZLdZZh+&#xA;0SFnZlA60GKsnu/yU/I618k2fnWbzrqa+Xr+6NjbXIsas06iQlTGF5j+5fcjFUAPyb/KXS/I3l3z&#xA;P5q816hpy+Yo5HtY4bT1xWM7j4AxGzDriqjoX5AaX5l/LPzP5y8u6rcXcmj3l7Hpds0SqLq0tOMi&#xA;uwNHWR4WJ40+1tiqnq35Pflz5e0nyNq/mTzJeWenebNKkv55obcTmG5SK1kWFFQMSp+suCT/AC4q&#xA;qfm1+T35X+RdGjaPzRfXOu39nHfaPYyWtI5opHC1eRRRPhDGhOKpJ+SX5T6D59h8yXWtapPpdn5e&#xA;tUvJJLeNZSYyJGkqp3+FYtqYqi/P35N+VdP/AC6tvzA8l+Ypda0R7r6lcR3VubeVXJK8lrTowAIK&#xA;961xVNrn/nHCGH8kR5+XUpm1sWEWqvpXpr6Qtppaq3L7X+89X+YxVf8Alp+S35U+dPLN1qS+a7+K&#xA;/wBHsUvfMFslp8FvVGZwjMP3lPTb7NcVWeXPyb/KXWdI8z+ZV816gvlXy9JbIL8Wn7xxMi8y0JHP&#xA;4ZG4ig6b4qhvJP5Qfln51/MG50Ly95mvrnQrTRX1SfUXtRFKLiK5SJofTkC1X05FavjiqH83/kz5&#xA;OT8srn8wfIvmWbW9K066W01KG6tjbujOyIONeJqGmj249GrXamKpH+Rv5Y6Z+Ynmm/0jUr+bTray&#xA;02bUTPAiuxMU0MfGjdqTE/RirIvNX5NeQdM0Lyr5w0vzLdX3krXtRGm3t7LbiCa3PKRTKqvSqp6M&#xA;nIFf2djviqct/wA4v21j538yWWs6vNaeTdB0xNVGuCNC8kcoPFeJ+CoMM1afyj+bFXgU3peq/o8v&#xA;S5H0+dOXGu3Km1aYq+x/z4/5T78iv+2qn/UTp2KsU/LT/wBY/wDOX/Ge7/4jb4q8Y/JC5gtvzd8o&#xA;yzhTH+k7dPioAGkfgh38GYEYq9R/Mj8j/MPmL8yPzH16+d9G0jSI21WK+mgZ4bpPR9ThDIWjUmiG&#xA;pBNDscVTbzh5X8weYvIf5FXWhWE2pQWSrDdvbI0giZza0MhUURR9XerNQCmKvQJb1R/zkD+YD20t&#xA;J7XykoZlO6SAJIPpowOKpH+beraV5g/5xq1TzdpqrGvmafTtQv4U/YvUaC0uFr/km1C9O1e+KvMf&#xA;M3/rH3lP/wACOX/iN9ir0G51zzjpX5Hflw3lryZa+cHltZRcx3emz6mLcKV4sohK+nzqdz1piqt+&#xA;VPnG58p/k3f+ZNUtf0abXzfINY05YmiSGO5lit7mH0G+JRCJmKodwVAxVjn/ADmLo9ho2h/l5pen&#xA;0FhZx6nFaAGoEI+qemAR1otBirG/+crv+Or5J/8AActf+Jviqaf84mXcVno/5k3ctul3Fb6Skslr&#xA;LvHKqJcMY3/yWAocVZB5wMH5l/8AOO/lufy9p8eg8NdhsX0SxAW0WWedrZSEUAtVp0fem7Hr1xV6&#xA;vPL5DvfPOp/l7Fq0g1CTy2ujSaCYm9BLcIzrKJqcS/o3AHHwxV4L/wA412lxZ6D+bVncLwuLbR3h&#xA;mQ9VeOO6Vh9BGKo7/nHe91ey/JTz9daPo8Wv6lFdWpt9IntnvI5yeAKtbxkPJRSWoPCuKpn+SF/5&#xA;p1T85tbn8weV4fKuoyeU7hIdKtbCbTkeMXkAWUQSlmYs3JeQ60p2xVJNK8v635Q/5xQ84x+Y7GXS&#xA;7zWNTt1sbG+jaGZwJLUcvTcBgaRyMtR+zXFUt/5w2LD8x9cKxiZh5fuisRHIOfrVr8NO9emKsr/P&#xA;F9R1f/nHPQNW8w6KvlTVbbVOFpoMCSW0IV/WX4rV+PpsUUuKio3ps5xVAef/ADzr1x/ziT5Q9SUG&#xA;XWLj9GX02/N7bT5p1iUsd6n6tHyPffxxV804q+yvz4/5T78iv+2qn/UTp2KsU/LT/wBY/wDOX/Ge&#xA;7/4jb4q+cfLmjXmt+YdL0WxkSK91O7gs7WWQsqLLcSrGjOyhmChmFSATir6a1j8gf+cnNZ0c6Nqv&#xA;nixvNMYBZLaW+vWDhegkP1Xk/wDsicVW+W/+cfP+cl/LOnnTtB866fYWBYuLWK8vPTVm3YorWhC1&#xA;78euKoCz/wCcXv8AnIGz1C/1G1826dFqGqI0Wo3a31/6s6SGrrK/1WrA03rirzb80vIv5mflho1j&#xA;5V1vXYrjRNXMtzHpthcTyW3OFkLNJHLHCOXJlIoDirBY9b806jpVn5Viu7q70xbgSWGjIXkj+syF&#xA;lBihFfjYysNhXfFX0F5G/Jr/AJykbSLW2i8yS+WNMgTjbWVxfShkTchVitxKF+TEYqm91/zit+a9&#xA;3pt5pdz59SbTtRuWvb60cXBjmuXcO00ik0Z2cAknvirGfP3/ADjR+fU+m2iz6xF5rtNJjaPT7MXU&#xA;nqwx0UFY47lUQVWNdleppirxDzXqvm+81FbTzTcXkuoaWn1NYL8v6tukZ/ueMnxIFr0xVkP5P6J5&#xA;98ya/deVvJ+sDSZ9VtZPr3qTSwQTQRKeUchhSVm2c0HHvir2HSf+cZf+chtH00aZpfm7TrLT1nW7&#xA;W1hvb5IxOjK6yhRa05Bo1IPtiq1P+cYP+cgo/MbeZk826cvmB689VF7fC4NY/S3k+q8vsfD8sVQ3&#xA;/QtH/OQ+lNqlxp3mCykm1sP+l/qt9cI116hYuJjJDEH5eo3U9zirzHU7P86vyjkbT55dR8txXzc+&#xA;VtNS3nZBSqyws0bsB2rUd8VSP/laH5i/pr9Of4j1D9MfVvqX1/6w/rfVvU9X0eda8PU+Knjir2vU&#xA;f+cb/wDnIDznptlda15vstTtZY0ubWC+v7+VY/VQEERm3ZFbi1CRirfl7/nFL89vLd699oHmbS9L&#xA;vJIzBJcWt3exO0TMrFCy2o2LIpp7Yqv8z/8AOMP/ADkH5jWJ9f8ANVhrJtQfq0VzfXsvDlTlwElu&#xA;FUmm570xV51+Yf5W/nb5S8r29h5ihuJ/KOnSGS2+rzi5sreSRmq/BTWLk0h+JlAJbxOKvLcVfZX5&#xA;8f8AKffkV/21U/6idOxVin5af+sf+cv+M93/AMRt8VeF/lP/AOTT8m/9tzTf+oyPFX6U4q8z/MXy&#xA;Z+cesa+t35P86RaBpIgSNrF7dZSZlZi0nIo32gQOvbFWL/8AKsv+cl//AC58H/SHH/1SxV8q/mx5&#xA;o88ar5pvNH826w2s3Ply7u9PhuDHHGtYpjHIyhFTZzEDviqaf848eavLXlf81dL1bzEyw2CrNCt2&#xA;68lglmjKJK3dRvxLDpWvTFX6B2N9Y39rHeWNxFd2kyhobiB1kjdT0KupKkfLFXl/mH8pfzIn12XV&#xA;/L/5nanYB5TKmnXcMd1bLVq+mEVoU4DoAYzt9+Kta5c/85RWMbSaZb+UtWVRtEiX8EzH5S3Cx/8A&#xA;JTFXyR+efmLz1rnnFZfO+gW2g6/bwLDKltDLCJowTwkYySziSm6h1alBTtirJv8AnEL/AMnJbf8A&#xA;MDd/8RGKvunFXz15v8uf85ZS+btUufLetwQ6E13I+lwu9p8MHKsasskLHp2auKvX/wAuYPP8HlaC&#xA;Lz5c2l35hDP6s9kvFDGfsc6LGvPrXgoX9eKvEv8AnMD8wfJs3k6Pynb3kN9r7XsU7QQsshtliDcm&#xA;lZahGPLiF67+GKvj7FX6f+U/+UW0b/mBtv8AkyuKsP8Aze8u/nBrP6J/5Vzr9pofofWP0p9bJHq8&#xA;/S9DhS3ufscZK9OvfsqiPyq0H83dKt7sfmH5is9cd+Aso7SFU9LjXkWmEVsX5bbFD88VQX/OQHnR&#xA;fLX5b6wg0m61STUrSez/AHMDvbQrPGY2luZQpREUNWh+0dtq1xV+euKvsr8+P+U+/Ir/ALaqf9RO&#xA;nYqxT8tP/WP/ADl/xnu/+I2+KvC/yn/8mn5N/wC25pv/AFGR4q/SnFXln5l/lj+ZXmbzEuo+W/Pt&#xA;z5a08W6QnToVlKmRWYtJ8EsYqwYDp2xVif8Ayoj88f8Ay7t9/wABP/1XxV4N+fH5Kat+Xr2Oq6pr&#xA;w1271+4uXnmMLRv6q8ZHkdmeTkXaWpxVjP5Rad+W+p+bF07z/dXFhpN1GUt76CVYkiueS8PXZlcC&#xA;Nl5Dl2NK7VIVfXGgf84xeQNLQXXl7X9fsUmAdZ9P1IQhwejBoY1riqCX8sf+cjtK1R/0J+ZEV1pQ&#xA;f9yNVh9ef0yej8opQSB3VxX2xV7TpcWoxabax6nPHc6gkSLd3EMZijklAHNkjLOVBPbkcVfJn/OZ&#xA;fnfynq97omg6XPDfarpTzyX9xCQ4gEgRRAXWo5EryZa/DQV64qxP/nEL/wAnJbf8wN3/AMRGKvun&#xA;FXxl+Zn/ADkr+bmg/mH5h0bTdThj0/Tr+e3tYmtbdyI43IUFmQsdvfFX0V+Q35hat59/Lq017V44&#xA;U1H1pra4+rgrGxiagbiS3ElSKivX7sVYZ/zl95U0W9/LGbzBJaxjV9LuLf0L0IBL6c0gieNnG5Q8&#xA;60PcYq+IcVfp/wCU/wDlFtG/5gbb/kyuKsK/OX8r/NXnr9D/AKB81T+Wf0d9Z+s+h637/wBf0uHL&#xA;0pYf7v0mpWv2sVQH5Ufk/wCefJ2sNf635/v/ADBZGN410mYSmDk3SQmaaahG/wBlR8+2KvQfNnmf&#xA;y15b0S41LzHeQ2emojCUzkUkFN41Q7yM3QKAScVfmZqM1rPqF1NaRehayzSPbw/yRsxKL/sRtir7&#xA;B/Pj/lPvyK/7aqf9ROnYqxT8tP8A1j/zl/xnu/8AiNvir5mtLu6s7qG8s5pLa7tpFmt7iFikkciE&#xA;Mjo6kMrKwqCOmKsl/wCVsfmn/wBTlrn/AHErz/qpirv+Vsfmn/1OWuf9xK8/6qYq7/lbH5p/9Tlr&#xA;n/cSvP8AqpiqV655v82a+kKa9rd/qyW5YwLfXU1yIy1AxQSs/GtBWmKpRiqe+X/PfnXy4OOg67fa&#xA;ZHWphtriSOMn/KjVuB+kYqygf85DfnQIDD/iu74HcmkXPrX7fDn+OKpFrv5o/mNr0TQ6v5l1G7t3&#xA;2e3e5kEJ7bxKQn4YqxfFUx0LzFrvl/UBqOiX8+nXyqyLc2zmOQK32hyXehxVkn/K6/zc/wCpv1X/&#xA;AKSpf64qxPUdRvtSvp7+/ne6vbp2luLiVizyOxqzMx3JJxVOvL/5i+e/Lli1hoOv32mWTSGZre2n&#xA;eNDIwCluKmlSFGKorUvzZ/MzU7CfT9R8z6jd2N0hjuLaa4keN0bqrKTQjFWJYqyiH80/zOhiSGHz&#xA;frccUahI401G7VVVRQKoElAAMVX/APK2PzT/AOpy1z/uJXn/AFUxVpvzW/NFlKt5x1xlYUZTqV2Q&#xA;Qf8AnpirH9Q1PUtRnNxqF3NeTnrNcSPK++/2nJOKoXFX2V+fH/KffkV/21U/6idOxVgP5IfnB+VO&#xA;gflVfeTfOq3E6X95PJcWscLvG8EiRAAujKRvH2xVM/8AFn/OFv8A1L8//Iq8/wCq2Ku/xZ/zhb/1&#xA;L8//ACKvP+q2Ku/xZ/zhb/1L8/8AyKvP+q2Ku/xZ/wA4W/8AUvz/APIq8/6rYq7/ABZ/zhb/ANS/&#xA;P/yKvP8Aqtirv8Wf84W/9S/P/wAirz/qtirv8Wf84W/9S/P/AMirz/qtirv8Wf8AOFv/AFL8/wDy&#xA;KvP+q2Ku/wAWf84W/wDUvz/8irz/AKrYq7/Fn/OFv/Uvz/8AIq8/6rYq7/Fn/OFv/Uvz/wDIq8/6&#xA;rYq7/Fn/ADhb/wBS/P8A8irz/qtirv8AFn/OFv8A1L8//Iq8/wCq2Ku/xZ/zhb/1L8//ACKvP+q2&#xA;Ku/xZ/zhb/1L8/8AyKvP+q2Ku/xZ/wA4W/8AUvz/APIq8/6rYq7/ABZ/zhb/ANS/P/yKvP8Aqtir&#xA;v8Wf84W/9S/P/wAirz/qtirv8Wf84W/9S/P/AMirz/qtirv8Wf8AOFv/AFL8/wDyKvP+q2Ku/wAW&#xA;f84W/wDUvz/8irz/AKrYqt/ML82vJPn/APM/8pYvK7ztHo+twrcLPEYuInu7IRhak1/uWxV//9k=</xmpGImg:image>
               </rdf:li>
            </rdf:Alt>
         </xmp:Thumbnails>
      </rdf:Description>
      <rdf:Description rdf:about=""
            xmlns:xmpMM="http://ns.adobe.com/xap/1.0/mm/"
            xmlns:stRef="http://ns.adobe.com/xap/1.0/sType/ResourceRef#"
            xmlns:stEvt="http://ns.adobe.com/xap/1.0/sType/ResourceEvent#">
         <xmpMM:DocumentID>xmp.did:F77F117407206811822A9C2B31A2E398</xmpMM:DocumentID>
         <xmpMM:InstanceID>xmp.iid:F77F117407206811822A9C2B31A2E398</xmpMM:InstanceID>
         <xmpMM:DerivedFrom rdf:parseType="Resource">
            <stRef:instanceID>uuid:3FEDAB826C36DD119FF8D0F44B8B87E5</stRef:instanceID>
            <stRef:documentID>uuid:3EEDAB826C36DD119FF8D0F44B8B87E5</stRef:documentID>
            <stRef:originalDocumentID>uuid:3EEDAB826C36DD119FF8D0F44B8B87E5</stRef:originalDocumentID>
         </xmpMM:DerivedFrom>
         <xmpMM:OriginalDocumentID>uuid:3EEDAB826C36DD119FF8D0F44B8B87E5</xmpMM:OriginalDocumentID>
         <xmpMM:History>
            <rdf:Seq>
               <rdf:li rdf:parseType="Resource">
                  <stEvt:action>saved</stEvt:action>
                  <stEvt:instanceID>xmp.iid:F77F117407206811822A9C2B31A2E398</stEvt:instanceID>
                  <stEvt:when>2015-11-15T23:20:04-05:00</stEvt:when>
                  <stEvt:softwareAgent>Adobe Illustrator CS6 (Macintosh)</stEvt:softwareAgent>
                  <stEvt:changed>/</stEvt:changed>
               </rdf:li>
            </rdf:Seq>
         </xmpMM:History>
      </rdf:Description>
      <rdf:Description rdf:about=""
            xmlns:illustrator="http://ns.adobe.com/illustrator/1.0/">
         <illustrator:StartupProfile>Web</illustrator:StartupProfile>
      </rdf:Description>
      <rdf:Description rdf:about=""
            xmlns:xmpTPg="http://ns.adobe.com/xap/1.0/t/pg/"
            xmlns:stDim="http://ns.adobe.com/xap/1.0/sType/Dimensions#"
            xmlns:xmpG="http://ns.adobe.com/xap/1.0/g/">
         <xmpTPg:MaxPageSize rdf:parseType="Resource">
            <stDim:w>93.067871</stDim:w>
            <stDim:h>130.354980</stDim:h>
            <stDim:unit>Pixels</stDim:unit>
         </xmpTPg:MaxPageSize>
         <xmpTPg:NPages>1</xmpTPg:NPages>
         <xmpTPg:HasVisibleTransparency>False</xmpTPg:HasVisibleTransparency>
         <xmpTPg:HasVisibleOverprint>False</xmpTPg:HasVisibleOverprint>
         <xmpTPg:PlateNames>
            <rdf:Seq>
               <rdf:li>Cyan</rdf:li>
               <rdf:li>Magenta</rdf:li>
               <rdf:li>Yellow</rdf:li>
               <rdf:li>Black</rdf:li>
            </rdf:Seq>
         </xmpTPg:PlateNames>
         <xmpTPg:SwatchGroups>
            <rdf:Seq>
               <rdf:li rdf:parseType="Resource">
                  <xmpG:groupName>Default Swatch Group</xmpG:groupName>
                  <xmpG:groupType>0</xmpG:groupType>
               </rdf:li>
            </rdf:Seq>
         </xmpTPg:SwatchGroups>
      </rdf:Description>
   </rdf:RDF>
</x:xmpmeta>
                                                                                                    
                                                                                                    
                                                                                                    
                                                                                                    
                                                                                                    
                                                                                                    
                                                                                                    
                                                                                                    
                                                                                                    
                                                                                                    
                                                                                                    
                                                                                                    
                                                                                                    
                                                                                                    
                                                                                                    
                                                                                                    
                                                                                                    
                                                                                                    
                                                                                                    
                                                                                                    
                           
<?xpacket end="w"?>
	</metadata>
<g>
	<polygon fill="#FFFFFF" points="91.426,0.927 0.98,0.927 0.98,129.44 92.089,129.44 92.089,0.927 	"/>
	<rect x="3.364" y="3.346" width="86.358" height="123.728"/>
	<rect x="7.921" y="23.726" fill="#FFFFFF" width="77.184" height="76.75"/>
	<path d="M92.411,0H0v130.355h93.068V0H92.411z M91.743,129.098H1.326V1.259h90.417V129.098z"/>
	<path fill="#FFFFFF" d="M11.857,108.098c-0.012,0.131-0.019,0.268-0.031,0.396c-0.067,1.253-0.499,2.217-1.989,2.217
		c-2.196,0-2.33-1.338-2.33-3.172v-0.979c0.055-1.758,0.201-3.048,2.33-3.048c1.186,0.012,1.855,0.602,1.947,1.776
		c0.024,0.165,0.042,0.353,0.03,0.523H10.5c-0.055-0.441-0.012-1.271-0.663-1.271c-1.053,0-0.961,1.208-0.961,1.746v1.892
		c0,0.571,0.048,1.49,0.961,1.49c0.73,0,0.651-1.125,0.675-1.57H11.857L11.857,108.098z"/>
	<path fill="#FFFFFF" d="M12.861,106.559c0.054-1.758,0.2-3.048,2.33-3.048c2.136,0,2.275,1.29,2.33,3.048v0.979
		c0,1.834-0.14,3.176-2.33,3.176s-2.33-1.341-2.33-3.176V106.559z M14.23,108.18c0,0.568,0.042,1.487,0.961,1.487
		c0.949,0,0.961-0.937,0.961-1.6v-1.752c0-0.548,0.03-1.773-0.961-1.773c-1.046,0-0.961,1.208-0.961,1.743V108.18z"/>
	<path fill="#FFFFFF" d="M21.938,103.678h1.338v6.865h-1.393l-1.046-2.446c-0.347-0.815-0.633-1.643-0.949-2.729h-0.019
		c0.049,0.575,0.104,1.263,0.146,1.968c0.037,0.682,0.067,1.362,0.067,1.913v1.294h-1.333v-6.865h1.381l1.035,2.503
		c0.34,0.791,0.632,1.606,0.955,2.726h0.019c-0.049-0.621-0.097-1.296-0.134-1.953c-0.037-0.657-0.067-1.314-0.067-1.929V103.678
		L21.938,103.678z"/>
	<polygon fill="#FFFFFF" points="24.085,103.678 28.533,103.678 28.533,104.688 26.981,104.688 26.981,110.543 25.643,110.543 
		25.643,104.688 24.085,104.688 	"/>
	<polygon fill="#FFFFFF" points="29.293,110.543 29.293,103.678 33.053,103.678 33.053,104.688 30.631,104.688 30.631,106.416 
		32.864,106.416 32.864,107.426 30.631,107.426 30.631,109.54 33.053,109.54 33.053,110.543 	"/>
	<path fill="#FFFFFF" d="M37.293,103.678h1.333v6.865h-1.393l-1.034-2.446c-0.353-0.815-0.639-1.643-0.955-2.729h-0.019
		c0.049,0.575,0.104,1.263,0.146,1.968c0.042,0.682,0.067,1.362,0.067,1.913v1.294H34.1v-6.865h1.381l1.041,2.503
		c0.347,0.791,0.626,1.606,0.955,2.726h0.019c-0.049-0.621-0.098-1.296-0.134-1.953c-0.037-0.657-0.067-1.314-0.067-1.929v-1.347
		H37.293z"/>
	<polygon fill="#FFFFFF" points="39.441,103.678 43.888,103.678 43.888,104.688 42.331,104.688 42.331,110.543 40.999,110.543 
		40.999,104.688 39.441,104.688 	"/>
	<path fill="#FFFFFF" d="M48.39,107.581v2.962h-1.338v-6.868h2.525c1.156,0,2.026,0.383,2.026,1.648
		c0,0.751-0.195,1.533-1.089,1.655v0.024c0.791,0.1,1.028,0.578,1.028,1.247c0,0.277-0.037,1.958,0.285,2.166v0.128h-1.472
		c-0.158-0.438-0.127-1.29-0.14-1.733c-0.006-0.426,0-0.998-0.456-1.132c-0.365-0.104-0.749-0.098-1.132-0.098L48.39,107.581
		L48.39,107.581z M48.39,106.577h1.047c0.438-0.024,0.778-0.292,0.778-0.992c0-0.766-0.334-0.894-0.833-0.9H48.39V106.577z"/>
	<path fill="#FFFFFF" d="M52.332,110.543l1.709-6.862h1.794l1.619,6.862h-1.423l-0.353-1.737h-1.563l-0.353,1.737H52.332z
		 M54.321,107.8h1.144l-0.359-1.953c-0.066-0.322-0.091-0.626-0.134-0.949c-0.012-0.165-0.024-0.316-0.048-0.462h-0.012
		c-0.03,0.146-0.037,0.298-0.049,0.462c-0.049,0.322-0.079,0.626-0.14,0.949L54.321,107.8z"/>
	<polygon fill="#FFFFFF" points="57.71,103.678 62.158,103.678 62.158,104.688 60.606,104.688 60.606,110.543 59.268,110.543 
		59.268,104.688 57.71,104.688 	"/>
	<polygon fill="#FFFFFF" points="62.924,110.543 62.924,103.678 66.677,103.678 66.677,104.688 64.262,104.688 64.262,106.416 
		66.483,106.416 66.483,107.426 64.262,107.426 64.262,109.54 66.677,109.54 66.677,110.543 	"/>
	<path fill="#FFFFFF" d="M67.766,110.543v-6.865h2.781c0.322,0,0.973,0.131,1.381,0.77c0.304,0.48,0.383,1.247,0.383,2.372
		c0,1.357,0,2.927-1.089,3.553c-0.292,0.152-0.657,0.17-0.992,0.17H67.766z M69.677,109.537c1.192,0,1.271-0.605,1.271-2.589
		c0-1.63-0.177-2.263-0.973-2.263h-0.876v4.852H69.677z"/>
	<path fill="#FFFFFF" d="M75.906,110.543v-6.868h2.148c0.578,0,1.144,0.03,1.515,0.505c0.304,0.377,0.359,0.767,0.359,1.229
		c0,0.596-0.14,1.187-0.857,1.442v0.018c0.742,0.104,1.034,0.706,1.034,1.6c0,0.28-0.018,0.56-0.097,0.837
		c-0.286,0.873-0.803,1.238-1.746,1.238L75.906,110.543L75.906,110.543z M77.519,109.534c0.28,0,0.566,0.027,0.81-0.067
		c0.359-0.161,0.401-0.614,0.401-0.955c0-0.736-0.151-1.059-0.973-1.059H77.24v2.081H77.519z M77.482,106.452
		c0.329,0,0.742,0.018,0.956-0.247c0.122-0.176,0.14-0.404,0.14-0.742c0-0.505-0.11-0.76-0.725-0.772h-0.614v1.761H77.482z"/>
	<path fill="#FFFFFF" d="M82.909,105.476c0.14,0.341,0.256,0.694,0.31,1.056h0.024c0.098-0.536,0.28-0.916,0.438-1.293l0.632-1.56
		h1.46l-1.886,3.945v2.919h-1.332v-2.92l-1.855-3.945h1.454L82.909,105.476z"/>
	<polygon fill="#FFFFFF" points="7.745,122.717 7.745,112.569 22.151,112.569 22.151,114.945 13.53,114.945 13.53,116.396 
		20.825,116.396 20.825,118.757 13.53,118.757 13.53,120.351 22.485,120.351 22.485,122.717 	"/>
	<path fill="#FFFFFF" d="M36.971,115.52c-0.091-0.341-0.414-0.566-0.833-0.688c-0.414-0.128-0.925-0.188-1.497-0.188
		c-1.271,0-1.844,0.219-1.844,0.587c0,1.512,10.16,0.575,10.16,4.256c0,2.354-3.413,3.498-8.268,3.498
		c-4.66,0-7.702-1.558-7.824-3.389h5.542c0.122,0.365,0.468,0.633,0.961,0.796c0.462,0.171,1.071,0.256,1.643,0.256
		c1.448,0,2.409-0.268,2.409-0.746c0-1.536-10.166-0.483-10.166-4.353c0-2.16,3.243-3.243,7.659-3.243
		c4.904,0,7.137,1.442,7.557,3.212h-5.499V115.52z"/>
	<path fill="#FFFFFF" d="M53.519,119.186v3.532h-5.792V112.57h8.341c5.883,0,7.824,0.925,7.824,2.896
		c0,1.174-0.906,2.147-2.963,2.482c1.861,0.396,2.993,0.639,2.993,2.689c0,1.32-0.079,1.773,0.608,1.773v0.308h-5.864
		c-0.146-0.225-0.292-0.876-0.292-1.777c0-1.326-0.396-1.755-3.09-1.755H53.519L53.519,119.186z M53.519,116.962h2.275
		c1.794,0,2.75-0.265,2.75-0.967c0-0.709-0.974-1.053-2.331-1.053h-2.695L53.519,116.962L53.519,116.962z"/>
	<path fill="#FFFFFF" d="M69.543,122.717v-10.148h8.438c3.979,0,7.143,0.544,7.143,2.555c0,1.046-1.181,1.807-2.306,2.208
		c1.91,0.28,2.938,1.232,2.938,2.324c0,2.27-3.011,3.061-7.604,3.061H69.543z M75.329,118.483v1.868h2.524
		c1.43,0,2.507-0.17,2.507-0.931c0-0.888-1.345-0.937-3.194-0.937H75.329z M75.329,114.945v1.692h2.409
		c1.15,0,1.99-0.302,1.99-0.889c0-0.791-1.138-0.803-2.354-0.803H75.329L75.329,114.945z"/>
	<path d="M10.19,30.588c0-2.233,1.983-4.052,4.465-4.052c2.458,0,4.435,1.819,4.435,4.052c0,2.257-1.978,4.079-4.435,4.079
		C12.173,34.668,10.19,32.845,10.19,30.588 M18.306,30.588c0-1.837-1.625-3.334-3.65-3.334c-2.032,0-3.681,1.497-3.681,3.334
		c0,1.855,1.649,3.364,3.681,3.364C16.682,33.953,18.306,32.444,18.306,30.588 M13.707,30.872v2.059h-0.815v-4.794h1.698
		c0.961,0,1.935,0.237,1.935,1.326c0,0.544-0.353,0.985-1.046,1.119v0.021c0.706,0.125,0.803,0.429,0.882,0.946
		c0.08,0.451,0.128,0.949,0.311,1.381h-1.047c-0.061-0.268-0.139-0.584-0.176-0.861c-0.049-0.408-0.049-0.797-0.292-1.013
		c-0.2-0.185-0.474-0.164-0.76-0.185L13.707,30.872 M14.577,30.117c0.761-0.021,0.949-0.325,0.949-0.678
		c0-0.359-0.188-0.553-0.839-0.553h-0.979v1.231H14.577z"/>
	<polygon fill="#FFFFFF" points="81.741,17.6 81.741,14.911 85.671,14.911 85.671,12.422 81.741,12.422 81.741,10.12 85.799,10.12 
		85.799,7.61 78.595,7.61 78.595,20.082 85.823,20.082 85.823,17.6 	"/>
	<polygon fill="#FFFFFF" points="73.631,14.588 73.583,14.588 71.149,7.61 67.918,7.61 67.918,20.085 70.899,20.085 70.614,13.14 
		70.65,13.107 73.09,20.085 76.308,20.085 76.308,7.61 73.327,7.61 	"/>
	<path fill="#FFFFFF" d="M61.811,7.391c-2.75,0-4.283,1.326-4.283,3.711v5.086c0,2.811,1.101,4.271,4.283,4.271
		c3.188,0,4.234-1.46,4.234-4.271v-5.085C66.044,8.717,64.554,7.391,61.811,7.391 M62.894,16.432c0,0.721-0.073,1.776-1.083,1.776
		c-1.016,0-1.149-1.056-1.149-1.776v-5.116c0-0.773,0.133-1.683,1.131-1.683c1.028,0,1.102,0.91,1.102,1.683L62.894,16.432
		L62.894,16.432z"/>
	<polygon fill="#FFFFFF" points="51.432,11.695 51.389,11.695 49.813,7.61 46.638,7.61 49.801,14.844 49.801,20.082 52.94,20.082 
		52.94,14.844 56.177,7.61 53.038,7.61 	"/>
	<path fill="#FFFFFF" d="M45.494,15.556c-0.048-0.864-0.675-1.43-1.545-1.603v-0.052c1.32-0.542,1.661-1.506,1.661-2.835
		c0-2.47-1.295-3.456-3.857-3.456h-4.6v12.477h3.146V15.16h1.047c0.73,0.064,0.967,0.554,1.07,1.326
		c0.079,0.767,0.006,1.795,0.067,2.893c0.012,0.24,0.085,0.478,0.176,0.708h3.432v-0.164c-0.152-0.113-0.243-0.252-0.304-0.417
		C45.609,18.701,45.585,16.553,45.494,15.556 M41.37,12.924h-1.071V9.867c1.54-0.024,2.196,0.024,2.196,1.502
		C42.495,12.151,42.282,12.924,41.37,12.924"/>
	<polygon fill="#FFFFFF" points="31.069,14.911 35.006,14.911 35.006,12.422 31.069,12.422 31.069,10.12 35.14,10.12 35.14,7.613 
		27.931,7.613 27.931,20.085 35.34,20.085 35.34,17.6 31.069,17.6 	"/>
	<polygon fill="#FFFFFF" points="21.615,16.364 21.579,16.364 19.973,7.61 16.828,7.61 19.735,20.087 23.435,20.087 26.373,7.61 
		23.228,7.61 	"/>
	<polygon fill="#FFFFFF" points="11.279,14.911 15.246,14.911 15.246,12.422 11.279,12.422 11.279,10.12 15.374,10.12 15.374,7.613 
		8.122,7.613 8.122,20.085 15.586,20.085 15.586,17.6 11.279,17.6 	"/>
	<polygon points="16.7,38.546 64.414,26.46 68.789,41.904 40.657,49.037 42.459,55.355 70.584,48.237 74.97,63.684 46.827,70.808 
		48.707,77.469 76.849,70.342 81.224,85.789 33.515,97.874 	"/>
</g>
</svg>
