<?xml version="1.0" encoding="utf-8"?>
<!-- Generator: Adobe Illustrator 16.0.0, SVG Export Plug-In . SVG Version: 6.00 Build 0)  -->
<!DOCTYPE svg PUBLIC "-//W3C//DTD SVG 1.1//EN" "http://www.w3.org/Graphics/SVG/1.1/DTD/svg11.dtd">
<svg version="1.1" id="Layer_1" xmlns="http://www.w3.org/2000/svg" xmlns:xlink="http://www.w3.org/1999/xlink" x="0px" y="0px"
	 width="286px" height="192.319px" viewBox="0 0 286 192.319" enable-background="new 0 0 286 192.319" xml:space="preserve">
<path fill-rule="evenodd" clip-rule="evenodd" d="M0,56.074c3.495,0,6.99,0,10.485,0c5.292,5.299,10.584,10.596,15.754,15.771
	c5.271-5.271,10.526-10.525,15.653-15.653c3.818,0,7.267,0,10.652,0c-1.168,5.084-0.372,10.259-0.512,15.394
	C51.887,76.906,52,82.235,52,87.562c0,5.159,0,10.319,0,15.479c0,5.284,0,10.569,0,15.941c-3.095,0-5.876,0-8.989,0
	c0-15.951,0-31.841,0-47.965c-3.391,0.196-3.375,3.434-5.127,4.861c-1.745,1.423-3.593,2.844-5.026,4.732
	c-1.495,1.971-3.471,3.576-5.297,5.402c-0.588,0-1.236,0-2.149,0c-4.789-4.942-10.066-9.72-15.401-16.226
	c-0.019,9.198-0.008,17.12-0.01,25.041c-0.002,7.968,0,15.936,0,24.074c-2.929,0-5.715,0-9,0c0-1.088,0-2.353,0-3.617
	c0-18.475,0.016-36.949-0.048-55.423C0.948,58.948,1.947,57.425,0,57.074C0,56.741,0,56.407,0,56.074z M0,131.074
	c1.673,0.178,0.964,1.489,0.968,2.289C1.015,144.681,1,155.998,1,167.315c0,7.323,0.009,14.646-0.015,21.97
	c-0.002,0.721,0.391,1.775-0.985,1.789c0,0.333,0,0.667,0,1c3.288,0,6.576,0,10,0c0-15.66,0-30.969,0.008-46.278
	c0-0.139,0.101-0.297,0.194-0.413c0.088-0.108,0.229-0.174,0.347-0.259c4.949,4.948,9.897,9.897,14.898,14.897
	c0.599,0,1.251,0,2.366,0c1.46-1.538,3.154-3.357,4.888-5.139c1.626-1.672,3.081-3.639,5.001-4.863
	c2.06-1.312,1.833-4.69,5.179-5.062c0,15.713,0,31.282,0,46.899c3.257,0,6.16,0,9.118,0c0-5.375,0-10.531,0-15.688
	c0-5.165,0-10.33,0-15.496c0-5.165-0.126-10.334,0.036-15.494c0.157-4.981-0.748-10.013,0.64-15.008c-3.466,0-6.917,0-10.657,0
	c-5.173,5.172-10.443,10.442-15.715,15.715c-5.205-5.206-10.506-10.508-15.807-15.811c-3.499,0-6.998,0-10.497,0
	C0,130.407,0,130.741,0,131.074z M0,8.074C0.283,8.19,0.81,8.302,0.812,8.423c0.046,2.768,0.046,5.535,0,8.303
	C0.81,16.847,0.283,16.958,0,17.074c0,0.333,0,0.667,0,1c2.553,2.304,5.106,4.607,7.778,7.019c3.787,0,7.773,0,11.872,0
	c1.049,1.639,2.189,3.28,4.205,4.055c0,1.577,0,3.029,0,4.572c-1.322,1.322-2.733,2.733-4.25,4.249c-2.523,0-5.157,0-7.757,0
	c-1.32-1.377-2.681-2.797-3.733-3.895c-3.125,0-5.62,0-8.114,0c0,0.333,0,0.667,0,1c0.276,0.224,0.553,0.447,0.829,0.671
	C0.553,35.854,0.276,35.965,0,36.074c0,0.333,0,0.667,0,1c2.557,2.307,5.113,4.613,7.721,6.967c5.2,0,10.523,0,15.812,0
	c2.154-2.154,4.275-4.275,6.431-6.432c0-3.954,0-7.943,0-11.666c-2.334-2.334-4.552-4.551-6.941-6.94c-3.707,0-7.687,0-11.594,0
	c-1.485-1.484-2.899-2.898-4.312-4.312c0.001-1.452,0.001-2.903,0.001-4.234c1.532-1.532,2.946-2.946,4.217-4.217
	c2.932,0,5.72,0,8.958,0c1.109,1.146,2.366,2.442,3.609,3.727c1.878,0,3.85,0,5.956,0c0-1.226,0-2.344,0-3.533
	c-2.05-2.05-4.171-4.171-6.217-6.217c-5.527,0-10.979,0-16.035,0C4.881,2.674,2.44,4.874,0,7.074C0,7.407,0,7.741,0,8.074z
	 M286,189.074c-1.37,1.006-1.37,1.994,0,3C286,191.074,286,190.074,286,189.074z M286,187.074c0-0.333,0-0.667,0-1
	c-0.758,0.15-1.914-0.496-2,1C284.666,187.074,285.334,187.074,286,187.074z M214.679,56.25
	c-5.735,5.736-11.119,11.119-16.434,16.435c1.454,2.181,0.587,4.71,0.721,7.091c0.149,2.653,0.034,5.322,0.034,7.984
	c0,2.496,0.098,4.997-0.027,7.486c-0.125,2.51,0.67,5.134-0.799,7.502c5.412,5.413,10.825,10.825,16.209,16.208
	c8.471,0,16.912,0,25.234,0c5.53-5.529,10.943-10.941,16.355-16.355c-0.216-0.235-0.623-0.47-0.623-0.705
	c-0.032-10.105-0.027-20.211-0.027-29.909c-5.531-5.547-10.697-10.729-15.689-15.736C231.021,56.25,222.582,56.25,214.679,56.25z
	 M240.105,103.469c-0.073,3.014-3.84,3.001-4.529,5.562c-5.626,0-11.264,0-16.768,0c-3.557-3.556-7.069-7.068-10.783-10.782
	c0-6.927,0-14.23,0-21.431c3.556-3.551,7.073-7.063,10.744-10.73c5.351,0,10.996,0,16.67,0c3.479,3.515,6.979,7.05,10.561,10.667
	c0,7.146,0,14.457,0,22.205C244.178,100.354,242.142,101.911,240.105,103.469z M131,118.898c0-8.811-0.001-17.446,0.008-26.082
	c0-0.142,0.091-0.3,0.18-0.419c0.095-0.127,0.239-0.217,0.349-0.312c5.003,0,9.995,0,14.815,0c2.118,1.943,4.137,3.795,6.648,6.1
	c0,6.173-0.001,13.14,0.006,20.106c0,0.145,0.073,0.305,0.152,0.432c0.086,0.139,0.221,0.246,0.154,0.176c2.982,0,5.768,0,8.596,0
	c0-8.953,0-17.729,0-26.59c-1.58-1.355-3.149-2.701-4.876-4.182c0-0.303,0-0.96,0-1.124c1.841-1.574,3.421-2.925,4.825-4.124
	c0-5.7,0-11.147,0-16.354c-3.59-3.612-6.99-7.034-10.209-10.273c-10.293,0-20.4,0-30.572,0c0,20.943,0,41.71,0,62.647
	C124.627,118.898,127.746,118.898,131,118.898z M152.988,76.586c-2.131,2.13-4.248,4.248-6.382,6.382c-5.097,0-10.209,0-15.463,0
	c0-5.549,0-10.994,0-16.667c5.324,0,10.757,0,16.369,0c1.523,1.576,3.247,3.359,5.476,5.663
	C152.988,73.277,152.988,74.938,152.988,76.586z M256.805,171.38c2.139,6.084,0.773,12.192,1.2,17.415
	c-0.495,1.491-0.755,2.272-1.047,3.151c3.573,0,6.688,0,9.92,0c0-8.566,0-17.007,0-25.656c-1.446-1.241-3.022-2.593-4.855-4.165
	c0-0.165,0-0.824,0-1.826c3.431,0.243,2.666-3.814,4.896-4.63c0-5.324,0-10.292,0-15.177c-3.493-3.493-6.904-6.904-10.315-10.314
	c-10.104,0.001-20.208,0.001-30.437,0.001c0,20.646,0,41.187,0,61.958c3.061-0.229,5.973,0.181,9.007-0.253
	c0-8.785,0-17.223,0-25.732c5.474,0,10.776,0,16.404,0C253.441,168.016,255.205,169.78,256.805,171.38z M235,140.6
	c0.111-0.12,0.208-0.263,0.34-0.354c0.122-0.086,0.282-0.165,0.426-0.165c5.492-0.008,10.982-0.007,16.232-0.007
	c1.627,1.634,3.136,3.15,5.151,5.176c0.178,0.562-0.824,2.267,0.559,3.123c-0.331,1.104-0.638,2.128-1.067,3.56
	c-1.423,1.424-3.188,3.188-5.141,5.142c-5.38,0-10.945,0-16.5,0C235,151.249,235,145.925,235,140.6z M91.063,56.163
	c-3.132,0-6.438,0-9.04,0C76.47,61.718,71.311,66.877,66,72.188c0,15.176,0,30.658,0.007,46.142c0,0.142,0.089,0.3,0.178,0.42
	c0.095,0.128,0.238,0.219,0.466,0.417c2.984-0.842,6.525,1.356,9.324-1.451c-1.217-2.625-1.459-10.416-0.639-19.478
	c0.353-0.354,0.706-0.707,1.163-1.163c6.042,0,12.188-0.039,18.333,0.039c1.03,0.013,2.053,0.534,3.306,0.884
	c0,7.269,0,14.173,0,20.912c3.132,0,5.918,0,8.777,0c0-15.791,0-31.417,0-46.895C101.429,66.528,96.267,61.366,91.063,56.163z
	 M75.045,86.619c0-2.939,0-5.925,0-8.83c3.89-3.886,7.763-7.755,11.864-11.853c2.16,1.208,3.701,3.393,5.587,5.159
	c1.822,1.707,3.545,3.52,5.407,5.383c0,3.686,0,7.468,0,11.423c-7.168,0-14.284,0-21.576,0
	C75.797,87.371,75.443,87.018,75.045,86.619z M66.171,191.978c2.955,0,5.739,0,8.696,0c0-6.542,0-12.993,0-19.271
	c0.646-0.645,1.117-1.116,1.482-1.481c6.89,0,13.674,0,20.303,0c0.504,0.505,0.858,0.858,1.386,1.386c0,6.274,0,12.727,0,19.255
	c3.08,0,5.982,0,8.834,0c0-15.655,0-31.103,0-46.42c-5.194-5.194-10.259-10.26-15.22-15.22c-3.559,0-7.011,0-10.301,0
	c-5.219,5.218-10.285,10.283-15.18,15.178C66.171,161.023,66.171,176.471,66.171,191.978z M75.074,152.221
	c4.09-4.09,8.028-8.028,11.647-11.646c3.4,3.4,6.99,6.99,11.157,11.157c0,2.554,0,6.322,0,10.215c-7.539,0-14.958,0-22.804,0
	C75.074,158.432,75.074,155.139,75.074,152.221z M134.469,170.043c2.37,0.362,3.897,2.307,4.713,3.969
	c1.036,2.11,3.231,2.572,4.242,4.161c1.148,1.804,3.644,2.247,4.18,4.139c0.607,2.14,3.78,1.894,3.574,4.44
	c2.143,0.643,3.486,2.084,4.262,4.52c1.99,0.323,4.12,0.67,6.443,1.048c0-3.623,0-6.738,0-9.863
	c-7.176-7.175-14.325-14.389-21.573-21.502c-1.075-1.055-1.519-2.047-1.299-3.138c1.136-0.951,2.124-1.668,2.967-2.526
	c0.534-0.544,0.696-1.567,1.292-1.916c3.406-1.988,5.089-5.879,8.622-7.691c2.288-4.733,7.118-7.191,9.866-11.029
	c0-1.714,0-3.142,0-4.571c-3.236,0-6.23,0-9.266,0c-2.446,2.446-4.916,4.916-7.387,7.387c-2.354,2.354-4.631,4.794-7.085,7.04
	c-2.458,2.248-4.292,5.272-8.505,7.116c0.738-1.646,1.342-2.391,1.334-3.13c-0.008-0.875-0.79-1.739-0.808-2.618
	c-0.091-4.326-0.078-8.657-0.01-12.984c0.014-0.85,0.433-1.691,0.689-2.625c-3.144,0-6.377,0-9.622,0c0,20.631,0,41.067,0,61.608
	c3.334,0,6.568,0,9.882,0c-1.238-2.919-1.521-14.813-0.687-25.615C132.109,167.063,134.068,167.688,134.469,170.043z
	 M176.095,130.25c0,20.622,0,41.068,0,61.63c11.995,0,23.895,0,35.786,0c0-2.979,0-5.765,0-8.896c-9.02,0-17.926,0-26.736,0
	c0-5.802,0-11.253,0-17.051c7.379,0,14.621,0,21.684,0c0-3.14,0-5.928,0-8.876c-6.953,0-13.738,0-20.562,0
	c-2.23-2.524-1.044-5.459-1.222-8.133c-0.196-2.93-0.045-5.884-0.045-8.979c9.238,0,18.021,0,26.9,0c0-3.29,0-6.407,0-9.696
	C199.709,130.25,187.928,130.25,176.095,130.25z M163.164,25.161c3.939,0,7.717,0,11.422,0c1.483,1.482,2.895,2.894,4.468,4.467
	c0,4.612,0,9.391,0,14.24c2.401,0,4.633,0,6.83,0c0-5.98,0-11.755,0-18.731c-0.903-0.752-2.399-1.998-3.688-3.072
	c1.357-1.357,2.747-2.746,3.642-3.642c0-4.285,0-7.733,0-10.365c-2.931-2.931-5.378-5.379-7.889-7.89c-7.061,0-14.35,0-21.793,0
	c0,14.636,0,29.178,0,43.812c2.27,0,4.384,0,7.008,0C163.164,37.456,163.164,31.349,163.164,25.161z M178.926,14.192
	c-1.542,1.534-3.053,3.036-4.809,4.784c-3.281,0-7.047,0-10.965,0c0-4.188,0-8.287,0-12.788c1.74-0.036,3.662-0.091,5.583-0.11
	c1.968-0.02,3.937-0.004,5.765-0.004c1.542,1.542,2.947,2.946,4.426,4.426C178.926,11.729,178.926,13.032,178.926,14.192z
	 M46.815,33.29c0-10.872,0-21.981,0-33.278C44.438,0.248,42.21-0.229,40.7,0.158c0.507,3.271,0.25,6.206,0.291,9.101
	c0.043,3.164,0.01,6.329,0.01,9.493c0,2.998,0.132,6.004-0.037,8.992c-0.17,3.006,0.849,6.13-0.668,8.812
	c2.461,2.545,4.884,5.05,7.227,7.473c5.434,0,10.751,0,16.023,0c2.165-2.164,4.284-4.284,6.313-6.312c0-12.537,0-24.983,0-37.398
	c-2.388,0-4.623,0-7.015,0c0,11.69,0,23.138,0,34.344c-1.31,1.162-2.407,2.137-3.812,3.384c-2.132,0-4.789,0-7.55,0
	C50.039,36.576,48.532,35.04,46.815,33.29z M185.826,56.171c-3.289,0-6.404,0-9.652,0c0,20.981,0,41.866,0,62.807
	c3.289,0,6.404,0,9.652,0C185.826,97.996,185.826,77.111,185.826,56.171z M120.176,43.973c8.627,0,17.077,0,25.619,0
	c0-2.011,0-3.913,0-5.984c-6.323,0-12.442,0-18.543,0c-0.874-3.933,0.651-7.912-1.021-11.645c0.298-0.298,0.652-0.651,1.358-1.357
	c4.548,0,9.461,0,14.265,0c0-2.144,0-3.931,0-5.882c-4.929,0-9.715,0-14.346,0c-0.603-0.63-1.044-1.092-1.471-1.538
	c1.289-2.831,1.34-7.087,0.144-10.172c0.354-0.354,0.707-0.707,1.413-1.413c5.881,0,12.125,0,18.257,0c0-2.144,0-3.932,0-5.807
	c-8.6,0-17.05,0-25.674,0C120.176,15.029,120.176,29.479,120.176,43.973z M81.232,0.235c0,14.71,0,29.258,0,43.685
	c2.021,0,3.807,0,5.917,0c0-6.383,0-12.617,0-18.84c5.66,0,10.981,0,15.87,0c2.434-2.435,4.648-4.649,6.906-6.907
	c0-3.809,0-7.78,0-11.668c-2.194-2.196-4.31-4.313-6.265-6.27C96.057,0.235,88.615,0.235,81.232,0.235z M87.086,6.074
	c2.79,0,5.566,0.135,8.323-0.038c2.786-0.175,4.978,0.771,6.823,2.764c0.562,0.606,1.167,1.174,1.76,1.767c0,1.315,0,2.638,0,4.007
	c-1.489,1.488-3.005,3.003-4.505,4.501c-4.007,0-7.981,0-12.402,0C87.086,14.648,87.086,10.55,87.086,6.074z M280.25,189.074
	c0,1,0,2,0,3c0.166,0,0.334,0,0.5,0c0-1,0-2,0-3C280.584,189.074,280.416,189.074,280.25,189.074z M275.258,187.11
	c0.546-0.13,1.092-0.26,1.637-0.39c-0.026-0.159-0.052-0.317-0.078-0.476c-0.553,0-1.105,0-1.658,0
	C275.191,186.533,275.225,186.822,275.258,187.11z M280.599,187.041c0.478-0.067,0.936-0.277,1.401-0.433
	c-0.603-0.171-1.205-0.343-2.475-0.703C280.25,186.691,280.452,187.062,280.599,187.041z M282,187.074
	c0.252,0.333,0.504,0.667,0.756,1c0.415-0.333,0.83-0.667,1.244-1C283.334,187.074,282.666,187.074,282,187.074z"/>
</svg>
