<?xml version="1.0" standalone="no"?>
<!DOCTYPE svg PUBLIC "-//W3C//DTD SVG 1.1//EN" "http://www.w3.org/Graphics/SVG/1.1/DTD/svg11.dtd" >
<svg xmlns="http://www.w3.org/2000/svg">
<metadata></metadata>
<defs>
<font id="bou_collegeregular" horiz-adv-x="1178" >
<font-face units-per-em="2048" ascent="1638" descent="-410" />
<missing-glyph horiz-adv-x="508" />
<glyph horiz-adv-x="0" />
<glyph unicode="&#xd;" horiz-adv-x="508" />
<glyph unicode=" "  horiz-adv-x="508" />
<glyph unicode="&#x09;" horiz-adv-x="508" />
<glyph unicode="&#xa0;" horiz-adv-x="508" />
<glyph unicode="!" horiz-adv-x="436" d="M100 2h235v248h-235v-248zM100 375h235l1 1068h-236v-1068z" />
<glyph unicode="&#x22;" horiz-adv-x="630" d="M100 1062v381h155v-381h-155zM375 1062v381h155v-381h-155z" />
<glyph unicode="#" horiz-adv-x="1786" d="M100 379h341l-76 -377h235l76 377h288l-75 -377h235l76 377h341l47 235h-341l51 257h341l47 235h-341l68 337h-236l-67 -337l-288 1l68 336h-236l-67 -336h-342l-47 -236h341l-51 -256h-341zM723 615l52 256h288l-52 -257z" />
<glyph unicode="$" horiz-adv-x="1095" d="M100 264v160h228v-82l125 -137h241l85 108v203l-116 102h-337l-213 190l-6 6l-7 6v416l178 207h156v257h217v-257h113l231 -264v-160h-224v82l-125 137h-249l-85 -108v-203l116 -102h364l190 -190l6 -6l7 -6v-416l-178 -207h-166v-224h-217v224h-103z" />
<glyph unicode="%" horiz-adv-x="1509" d="M100 919l121 -115h283l121 115v431l-119 97h-287l-119 -97v-431zM109 -2l1041 1445h259l-1048 -1444zM217 976v288l67 56h150l67 -56v-288l-72 -56h-140zM880 121l121 -115h283l121 115v431l-119 97h-287l-119 -97v-431zM997 178v288l67 56h150l67 -56v-288l-72 -56h-140 z" />
<glyph unicode="&#x26;" horiz-adv-x="1288" d="M100 210l200 -208h523l76 89l64 -89l225 -4l-191 263l2 321l100 147h-204l-11 -18l-4 5l143 179v331l-187 213h-549l-187 -213v-331l143 -179l-143 -160v-346zM341 280v208l118 113h205l118 -113v-208l-95 -96h-251zM341 923v207l118 114h205l118 -114v-207l-96 -96h-249 z" />
<glyph unicode="'" horiz-adv-x="355" d="M100 1062v381h155v-381h-155z" />
<glyph unicode="(" horiz-adv-x="636" d="M100 -7l226 -257h210v209h-72l-129 141v998l120 142h81v217h-214l-222 -217v-1233z" />
<glyph unicode=")" horiz-adv-x="636" d="M100 -55v-209h210l226 257v1233l-222 217h-214v-217h81l120 -142v-998l-129 -141h-72z" />
<glyph unicode="*" horiz-adv-x="620" d="M100 1028l80 -57l125 159l136 -161l51 63l-125 154h153v85l-158 -1l-1 174l-95 -1l1 -171h-165l-2 -89h147z" />
<glyph unicode="+" horiz-adv-x="1109" d="M100 619v226h345v342h226v-342h338v-226h-338v-341h-226v341h-345z" />
<glyph unicode="," horiz-adv-x="437" d="M100 2h146v-44l-53 -44h-91v-80h124l111 92l-2 324h-235v-248z" />
<glyph unicode="-" horiz-adv-x="755" d="M100 614v213h555v-213h-555z" />
<glyph unicode="." horiz-adv-x="435" d="M100 2h235v248h-235v-248z" />
<glyph unicode="/" horiz-adv-x="1500" d="M100 -2l1041 1445h259l-1048 -1444z" />
<glyph unicode="0" d="M100 259l226 -257h526l226 257v967l-222 217h-534l-222 -217v-967zM335 352v732l120 142h268l120 -142v-732l-129 -141h-250z" />
<glyph unicode="1" horiz-adv-x="803" d="M100 1076l238 358v9h236l-1 -1255h130v-186h-523v186h158v958l-60 -67z" />
<glyph unicode="2" horiz-adv-x="1099" d="M100 609l13 13l191 200h388l116 102v204l-85 108h-273l-125 -137v-82h-225v160l232 265h487l179 -208v-417l-235 -201h-362l-85 -102l-3 -308h686l-3 -206h-892z" />
<glyph unicode="3" horiz-adv-x="1123" d="M100 210l200 -208h523l200 208v346l-143 160l143 179v331l-187 213h-549l-187 -213v-204h241v108l118 114h205l118 -114v-207l-96 -96h-194v-226h172l118 -113v-208l-95 -96h-251l-95 96v121h-241v-191z" />
<glyph unicode="4" horiz-adv-x="1257" d="M100 463v226l561 754h264l1 -763h231v-217h-230l1 -462l-239 1v461h-589zM367 676l318 -1l4 443z" />
<glyph unicode="5" horiz-adv-x="1099" d="M100 265v160h225v-82l125 -137h273l85 108v204l-116 102h-388l-191 200l-13 13l4 609h892l3 -206h-686l3 -308l85 -102h362l235 -201v-417l-179 -208h-487z" />
<glyph unicode="6" horiz-adv-x="1123" d="M100 210l200 -208h523l200 208v399l-262 271h-364l-54 -56l-1 315l117 105h205l118 -114v-64h241v160l-187 213h-549l-187 -213v-1016zM341 311v260l96 96h249l96 -96v-260l-118 -114h-205z" />
<glyph unicode="7" horiz-adv-x="1207" d="M100 -2l704 1230h-703v215h1006v-202l-732 -1242z" />
<glyph unicode="8" horiz-adv-x="1123" d="M100 210l200 -208h523l200 208v346l-143 160l143 179v331l-187 213h-549l-187 -213v-331l143 -179l-143 -160v-346zM341 280v208l118 113h205l118 -113v-208l-95 -96h-251zM341 923v207l118 114h205l118 -114v-207l-96 -96h-249z" />
<glyph unicode="9" horiz-adv-x="1123" d="M100 215l187 -213h549l187 213v1016l-200 208h-523l-200 -208v-399l262 -271h364l54 56l1 -315l-117 -105h-205l-118 114v64h-241v-160zM341 870v260l118 114h205l118 -114v-260l-96 -96h-249z" />
<glyph unicode=":" horiz-adv-x="435" d="M100 2h235v248h-235v-248zM100 776h235v248h-235v-248z" />
<glyph unicode=";" horiz-adv-x="437" d="M100 2h146v-44l-53 -44h-91v-80h124l111 92l-2 324h-235v-248zM100 776h235v248h-235v-248z" />
<glyph unicode="&#x3c;" horiz-adv-x="932" d="M100 650l732 -386v226l-484 211l484 212v206l-732 -341v-128z" />
<glyph unicode="=" horiz-adv-x="1108" d="M100 402v226h908v-226h-908zM100 823v226h908v-226h-908z" />
<glyph unicode="&#x3e;" horiz-adv-x="932" d="M100 264l732 386v128l-732 341v-206l484 -212l-484 -211v-226z" />
<glyph unicode="?" horiz-adv-x="1098" d="M100 1017v160l232 265h487l179 -208v-417l-235 -201h-123l-85 -102l-1 -131h-209l-1 226l13 13l191 200h144l116 102v204l-85 108h-273l-125 -137v-82h-225zM348 2h235v248h-235v-248z" />
<glyph unicode="@" horiz-adv-x="1654" d="M100 742q0 301 213 514t514 213t514 -213t213 -514q0 -212 -106 -381h-436v10h-44v8q-55 -16 -117 -16q-162 0 -277 112.5t-115 272.5q0 159 115 272t277 113q103 0 187 -9h121q-131 107 -306 107q-202 0 -345 -142.5t-143 -344.5t143 -345t345 -143q77 0 146 21h387 q-21 -25 -45 -49q-213 -213 -514 -213t-514 213t-213 514zM632 743q0 -85 56.5 -144.5t136.5 -59.5t137 60q38 40 50 91v105q-12 51 -50 92q-57 59 -137 59t-136.5 -59.5t-56.5 -143.5zM1194 593h124q23 71 23 151q0 202 -143 345q-2 1 -4 3v-154v-345z" />
<glyph unicode="A" horiz-adv-x="1372" d="M100 2h252l134 421h400l134 -421h252l-461 1432h-250zM545 609l141 441l141 -441h-282z" />
<glyph unicode="B" horiz-adv-x="1152" d="M100 2h752l200 208v346l-143 160l143 179v331l-187 213h-765v-1437zM335 184v417h358l118 -113v-208l-95 -96h-381zM335 827v417h358l118 -114v-207l-96 -96h-380z" />
<glyph unicode="C" d="M100 259l226 -257h526l226 257v235h-235v-142l-129 -141h-250l-129 141v732l120 142h268l120 -142v-120h235v262l-222 217h-534l-222 -217v-967z" />
<glyph unicode="D" d="M100 2h752l226 257v967l-222 217h-756v-1441zM335 211l1 1015h387l120 -142v-732l-129 -141h-379z" />
<glyph unicode="E" horiz-adv-x="1133" d="M100 2v1440h933v-216h-697v-399h556v-213h-557v-399h698v-213h-933z" />
<glyph unicode="F" horiz-adv-x="1133" d="M100 2v1440h933v-216h-697v-399h556v-213h-557l2 -612h-237z" />
<glyph unicode="G" d="M100 259l226 -257h526l226 257l-2 516h-474v-213h241v-210l-129 -141h-250l-129 141v732l120 142h268l120 -142v-120h235v262l-222 217h-534l-222 -217v-967z" />
<glyph unicode="H" horiz-adv-x="1179" d="M100 2v1441h236v-616h504v616h236l3 -1442l-239 1v612h-505v-612h-235z" />
<glyph unicode="I" horiz-adv-x="436" d="M100 2v1441h236l-1 -1441h-235z" />
<glyph unicode="J" d="M100 259l226 -257h526l226 257v1184h-235v-1091l-129 -141h-250l-129 141v213h-235v-306z" />
<glyph unicode="K" horiz-adv-x="1192" d="M100 2v1441h236v-616l464 616h289l-544 -707l547 -735l-296 1l-461 612v-612h-235z" />
<glyph unicode="L" horiz-adv-x="1133" d="M100 2v1440h237l-2 -1227h698v-213h-933z" />
<glyph unicode="M" horiz-adv-x="1398" d="M100 2h235l1 1012l284 -1012h197l245 969v-969h235l1 1441l-347 -1l-232 -880l-263 881h-356v-1441z" />
<glyph unicode="N" horiz-adv-x="1192" d="M100 2v1441h236l517 -895v895h236l3 -1442l-239 1l-518 887v-887h-235z" />
<glyph unicode="O" d="M100 259l226 -257h526l226 257v967l-222 217h-534l-222 -217v-967zM335 352v732l120 142h268l120 -142v-732l-129 -141h-250z" />
<glyph unicode="P" horiz-adv-x="1152" d="M100 2h237l-2 599h473l244 232v393l-187 213h-765v-1437zM335 827v417h358l118 -114v-207l-96 -96h-380z" />
<glyph unicode="Q" horiz-adv-x="1262" d="M100 259l226 -257h526l36 41l36 -45h238l-147 190l63 71v967l-222 217h-534l-222 -217v-967zM335 352v732l120 142h268l120 -142v-722l-9 12h-238l125 -156l-7 -7h-250z" />
<glyph unicode="R" horiz-adv-x="1152" d="M100 2h237l-2 599h224l239 -599h248l-234 603l240 228v393l-187 213h-765v-1437zM335 827v417h358l118 -114v-207l-96 -96h-380z" />
<glyph unicode="S" horiz-adv-x="1095" d="M100 264v160h228v-82l125 -137h241l85 108v203l-116 102h-337l-213 190l-6 6l-7 6v416l178 207h486l231 -264v-160h-224v82l-125 137h-249l-85 -108v-203l116 -102h364l190 -190l6 -6l7 -6v-416l-178 -207h-486z" />
<glyph unicode="T" horiz-adv-x="1159" d="M100 1236v204h959v-204h-359l-1 -1234h-235v1234h-364z" />
<glyph unicode="U" d="M100 259l226 -257h526l226 257v1184h-235v-1091l-129 -141h-250l-129 141v1091h-235v-1184z" />
<glyph unicode="V" horiz-adv-x="1372" d="M100 1434l461 -1432h250l461 1432h-252l-334 -1048l-334 1048h-252z" />
<glyph unicode="W" horiz-adv-x="1997" d="M100 1447l346 -1445h299l259 939l258 -939h299l336 1445h-252l-249 -1060l-299 1060h-197l-289 -1060l-259 1060h-252z" />
<glyph unicode="X" horiz-adv-x="1306" d="M100 1l423 735l-420 707h289l261 -473l261 473h289l-420 -707l423 -735l-296 1l-257 467l-257 -467z" />
<glyph unicode="Y" horiz-adv-x="1300" d="M100 1443h289l261 -473l279 473h271l-429 -707l2 -735h-241l1 735z" />
<glyph unicode="Z" horiz-adv-x="1207" d="M100 -2l1 230l703 1000h-703v215h1006v-202l-674 -1008h674v-231z" />
<glyph unicode="[" horiz-adv-x="636" d="M100 -264h436v209h-201l4 1281h197v217h-436v-1707z" />
<glyph unicode="\" horiz-adv-x="1500" d="M100 1443h259l1041 -1445l-252 1z" />
<glyph unicode="]" horiz-adv-x="636" d="M100 -55v-209h436v1707h-436v-217h197l4 -1281h-201z" />
<glyph unicode="^" horiz-adv-x="980" d="M100 806h182l211 448l212 -448h175l-310 634h-128z" />
<glyph unicode="_" horiz-adv-x="1064" d="M100 -2h864v-182h-864v182z" />
<glyph unicode="`" horiz-adv-x="599" d="M100 1718l190 -253h209l-174 253h-225z" />
<glyph unicode="a" horiz-adv-x="1372" d="M100 2h252l134 421h400l134 -421h252l-461 1432h-250zM545 609l141 441l141 -441h-282z" />
<glyph unicode="b" horiz-adv-x="1152" d="M100 2h752l200 208v346l-143 160l143 179v331l-187 213h-765v-1437zM335 184v417h358l118 -113v-208l-95 -96h-381zM335 827v417h358l118 -114v-207l-96 -96h-380z" />
<glyph unicode="c" d="M100 259l226 -257h526l226 257v235h-235v-142l-129 -141h-250l-129 141v732l120 142h268l120 -142v-120h235v262l-222 217h-534l-222 -217v-967z" />
<glyph unicode="d" d="M100 2h752l226 257v967l-222 217h-756v-1441zM335 211l1 1015h387l120 -142v-732l-129 -141h-379z" />
<glyph unicode="e" horiz-adv-x="1133" d="M100 2v1440h933v-216h-697v-399h556v-213h-557v-399h698v-213h-933z" />
<glyph unicode="f" horiz-adv-x="1133" d="M100 2v1440h933v-216h-697v-399h556v-213h-557l2 -612h-237z" />
<glyph unicode="g" d="M100 259l226 -257h526l226 257l-2 516h-474v-213h241v-210l-129 -141h-250l-129 141v732l120 142h268l120 -142v-120h235v262l-222 217h-534l-222 -217v-967z" />
<glyph unicode="h" horiz-adv-x="1179" d="M100 2v1441h236v-616h504v616h236l3 -1442l-239 1v612h-505v-612h-235z" />
<glyph unicode="i" horiz-adv-x="436" d="M100 2v1441h236l-1 -1441h-235z" />
<glyph unicode="j" d="M100 259l226 -257h526l226 257v1184h-235v-1091l-129 -141h-250l-129 141v213h-235v-306z" />
<glyph unicode="k" horiz-adv-x="1192" d="M100 2v1441h236v-616l464 616h289l-544 -707l547 -735l-296 1l-461 612v-612h-235z" />
<glyph unicode="l" horiz-adv-x="1133" d="M100 2v1440h237l-2 -1227h698v-213h-933z" />
<glyph unicode="m" horiz-adv-x="1398" d="M100 2h235l1 1012l284 -1012h197l245 969v-969h235l1 1441l-347 -1l-232 -880l-263 881h-356v-1441z" />
<glyph unicode="n" horiz-adv-x="1192" d="M100 2v1441h236l517 -895v895h236l3 -1442l-239 1l-518 887v-887h-235z" />
<glyph unicode="o" d="M100 259l226 -257h526l226 257v967l-222 217h-534l-222 -217v-967zM335 352v732l120 142h268l120 -142v-732l-129 -141h-250z" />
<glyph unicode="p" horiz-adv-x="1152" d="M100 2h237l-2 599h473l244 232v393l-187 213h-765v-1437zM335 827v417h358l118 -114v-207l-96 -96h-380z" />
<glyph unicode="q" horiz-adv-x="1262" d="M100 259l226 -257h526l36 41l36 -45h238l-147 190l63 71v967l-222 217h-534l-222 -217v-967zM335 352v732l120 142h268l120 -142v-722l-9 12h-238l125 -156l-7 -7h-250z" />
<glyph unicode="r" horiz-adv-x="1152" d="M100 2h237l-2 599h224l239 -599h248l-234 603l240 228v393l-187 213h-765v-1437zM335 827v417h358l118 -114v-207l-96 -96h-380z" />
<glyph unicode="s" horiz-adv-x="1095" d="M100 264v160h228v-82l125 -137h241l85 108v203l-116 102h-337l-213 190l-6 6l-7 6v416l178 207h486l231 -264v-160h-224v82l-125 137h-249l-85 -108v-203l116 -102h364l190 -190l6 -6l7 -6v-416l-178 -207h-486z" />
<glyph unicode="t" horiz-adv-x="1159" d="M100 1236v204h959v-204h-359l-1 -1234h-235v1234h-364z" />
<glyph unicode="u" d="M100 259l226 -257h526l226 257v1184h-235v-1091l-129 -141h-250l-129 141v1091h-235v-1184z" />
<glyph unicode="v" horiz-adv-x="1372" d="M100 1434l461 -1432h250l461 1432h-252l-334 -1048l-334 1048h-252z" />
<glyph unicode="w" horiz-adv-x="1997" d="M100 1447l346 -1445h299l259 939l258 -939h299l336 1445h-252l-249 -1060l-299 1060h-197l-289 -1060l-259 1060h-252z" />
<glyph unicode="x" horiz-adv-x="1306" d="M100 1l423 735l-420 707h289l261 -473l261 473h289l-420 -707l423 -735l-296 1l-257 467l-257 -467z" />
<glyph unicode="y" horiz-adv-x="1300" d="M100 1443h289l261 -473l279 473h271l-429 -707l2 -735h-241l1 735z" />
<glyph unicode="z" horiz-adv-x="1207" d="M100 -2l1 230l703 1000h-703v215h1006v-202l-674 -1008h674v-231z" />
<glyph unicode="{" horiz-adv-x="777" d="M100 627l141 -145v-489l226 -257h210v209h-72l-129 141v424l-76 103l76 107v364l120 142h81v217h-214l-222 -217v-509z" />
<glyph unicode="|" horiz-adv-x="395" d="M100 -211v1880h195v-1880h-195z" />
<glyph unicode="}" horiz-adv-x="777" d="M100 -55v-209h210l226 257v489l141 145l-141 90v509l-222 217h-214v-217h81l120 -142v-364l76 -107l-76 -103v-424l-129 -141h-72z" />
<glyph unicode="~" horiz-adv-x="1136" d="M100 760l142 -119q66 101 126 130t162 -46.5t193 -77.5t153.5 39.5t159.5 144.5l-133 129q-107 -124 -162.5 -126.5t-111 44t-144 66.5t-155 -8.5t-130.5 -73t-100 -102.5z" />
<glyph unicode="&#xa1;" horiz-adv-x="436" d="M100 2h236l-1 1068h-235v-1068zM100 1195h235v248h-235v-248z" />
<glyph unicode="&#xa2;" horiz-adv-x="1072" d="M100 475l201 -223h125v-250h198v250h146l202 223v144h-210v-63l-115 -122h-223l-115 122v324l107 124h239l107 -124v-30h210v154l-198 188h-150v247h-197v-247h-129l-198 -188v-529z" />
<glyph unicode="&#xa3;" horiz-adv-x="1309" d="M100 -2h1109v195h-743v421h170v182h-170v297l129 141h250l129 -141v-213h235v306l-226 257h-526l-226 -257v-390h-131v-182h131v-421h-131v-195z" />
<glyph unicode="&#xa4;" horiz-adv-x="937" d="M100 1133l62 66l154 -165q61 32 135 32q88 0 158 -45l166 178l62 -66l-154 -178q65 -79 65 -186q0 -85 -42 -153l126 -135l-93 -84l-114 131q-75 -56 -174 -56q-85 0 -152 41l-101 -116l-93 84l106 113q-57 76 -57 175q0 120 83 206zM282 771q0 -72 51.5 -123.5 t124.5 -51.5q72 0 123.5 51.5t51.5 123.5q0 73 -51.5 124t-123.5 51q-73 0 -124.5 -51t-51.5 -124z" />
<glyph unicode="&#xa5;" horiz-adv-x="1300" d="M100 1443h289l261 -473l279 473h271l-429 -707v-78h134v-173h-133v-101h132v-174h-132l1 -209h-241v209h-124v174h125v101h-125v173h125v78z" />
<glyph unicode="&#xa6;" horiz-adv-x="395" d="M100 378h195v-809h-195v809zM100 682v809h195v-809h-195z" />
<glyph unicode="&#xa7;" horiz-adv-x="951" d="M100 88v137h192v-70l104 -118h202l72 93v174l-97 88h-283l-179 171l-5 5l-6 5v358l87 103l-76 72l-5 5l-6 6v357l150 178h407l194 -227v-137h-188v70l-105 118h-209l-71 -93v-175l97 -87h305l160 -171l5 -6l6 -5v-357l-83 -99l72 -77l5 -5l6 -5v-357l-150 -178h-407z M278 768h14v-70l104 -118h202l72 93v72h-7v70l-105 117h-209l-71 -92v-72z" />
<glyph unicode="&#xa8;" horiz-adv-x="741" d="M100 1497h200v211h-200v-211zM441 1498h200v211h-200v-211z" />
<glyph unicode="&#xa9;" horiz-adv-x="1621" d="M100 723q0 185 96 355t266 261.5t349 91.5t349 -91.5t265.5 -261.5t95.5 -355q0 -186 -94 -355.5t-263 -262.5t-353 -93q-186 0 -354 93t-262.5 262.5t-94.5 355.5zM162 723q0 -169 86 -323t240.5 -240.5t322.5 -86.5q167 0 321.5 86.5t241 240.5t86.5 323 q0 168 -88 323.5t-242.5 239.5t-318.5 84t-319 -84t-242.5 -239.5t-87.5 -323.5zM352 716q0 192 140 327t358 135q47 0 76.5 -5.5t110.5 -31.5q23 -8 35 -8q16 0 27.5 9t22.5 36h39l21 -280h-39q-37 119 -114.5 177.5t-188.5 58.5q-83 0 -147 -34t-105 -90 q-30 -44 -50 -115.5t-20 -149.5q0 -212 91.5 -313t240.5 -101q194 0 311 163l38 -19q-140 -204 -383 -204q-201 0 -332.5 130t-131.5 315z" />
<glyph unicode="&#xaa;" horiz-adv-x="903" d="M100 575h151l81 252h240l80 -252h151l-276 859h-150zM367 939l85 265l84 -265h-169z" />
<glyph unicode="&#xab;" horiz-adv-x="726" d="M100 738l280 -306v235l-128 130l128 174v215l-280 -305v-143zM346 738l280 -306v235l-128 130l128 174v215l-280 -305v-143z" />
<glyph unicode="&#xac;" horiz-adv-x="861" d="M100 813v173h661v-505h-156v332h-505z" />
<glyph unicode="&#xad;" horiz-adv-x="755" d="M100 614v213h555v-213h-555z" />
<glyph unicode="&#xae;" horiz-adv-x="1618" d="M100 714q0 183 95 354t265 262t347 91q181 0 350 -91t265 -262t96 -354q0 -186 -94 -354.5t-262.5 -262t-354.5 -93.5q-183 0 -351.5 93.5t-262 262t-93.5 354.5zM161 714q0 -169 86 -323t240 -239.5t320 -85.5q169 0 323.5 85.5t239.5 239.5t85 323q0 168 -86.5 323.5 t-241.5 240t-320 84.5q-161 0 -317 -84.5t-242.5 -240t-86.5 -323.5zM404 283v34q48 0 68.5 11t28.5 34q7 17 7 93v522q0 75 -3 89q-7 22 -26 34.5t-63 12.5v36h386q145 0 220.5 -65.5t75.5 -158.5q0 -75 -51 -133t-170 -89l209 -297q38 -55 68 -73q19 -12 53 -16v-34h-184 l-294 405h-76v-308q6 -34 28.5 -48.5t90.5 -14.5v-34h-368zM653 732q119 0 173 23t83 65t29 94q0 80 -57 135.5t-143 55.5q-40 0 -85 -15v-358z" />
<glyph unicode="&#xaf;" horiz-adv-x="755" d="M100 1637v213h555v-213h-555z" />
<glyph unicode="&#xb0;" horiz-adv-x="683" d="M100 1175q0 100 70.5 171t171.5 71q100 0 170.5 -71t70.5 -171t-70.5 -171t-170.5 -71q-101 0 -171.5 71t-70.5 171zM209 1183q0 -54 38 -92.5t92 -38.5q55 0 93 38.5t38 92.5t-38 92.5t-93 38.5q-54 0 -92 -38.5t-38 -92.5z" />
<glyph unicode="&#xb1;" horiz-adv-x="1109" d="M100 0v226h908v-226h-908zM100 619v226h345v342h226v-342h338v-226h-338v-341h-226v341h-345z" />
<glyph unicode="&#xb2;" horiz-adv-x="739" d="M100 942l8 8l114 120h233l70 61v123l-51 64h-164l-75 -82v-49h-135v96l139 159h292l108 -125v-250l-141 -121h-217l-51 -61l-2 -185h411l-1 -123h-536z" />
<glyph unicode="&#xb3;" horiz-adv-x="754" d="M100 702l120 -125h314l120 125v207l-86 96l86 108v198l-112 128h-330l-112 -128v-122h145v65l70 68h123l71 -68v-125l-57 -57h-117v-136h103l71 -68v-124l-57 -58h-150l-57 58v72h-145v-114z" />
<glyph unicode="&#xb4;" horiz-adv-x="599" d="M100 1465h209l190 253h-225z" />
<glyph unicode="&#xb5;" horiz-adv-x="804" d="M100 -225h142v334q191 -227 333 -41l-3 -70h131v9l1 864h-173q13 -638 -56 -663t-142 19.5t-68 647.5l-164 -1z" />
<glyph unicode="&#xb6;" horiz-adv-x="1144" d="M153 1161.5q-53 -210.5 22.5 -332.5t279.5 -138t257 -11.5t49 4.5v-686h102v1352h66v-1357h115v1450h-155q-496 4 -589.5 -33.5t-146.5 -248z" />
<glyph unicode="&#xb7;" horiz-adv-x="400" d="M100 616h200v210h-200v-210z" />
<glyph unicode="&#xb8;" horiz-adv-x="511" d="M100 -308q178 -63 231 -7t55.5 127t-46.5 86.5l-49 15.5l120 102h-169l-71 -80v-58q18 0 60.5 -31t42 -57.5t-31.5 -35.5t-111 40z" />
<glyph unicode="&#xb9;" horiz-adv-x="562" d="M100 1223l143 215v5h141v-753h78v-112h-314v112h95v575l-36 -40z" />
<glyph unicode="&#xba;" horiz-adv-x="787" d="M100 733l136 -155h315l136 155v580l-133 130h-321l-133 -130v-580zM241 788v440l72 85h161l72 -85v-440l-78 -84h-150z" />
<glyph unicode="&#xbb;" horiz-adv-x="726" d="M100 432l280 306v143l-280 305v-215l128 -174l-128 -130v-235zM346 432l280 306v143l-280 305v-215l128 -174l-128 -130v-235z" />
<glyph unicode="&#xbc;" horiz-adv-x="1429" d="M100 1222l143 215v6h141v-753h78v-112h-314v112h95v574l-36 -40zM167 7h168l861 1449h-156zM695 275v136l337 452h158l1 -458h138v-130h-138l1 -277h-143v277h-354zM855 403l191 -1l3 266z" />
<glyph unicode="&#xbd;" horiz-adv-x="1413" d="M100 1222l143 215v6h141v-753h78v-112h-314v112h95v574l-36 -40zM167 7h168l861 1449h-156zM773 365l8 8l115 120h233l69 61v123l-51 65h-164l-75 -83v-49h-135v96l140 159h292l107 -125v-250l-141 -120h-217l-51 -62l-2 -184h412l-2 -124h-535z" />
<glyph unicode="&#xbe;" horiz-adv-x="1517" d="M100 702l120 -125h314l120 125v207l-86 96l86 108v198l-112 128h-330l-112 -128v-122h145v65l70 68h123l71 -68v-125l-57 -57h-117v-136h103l71 -68v-124l-57 -58h-150l-57 58v72h-145v-114zM255 7h168l861 1449h-156zM783 275v136l337 452h158l1 -458h138v-130h-138 l1 -277h-144v277h-353zM943 403l191 -1l2 266z" />
<glyph unicode="&#xbf;" horiz-adv-x="1098" d="M100 210v417l235 201h123l85 102l1 131h209l1 -226l-13 -13l-191 -200h-144l-116 -102v-204l85 -108h273l125 137v82h225v-160l-232 -265h-487zM515 1194h235v248h-235v-248z" />
<glyph unicode="&#xc0;" horiz-adv-x="1372" d="M100 2h252l134 421h400l134 -421h252l-461 1432h-250zM402 1718l190 -253h209l-174 253h-225zM545 609l141 441l141 -441h-282z" />
<glyph unicode="&#xc1;" horiz-adv-x="1372" d="M100 2h252l134 421h400l134 -421h252l-461 1432h-250zM545 609l141 441l141 -441h-282zM565 1465h209l190 253h-225z" />
<glyph unicode="&#xc2;" horiz-adv-x="1372" d="M100 2h252l134 421h400l134 -421h252l-461 1432h-250zM388 1465h209l91 121l90 -121h209l-174 253h-251zM545 609l141 441l141 -441h-282z" />
<glyph unicode="&#xc3;" horiz-adv-x="1372" d="M100 2h252l134 421h400l134 -421h252l-461 1432h-250zM397 1548l88 -91q42 77 79 99t100.5 -35.5t120.5 -59t96 30t99 110.5l-83 98q-66 -94 -101 -96t-69.5 33.5t-89.5 50.5t-96.5 -6.5t-81.5 -55.5t-62 -78zM545 609l141 441l141 -441h-282z" />
<glyph unicode="&#xc4;" horiz-adv-x="1372" d="M100 2h252l134 421h400l134 -421h252l-461 1432h-250zM406 1497h200v211h-200v-211zM545 609l141 441l141 -441h-282zM747 1498h200v211h-200v-211z" />
<glyph unicode="&#xc5;" horiz-adv-x="1372" d="M100 2h252l134 421h400l134 -421h252l-461 1432h-250zM525 1611q0 64 45.5 109.5t109.5 45.5t109.5 -45.5t45.5 -109.5q0 -65 -45.5 -110t-109.5 -45t-109.5 45t-45.5 110zM545 609l141 441l141 -441h-282zM596 1617q0 -34 24 -58t58 -24t58 24t24 58t-24 58t-58 24 t-58 -24t-24 -58z" />
<glyph unicode="&#xc6;" horiz-adv-x="1808" d="M100 2h217l214 607h244v-607h933v213h-698v399h557v213h-556v399h697v216l-1107 1zM577 795l152 428l46 2v-430h-198z" />
<glyph unicode="&#xc7;" d="M100 259l226 -257h526l226 257v235h-235v-142l-129 -141h-250l-129 141v732l120 142h268l120 -142v-120h235v262l-222 217h-534l-222 -217v-967zM414 -308q178 -63 231 -7t55.5 127t-46.5 86.5l-49 15.5l120 102h-169l-71 -80v-58q18 0 60.5 -31t42 -57.5t-31.5 -35.5 t-111 40z" />
<glyph unicode="&#xc8;" horiz-adv-x="1133" d="M100 2v1440h933v-216h-697v-399h556v-213h-557v-399h698v-213h-933zM348 1718l190 -253h209l-174 253h-225z" />
<glyph unicode="&#xc9;" horiz-adv-x="1133" d="M100 2v1440h933v-216h-697v-399h556v-213h-557v-399h698v-213h-933zM423 1465h209l190 253h-225z" />
<glyph unicode="&#xca;" horiz-adv-x="1133" d="M100 2v1440h933v-216h-697v-399h556v-213h-557v-399h698v-213h-933zM290 1465h209l91 121l90 -121h209l-174 253h-251z" />
<glyph unicode="&#xcb;" horiz-adv-x="1133" d="M100 2v1440h933v-216h-697v-399h556v-213h-557v-399h698v-213h-933zM318 1498h200v211h-200v-211zM659 1499h200v211h-200v-211z" />
<glyph unicode="&#xcc;" horiz-adv-x="605" d="M100 1718l190 -253h209l-174 253h-225zM269 2v1441h236l-1 -1441h-235z" />
<glyph unicode="&#xcd;" horiz-adv-x="599" d="M100 1465h209l190 253h-225zM114 2v1441h236l-1 -1441h-235z" />
<glyph unicode="&#xce;" horiz-adv-x="799" d="M100 1465h209l91 121l90 -121h209l-174 253h-251zM277 2v1441h236l-1 -1441h-235z" />
<glyph unicode="&#xcf;" horiz-adv-x="741" d="M100 1497h200v211h-200v-211zM251 2v1441h236l-1 -1441h-235zM441 1498h200v211h-200v-211z" />
<glyph unicode="&#xd0;" horiz-adv-x="1314" d="M100 614h136v-612h752l226 257v967l-222 217h-756v-616h-136v-213zM471 211v403h139v213h-138v399h387l120 -142v-732l-129 -141h-379z" />
<glyph unicode="&#xd1;" horiz-adv-x="1192" d="M100 2v1441h236l517 -895v895h236l3 -1442l-239 1l-518 887v-887h-235zM312 1548l88 -91q42 77 79 99t100.5 -35.5t120.5 -59t96 30t99 110.5l-83 98q-66 -94 -101 -96t-69.5 33.5t-89.5 50.5t-96.5 -6.5t-81.5 -55.5t-62 -78z" />
<glyph unicode="&#xd2;" d="M100 259l226 -257h526l226 257v967l-222 217h-534l-222 -217v-967zM335 352v732l120 142h268l120 -142v-732l-129 -141h-250zM357 1717l190 -253h209l-174 253h-225z" />
<glyph unicode="&#xd3;" d="M100 259l226 -257h526l226 257v967l-222 217h-534l-222 -217v-967zM335 352v732l120 142h268l120 -142v-732l-129 -141h-250zM428 1465h209l190 253h-225z" />
<glyph unicode="&#xd4;" d="M100 259l226 -257h526l226 257v967l-222 217h-534l-222 -217v-967zM278 1466h209l91 121l90 -121h209l-174 253h-251zM335 352v732l120 142h268l120 -142v-732l-129 -141h-250z" />
<glyph unicode="&#xd5;" d="M100 259l226 -257h526l226 257v967l-222 217h-534l-222 -217v-967zM286 1548l88 -91q42 77 79 99t100.5 -35.5t120.5 -59t96 30t99 110.5l-83 98q-66 -94 -101 -96t-69.5 33.5t-89.5 50.5t-96.5 -6.5t-81.5 -55.5t-62 -78zM335 352v732l120 142h268l120 -142v-732 l-129 -141h-250z" />
<glyph unicode="&#xd6;" d="M100 259l226 -257h526l226 257v967l-222 217h-534l-222 -217v-967zM317 1497h200v211h-200v-211zM335 352v732l120 142h268l120 -142v-732l-129 -141h-250zM658 1498h200v211h-200v-211z" />
<glyph unicode="&#xd7;" horiz-adv-x="1005" d="M100 491l244 244l-242 241l160 160l242 -242l239 239l160 -159l-239 -239l241 -242l-160 -159l-241 241l-244 -244z" />
<glyph unicode="&#xd8;" horiz-adv-x="1304" d="M100 -7h160l57 88l69 -79h526l226 257v967l-46 45l112 172h-160l-50 -77l-78 77h-534l-222 -217v-967l65 -74zM395 447v637l120 142h268l68 -80zM452 289l451 692v-629l-129 -141h-250z" />
<glyph unicode="&#xd9;" d="M100 259l226 -257h526l226 257v1184h-235v-1091l-129 -141h-250l-129 141v1091h-235v-1184zM335 1718l190 -253h209l-174 253h-225z" />
<glyph unicode="&#xda;" d="M100 259l226 -257h526l226 257v1184h-235v-1091l-129 -141h-250l-129 141v1091h-235v-1184zM415 1465h209l190 253h-225z" />
<glyph unicode="&#xdb;" d="M100 259l226 -257h526l226 257v1184h-235v-1091l-129 -141h-250l-129 141v1091h-235v-1184zM264 1465h209l91 121l90 -121h209l-174 253h-251z" />
<glyph unicode="&#xdc;" d="M100 259l226 -257h526l226 257v1184h-235v-1091l-129 -141h-250l-129 141v1091h-235v-1184zM295 1497h200v211h-200v-211zM636 1498h200v211h-200v-211z" />
<glyph unicode="&#xdd;" horiz-adv-x="1300" d="M100 1443h289l261 -473l279 473h271l-429 -707l2 -735h-241l1 735zM476 1465h209l190 253h-225z" />
<glyph unicode="&#xde;" horiz-adv-x="1152" d="M100 2h236l-1 246v51h473l244 232v393l-187 213h-529v306h-236v-1441zM335 525v417h358l118 -114v-207l-96 -96h-380z" />
<glyph unicode="&#xdf;" horiz-adv-x="2195" d="M100 264v160h228v-82l125 -137h241l85 108v203l-116 102h-337l-213 190l-6 6l-7 6v416l178 207h486l231 -264v-160h-224v82l-125 137h-249l-85 -108v-203l116 -102h364l190 -190l6 -6l7 -6v-416l-178 -207h-486zM1200 264v160h228v-82l125 -137h241l85 108v203l-116 102 h-337l-213 190l-6 6l-7 6v416l178 207h486l231 -264v-160h-224v82l-125 137h-249l-85 -108v-203l116 -102h364l190 -190l6 -6l7 -6v-416l-178 -207h-486z" />
<glyph unicode="&#xe0;" horiz-adv-x="1372" d="M100 2h252l134 421h400l134 -421h252l-461 1432h-250zM402 1718l190 -253h209l-174 253h-225zM545 609l141 441l141 -441h-282z" />
<glyph unicode="&#xe1;" horiz-adv-x="1372" d="M100 2h252l134 421h400l134 -421h252l-461 1432h-250zM545 609l141 441l141 -441h-282zM565 1465h209l190 253h-225z" />
<glyph unicode="&#xe2;" horiz-adv-x="1372" d="M100 2h252l134 421h400l134 -421h252l-461 1432h-250zM388 1465h209l91 121l90 -121h209l-174 253h-251zM545 609l141 441l141 -441h-282z" />
<glyph unicode="&#xe3;" horiz-adv-x="1372" d="M100 2h252l134 421h400l134 -421h252l-461 1432h-250zM397 1548l88 -91q42 77 79 99t100.5 -35.5t120.5 -59t96 30t99 110.5l-83 98q-66 -94 -101 -96t-69.5 33.5t-89.5 50.5t-96.5 -6.5t-81.5 -55.5t-62 -78zM545 609l141 441l141 -441h-282z" />
<glyph unicode="&#xe4;" horiz-adv-x="1372" d="M100 2h252l134 421h400l134 -421h252l-461 1432h-250zM406 1497h200v211h-200v-211zM545 609l141 441l141 -441h-282zM747 1498h200v211h-200v-211z" />
<glyph unicode="&#xe5;" horiz-adv-x="1372" d="M100 2h252l134 421h400l134 -421h252l-461 1432h-250zM525 1611q0 64 45.5 109.5t109.5 45.5t109.5 -45.5t45.5 -109.5q0 -65 -45.5 -110t-109.5 -45t-109.5 45t-45.5 110zM545 609l141 441l141 -441h-282zM596 1617q0 -34 24 -58t58 -24t58 24t24 58t-24 58t-58 24 t-58 -24t-24 -58z" />
<glyph unicode="&#xe6;" horiz-adv-x="1808" d="M100 2h217l214 607h244v-607h933v213h-698v399h557v213h-556v399h697v216l-1107 1zM577 795l152 428l46 2v-430h-198z" />
<glyph unicode="&#xe7;" d="M100 259l226 -257h526l226 257v235h-235v-142l-129 -141h-250l-129 141v732l120 142h268l120 -142v-120h235v262l-222 217h-534l-222 -217v-967zM414 -308q178 -63 231 -7t55.5 127t-46.5 86.5l-49 15.5l120 102h-169l-71 -80v-58q18 0 60.5 -31t42 -57.5t-31.5 -35.5 t-111 40z" />
<glyph unicode="&#xe8;" horiz-adv-x="1133" d="M100 2v1440h933v-216h-697v-399h556v-213h-557v-399h698v-213h-933zM348 1718l190 -253h209l-174 253h-225z" />
<glyph unicode="&#xe9;" horiz-adv-x="1133" d="M100 2v1440h933v-216h-697v-399h556v-213h-557v-399h698v-213h-933zM423 1465h209l190 253h-225z" />
<glyph unicode="&#xea;" horiz-adv-x="1133" d="M100 2v1440h933v-216h-697v-399h556v-213h-557v-399h698v-213h-933zM290 1465h209l91 121l90 -121h209l-174 253h-251z" />
<glyph unicode="&#xeb;" horiz-adv-x="1133" d="M100 2v1440h933v-216h-697v-399h556v-213h-557v-399h698v-213h-933zM318 1498h200v211h-200v-211zM659 1499h200v211h-200v-211z" />
<glyph unicode="&#xec;" horiz-adv-x="605" d="M100 1718l190 -253h209l-174 253h-225zM269 2v1441h236l-1 -1441h-235z" />
<glyph unicode="&#xed;" horiz-adv-x="599" d="M100 1465h209l190 253h-225zM114 2v1441h236l-1 -1441h-235z" />
<glyph unicode="&#xee;" horiz-adv-x="799" d="M100 1465h209l91 121l90 -121h209l-174 253h-251zM277 2v1441h236l-1 -1441h-235z" />
<glyph unicode="&#xef;" horiz-adv-x="741" d="M100 1497h200v211h-200v-211zM251 2v1441h236l-1 -1441h-235zM441 1498h200v211h-200v-211z" />
<glyph unicode="&#xf0;" horiz-adv-x="1314" d="M100 614h136v-612h752l226 257v967l-222 217h-756v-616h-136v-213zM471 211v403h139v213h-138v399h387l120 -142v-732l-129 -141h-379z" />
<glyph unicode="&#xf1;" horiz-adv-x="1192" d="M100 2v1441h236l517 -895v895h236l3 -1442l-239 1l-518 887v-887h-235zM312 1548l88 -91q42 77 79 99t100.5 -35.5t120.5 -59t96 30t99 110.5l-83 98q-66 -94 -101 -96t-69.5 33.5t-89.5 50.5t-96.5 -6.5t-81.5 -55.5t-62 -78z" />
<glyph unicode="&#xf2;" d="M100 259l226 -257h526l226 257v967l-222 217h-534l-222 -217v-967zM335 352v732l120 142h268l120 -142v-732l-129 -141h-250zM357 1717l190 -253h209l-174 253h-225z" />
<glyph unicode="&#xf3;" d="M100 259l226 -257h526l226 257v967l-222 217h-534l-222 -217v-967zM335 352v732l120 142h268l120 -142v-732l-129 -141h-250zM428 1465h209l190 253h-225z" />
<glyph unicode="&#xf4;" d="M100 259l226 -257h526l226 257v967l-222 217h-534l-222 -217v-967zM278 1466h209l91 121l90 -121h209l-174 253h-251zM335 352v732l120 142h268l120 -142v-732l-129 -141h-250z" />
<glyph unicode="&#xf5;" d="M100 259l226 -257h526l226 257v967l-222 217h-534l-222 -217v-967zM286 1548l88 -91q42 77 79 99t100.5 -35.5t120.5 -59t96 30t99 110.5l-83 98q-66 -94 -101 -96t-69.5 33.5t-89.5 50.5t-96.5 -6.5t-81.5 -55.5t-62 -78zM335 352v732l120 142h268l120 -142v-732 l-129 -141h-250z" />
<glyph unicode="&#xf6;" d="M100 259l226 -257h526l226 257v967l-222 217h-534l-222 -217v-967zM317 1497h200v211h-200v-211zM335 352v732l120 142h268l120 -142v-732l-129 -141h-250zM658 1498h200v211h-200v-211z" />
<glyph unicode="&#xf7;" horiz-adv-x="1108" d="M100 619v226h908v-226h-908zM437 221h235v248h-235v-248zM437 995h235v248h-235v-248z" />
<glyph unicode="&#xf8;" horiz-adv-x="1304" d="M100 -7h160l57 88l69 -79h526l226 257v967l-46 45l112 172h-160l-50 -77l-78 77h-534l-222 -217v-967l65 -74zM395 447v637l120 142h268l68 -80zM452 289l451 692v-629l-129 -141h-250z" />
<glyph unicode="&#xf9;" d="M100 259l226 -257h526l226 257v1184h-235v-1091l-129 -141h-250l-129 141v1091h-235v-1184zM335 1718l190 -253h209l-174 253h-225z" />
<glyph unicode="&#xfa;" d="M100 259l226 -257h526l226 257v1184h-235v-1091l-129 -141h-250l-129 141v1091h-235v-1184zM415 1465h209l190 253h-225z" />
<glyph unicode="&#xfb;" d="M100 259l226 -257h526l226 257v1184h-235v-1091l-129 -141h-250l-129 141v1091h-235v-1184zM264 1465h209l91 121l90 -121h209l-174 253h-251z" />
<glyph unicode="&#xfc;" d="M100 259l226 -257h526l226 257v1184h-235v-1091l-129 -141h-250l-129 141v1091h-235v-1184zM295 1497h200v211h-200v-211zM636 1498h200v211h-200v-211z" />
<glyph unicode="&#xfd;" horiz-adv-x="1300" d="M100 1443h289l261 -473l279 473h271l-429 -707l2 -735h-241l1 735zM476 1465h209l190 253h-225z" />
<glyph unicode="&#xfe;" horiz-adv-x="1152" d="M100 2h236l-1 246v51h473l244 232v393l-187 213h-529v306h-236v-1441zM335 525v417h358l118 -114v-207l-96 -96h-380z" />
<glyph unicode="&#xff;" horiz-adv-x="1300" d="M100 1443h289l261 -473l279 473h271l-429 -707l2 -735h-241l1 735zM353 1497h200v211h-200v-211zM694 1498h200v211h-200v-211z" />
<glyph unicode="&#x2c6;" horiz-adv-x="799" d="M100 1465h209l91 121l90 -121h209l-174 253h-251z" />
<glyph unicode="&#x2dc;" horiz-adv-x="783" d="M100 1548l88 -91q42 77 79 99t100.5 -35.5t120.5 -59t96 30t99 110.5l-83 98q-66 -94 -101 -96t-69.5 33.5t-89.5 50.5t-96.5 -6.5t-81.5 -55.5t-62 -78z" />
<glyph unicode="&#x2000;" horiz-adv-x="925" />
<glyph unicode="&#x2001;" horiz-adv-x="1850" />
<glyph unicode="&#x2002;" horiz-adv-x="925" />
<glyph unicode="&#x2003;" horiz-adv-x="1850" />
<glyph unicode="&#x2004;" horiz-adv-x="616" />
<glyph unicode="&#x2005;" horiz-adv-x="462" />
<glyph unicode="&#x2006;" horiz-adv-x="308" />
<glyph unicode="&#x2007;" horiz-adv-x="308" />
<glyph unicode="&#x2008;" horiz-adv-x="231" />
<glyph unicode="&#x2009;" horiz-adv-x="370" />
<glyph unicode="&#x200a;" horiz-adv-x="102" />
<glyph unicode="&#x2010;" horiz-adv-x="755" d="M100 614v213h555v-213h-555z" />
<glyph unicode="&#x2011;" horiz-adv-x="755" d="M100 614v213h555v-213h-555z" />
<glyph unicode="&#x2012;" horiz-adv-x="755" d="M100 614v213h555v-213h-555z" />
<glyph unicode="&#x2013;" horiz-adv-x="1091" d="M100 720v151h891v-151h-891z" />
<glyph unicode="&#x2014;" horiz-adv-x="1446" d="M100 720v151h1246v-151h-1246z" />
<glyph unicode="&#x2018;" horiz-adv-x="437" d="M100 1119l111 -92h124v80h-91l-53 44v44h146v248h-235z" />
<glyph unicode="&#x2019;" horiz-adv-x="437" d="M100 1195h146v-44l-53 -44h-91v-80h124l111 92l-2 324h-235v-248z" />
<glyph unicode="&#x201a;" horiz-adv-x="437" d="M100 -40h146v-44l-53 -44h-91v-80h124l111 92l-2 324h-235v-248z" />
<glyph unicode="&#x201c;" horiz-adv-x="769" d="M100 1119l111 -92h124v80h-91l-53 44v44h146v248h-235zM432 1119l111 -92h124v80h-91l-53 44v44h146v248h-235z" />
<glyph unicode="&#x201d;" horiz-adv-x="769" d="M100 1195h146v-44l-53 -44h-91v-80h124l111 92l-2 324h-235v-248zM432 1195h146v-44l-53 -44h-91v-80h124l111 92l-2 324h-235v-248z" />
<glyph unicode="&#x201e;" horiz-adv-x="769" d="M100 -40h146v-44l-53 -44h-91v-80h124l111 92l-2 324h-235v-248zM432 -40h146v-44l-53 -44h-91v-80h124l111 92l-2 324h-235v-248z" />
<glyph unicode="&#x2022;" horiz-adv-x="683" d="M100 758q0 100 70.5 171t171.5 71q100 0 170.5 -71t70.5 -171t-70.5 -171t-170.5 -71q-101 0 -171.5 71t-70.5 171z" />
<glyph unicode="&#x2026;" horiz-adv-x="1801" d="M100 2h235v248h-235v-248zM783 2h235v248h-235v-248zM1466 2h235v248h-235v-248z" />
<glyph unicode="&#x202f;" horiz-adv-x="370" />
<glyph unicode="&#x2039;" horiz-adv-x="480" d="M100 738l280 -306v235l-128 130l128 174v215l-280 -305v-143z" />
<glyph unicode="&#x203a;" horiz-adv-x="480" d="M100 432l280 306v143l-280 305v-215l128 -174l-128 -130v-235z" />
<glyph unicode="&#x205f;" horiz-adv-x="462" />
<glyph unicode="&#x20ac;" horiz-adv-x="1313" d="M100 503v169h135v129h-135v169h135v256l222 217h534l222 -217v-262h-235v120l-120 142h-268l-120 -142v-114h144v-169h-144v-129h144v-169h-144v-151l129 -141h250l129 141v142h235v-235l-226 -257h-526l-226 257v244h-135z" />
<glyph unicode="&#x2122;" horiz-adv-x="1171" d="M100 1361v82h432v-82h-162v-493h-106v493h-164zM532 867h106v405l128 -405h89l110 387v-387h106v576h-156l-104 -352l-119 352h-160v-576z" />
<glyph unicode="&#x25fc;" horiz-adv-x="1445" d="M0 0v1445h1445v-1445h-1445z" />
</font>
</defs>
</svg>
