<svg xmlns="http://www.w3.org/2000/svg"><symbol viewBox="0 0 170 25" id="eb-logo"><title>eb-logo</title><g fill="none" fill-rule="evenodd"><path d="M36.554 12.564c.566.2 1.07.372 1.567.558.56.21 1.083.487 1.533.886.882.78 1.055 1.794.468 2.814-.526.914-1.306 1.578-2.188 2.127-1.593.99-3.352 1.628-5.073 2.343-1.735.72-3.484 1.405-5.284 1.953-.31.095-.69.168-.752.616-.028.194-.21.108-.323.093-.93-.12-1.58-.957-1.47-1.98.142-1.337.863-2.293 2.125-2.765 1.055-.393 2.145-.693 3.215-1.047 1.605-.532 3.18-1.148 4.73-1.826.052-.023.105-.045.155-.075.298-.175.683-.327.64-.736-.045-.437-.452-.58-.82-.668-.978-.237-1.977-.236-2.977-.19-.13.007-.26.012-.39.013-.894.004-1.07-.13-1.273-1-.052-.226-.082-.458-.1-.688-.073-.904.26-1.605 1.05-2.08 1.19-.717 2.406-1.383 3.665-1.97 1.48-.69 2.987-1.326 4.392-2.167.297-.178.583-.376.87-.572.127-.088.304-.183.247-.366-.054-.17-.25-.183-.404-.197-.655-.06-1.3.03-1.946.125-2.44.356-4.798 1.058-7.186 1.638-.317.077-.747.024-.922.287-.176.266.155.58.22.886.197.915.2 1.807-.233 2.668-.897 1.786-1.934 3.49-3.046 5.147-.823 1.227-1.65 2.45-2.487 3.666-.632.916-1.99.8-2.503-.208-.434-.856-.418-1.727-.055-2.6.273-.662.67-1.25 1.105-1.812 1.692-2.18 3.002-4.6 4.358-6.99.1-.173.09-.272-.06-.4-.5-.428-.626-.96-.495-1.603.333-1.634 1.17-2.767 2.837-3.28 3.484-1.07 7.03-1.4 10.64-.985 1.145.13 2.235.483 3.156 1.224 1.127.907 1.443 2.277.813 3.587-.323.672-.78 1.256-1.362 1.724-1.946 1.563-3.996 2.96-6.436 3.85zM.23 14.072c.452.774 1.132 1.17 2.02 1.228.216.014.43.045.647.063.173.015.237.107.178.264-.25.666-.14 1.346-.057 2.018.257 2.104 1.844 3.262 3.62 3.445.833.085 1.678.034 2.517-.023 2.707-.188 5.348-.818 8.03-1.166.75-.096 1.1-.6.978-1.352-.155-.96-.83-1.462-1.667-1.77-1.19-.44-2.432-.327-3.655-.22-1.6.14-3.193.354-4.79.525-.52.055-1.042.055-1.557-.058-.516-.114-.68-.34-.503-.834.26-.715.578-1.404 1.51-1.443.2-.008.396-.08.595-.116 4.236-.794 8.44-1.772 12.736-2.225 1.02-.108 2.04-.277 2.996-.68.886-.372 1.098-.964.638-1.812-.462-.852-1.177-1.375-2.147-1.52-.735-.11-1.477-.083-2.213-.048-2.723.13-5.41.566-8.098.99-.495.077-.987.213-1.563.21.382-.407.69-.772 1.037-1.096.375-.35.388-.752.252-1.193-.047-.15-.117-.293-.183-.453.236-.058.46-.106.682-.168 2.88-.815 5.766-1.604 8.708-2.17 1.483-.285 2.972-.506 4.466-.055.467.14.917.113 1.23-.28.316-.397.364-.863.128-1.345-.297-.605-.746-1.063-1.303-1.422-1.23-.792-2.605-.9-4.01-.826-2.25.118-4.442.593-6.618 1.147-3.337.85-6.594 1.954-9.838 3.1-.586.207-1.21.346-1.767-.125-.15-.128-.236-.018-.33.067-.262.23-.303.55-.356.864-.21 1.257.424 2.85 2.285 2.746.783-.044 1.555-.13 2.3-.396.154-.055.35-.12.45.005.135.17-.092.273-.178.385-.626.816-1.265 1.62-1.896 2.433-.097.125-.18.253-.345.31-1.277.44-2.56.844-3.938.658-.25-.033-.406.053-.556.24-.23.29-.277.652-.43.972v1.13zM28.75 24.768c-.226-.19-.448-.392-.312-.725.133-.325.417-.417.747-.406.13.004.26 0 .39 0h131.34c.572 0 .62-.005.56-.57-.07-.628.192-.99.672-1.356 1.8-1.365 3.565-2.774 5.343-4.17.08-.06.152-.13.246-.213-.2-.195-.455-.27-.688-.346-.393-.125-.494-.284-.348-.71.384-1.12.703-2.262 1.048-3.396.032-.107.09-.21.043-.364-1.047.27-2.096.522-3.135.814-.292.083-.413.02-.516-.248-.16-.418-.355-.822-.564-1.3l-5.703 6.364 1.922-10.94c-.56.347-1.08.643-1.57.982-.266.183-.364.128-.5-.143-.87-1.747-1.755-3.485-2.668-5.29l-1.172 2.296c-.4.787-.806 1.57-1.188 2.365-.114.24-.21.244-.412.11-.518-.34-1.047-.66-1.655-1.04.152.908.27 1.732.434 2.548.073.364.02.55-.39.542-.14-.003-.285.046-.427.07-.147.026-.246.002-.275-.178-.286-1.736-.58-3.47-.884-5.294.916.573 1.77 1.085 2.596 1.636.34.228.473.18.652-.186.8-1.637 1.632-3.258 2.454-4.884.078-.154.166-.304.27-.496.515 1.012 1.014 1.986 1.507 2.963.54 1.072 1.09 2.14 1.61 3.22.14.292.25.298.503.135.86-.555 1.734-1.088 2.675-1.674l-1.673 9.527 4.227-4.712c.322.735.633 1.413.915 2.104.092.225.188.257.413.197 1.284-.344 2.574-.672 3.862-1.004.122-.03.247-.054.44-.096l-.754 2.476c-.244.802-.472 1.61-.74 2.404-.102.295-.028.406.245.5.57.195 1.08.545 1.68.665v.174c-.053.015-.115.017-.155.048-2.33 1.825-4.658 3.653-6.987 5.48-.104.082-.208.157-.202.31.023.605-.05 1.21.038 1.814H28.75zm-4.607 0c.27-.168.518-.36.39-.727-.12-.347-.425-.398-.744-.402h-.348c-6.953 0-13.905-.002-20.857.003-.37.002-.864-.165-1.077.08-.182.21-.052.688-.06 1.048h22.695z" fill="#EC1D25"/><path d="M91.4 8.63c-.438 1.085-.847 2.094-1.253 3.103-1.388 3.456-2.78 6.91-4.157 10.37-.095.24-.197.33-.46.324-.824-.018-1.65-.007-2.54-.007.264-.652.513-1.272.764-1.89 1.42-3.492 2.84-6.98 4.256-10.473.272-.67.482-1.36.578-2.08.19-1.416-.088-2.602-1.573-3.188.075-.18.21-.105.307-.105 3.52-.005 7.043 0 10.564-.01.323-.003.375.1.343.388-.314 2.805-.617 5.612-.92 8.418-.052.475-.1.95-.148 1.427.16.018.172-.107.22-.18 2.124-3.242 4.244-6.485 6.367-9.728.107-.166.188-.328.453-.326 2.694.012 5.39.007 8.133.007-.365 1.017-.715 2.006-1.072 2.99-1.735 4.792-3.476 9.582-5.2 14.377-.107.294-.24.383-.548.38-2.143-.014-4.286-.007-6.493-.007l4.988-13.773-.093-.046c-.633.96-1.267 1.917-1.898 2.876-2.345 3.565-4.69 7.128-7.025 10.698-.13.2-.27.253-.493.25-1.348-.01-2.695-.008-4.043 0-.26.002-.376-.01-.34-.343.358-3.28.693-6.563 1.034-9.845l.3-2.937c.02-.195.022-.388-.054-.668zM56.13 22.095c.006.24.09.318.334.316 1.507-.01 3.014-.01 4.52.002.215 0 .303-.077.374-.263 1.04-2.725 2.082-5.447 3.135-8.166.104-.267.05-.31-.214-.308-3 .007-6 .006-8.998.002-.195 0-.31.036-.387.247-.228.638-.48 1.27-.738 1.896-.112.273-.015.306.23.3.71-.012 1.42 0 2.13-.006.205-.002.308.033.213.266-.174.428-.312.872-.51 1.29-.846 1.797-2.832 2.745-4.642 2.23-.86-.242-1.28-.865-1.204-1.753.036-.423.155-.823.305-1.214.618-1.618 1.238-3.234 1.862-4.85.4-1.037.753-2.093 1.354-3.04 1.08-1.704 2.696-2.313 4.636-1.92.84.17 1.2.74 1.11 1.59-.035.35-.123.68-.247 1.007-.193.51-.387 1.017-.592 1.555.13.007.212.014.296.014 2.042 0 4.085-.004 6.128.006.2 0 .24-.117.288-.25.195-.527.41-1.05.577-1.586.63-2.03-.046-3.483-2.008-4.31-.384-.16-.786-.3-1.194-.38-3.66-.712-7.315-.663-10.925.277-2.547.664-4.398 2.24-5.54 4.628-.393.82-.698 1.678-1.015 2.53-.584 1.57-1.3 3.092-1.736 4.71-.726 2.69.413 4.66 3.09 5.417 1.38.39 2.79.472 4.215.392 1.76-.1 3.48-.354 5.053-1.352.038.267.092.494.097.723zM148.1 9.482c.2 0 .262-.09.325-.264.464-1.275.1-2.58-.976-3.42-.662-.516-1.42-.83-2.225-1.033-2.064-.522-4.156-.522-6.254-.3-1.81.192-3.558.622-5.155 1.535-1.553.887-2.7 2.112-3.182 3.883-.465 1.71.003 3.01 1.47 3.987.36.24.746.446 1.136.632.94.45 1.935.755 2.906 1.126.65.248 1.29.514 1.82.985.34.303.56.68.502 1.145-.093.75-.402 1.414-1.09 1.783-1.227.657-2.504.653-3.756.075-.63-.29-.882-.925-.733-1.604.057-.263.15-.52.234-.807h-5.365c-.1 0-.19-.005-.25.114-.504.978-.706 2.438.16 3.48.568.68 1.316 1.08 2.137 1.348 1.83.6 3.72.664 5.622.58 1.99-.087 3.943-.385 5.79-1.177 2.012-.864 3.6-2.178 4.422-4.28.853-2.188.167-3.987-1.916-5.043-.956-.485-1.97-.825-2.976-1.182-.72-.256-1.466-.45-2.115-.877-.743-.488-.916-1.166-.494-1.95.213-.395.532-.684.94-.865.84-.368 1.71-.427 2.59-.197.685.18 1.093.64 1.143 1.26.03.352-.088.683-.23 1.065 1.867 0 3.692-.002 5.516.004zM65.473 22.426c.244.003.39-.07.527-.277.795-1.192 1.612-2.367 2.406-3.56.144-.215.292-.307.557-.306 2.072.01 4.144.015 6.215 0 .33-.004.377.102.35.394-.104 1.138-.175 2.28-.288 3.417-.028.286.044.332.306.33 1.927-.01 3.854-.01 5.78 0 .254.003.354-.055.373-.324.137-1.962.29-3.923.438-5.885.283-3.707.563-7.415.86-11.12.027-.35-.06-.423-.4-.422-3.577.013-7.156.007-10.734.01-.133 0-.278-.044-.423.054.04.047.057.092.088.104.917.366 1.364 1.294 1.06 2.462-.22.84-.66 1.568-1.15 2.27l-6.362 9.104c-.858 1.228-1.712 2.458-2.608 3.745 1.048 0 2.027-.008 3.006.006zm10.82-12.708L75.79 15.6c-.016.196.027.395-.303.392-1.736-.014-3.473-.006-5.288-.006l6.23-9.12c.03.006.06.01.092.017-.076.945-.15 1.89-.23 2.835zm41.575 10.108c-.476 0-.475 0-.298-.46.577-1.494 1.164-2.984 1.724-4.486.11-.294.25-.382.557-.38 1.97.014 3.94.003 5.91.013.248 0 .382-.055.468-.308.223-.656.463-1.306.728-1.946.133-.32.03-.354-.26-.352-1.55.01-3.1.005-4.65.005H120.5c-.044-.194.052-.32.1-.45.485-1.267.988-2.527 1.46-3.8.118-.32.27-.428.62-.425 2.522.018 5.043.01 7.564.006.144 0 .338.087.42-.12.313-.8.618-1.605.928-2.41h-18.19c.065.07.086.112.12.125.88.355 1.262 1.043 1.334 1.956.072.928-.106 1.822-.426 2.677-1.14 3.04-2.31 6.07-3.466 9.106l-1.467 3.84h12.033c.984 0 1.97.002 2.954-.002.146 0 .3.055.383-.17.294-.795.613-1.583.94-2.422h-7.94z" fill="#010101"/></g></symbol><symbol viewBox="0 0 93.068 130.355" id="esrb"><title>esrb</title><path fill="#FFF" d="M91.426.927H.98V129.44h91.11V.927"/><path d="M3.364 3.346h86.358v123.728H3.364z"/><path fill="#FFF" d="M7.92 23.726h77.185v76.75H7.92z"/><path d="M92.41 0H0v130.355h93.068V0h-.657zm-.667 129.098H1.326V1.258h90.417V129.1z"/><path fill="#FFF" d="M11.857 108.098c-.012.13-.02.268-.03.396-.068 1.253-.5 2.217-1.99 2.217-2.196 0-2.33-1.337-2.33-3.17v-.98c.055-1.758.2-3.048 2.33-3.048 1.186.012 1.855.602 1.947 1.776.024.165.042.353.03.523H10.5c-.055-.44-.012-1.27-.663-1.27-1.053 0-.96 1.208-.96 1.746v1.892c0 .57.047 1.49.96 1.49.73 0 .65-1.125.675-1.57h1.345zM12.86 106.56c.055-1.76.2-3.05 2.33-3.05 2.137 0 2.276 1.29 2.33 3.05v.978c0 1.834-.14 3.176-2.33 3.176s-2.33-1.34-2.33-3.176v-.98zm1.37 1.62c0 .568.042 1.487.96 1.487.95 0 .962-.937.962-1.6v-1.752c0-.548.03-1.773-.96-1.773-1.047 0-.962 1.208-.962 1.743v1.895zM21.938 103.678h1.338v6.865h-1.393l-1.046-2.446c-.347-.815-.633-1.643-.95-2.73h-.018c.048.576.103 1.264.145 1.97.037.68.067 1.36.067 1.912v1.293H18.75v-6.865h1.38l1.035 2.503c.34.792.632 1.607.955 2.727h.02c-.05-.62-.098-1.296-.135-1.953-.037-.657-.067-1.314-.067-1.93v-1.346zM24.085 103.678h4.448v1.01H26.98v5.855h-1.337v-5.855h-1.558M29.293 110.543v-6.865h3.76v1.01H30.63v1.728h2.234v1.01H30.63v2.114h2.423v1.003M37.293 103.678h1.333v6.865h-1.393l-1.034-2.446c-.354-.815-.64-1.643-.956-2.73h-.02c.05.576.105 1.264.147 1.97.043.68.068 1.36.068 1.912v1.293H34.1v-6.865h1.38l1.042 2.503c.347.792.626 1.607.955 2.727h.02c-.05-.62-.1-1.296-.135-1.953-.037-.657-.067-1.314-.067-1.93v-1.346h-.002zM39.44 103.678h4.448v1.01H42.33v5.855H41v-5.855h-1.56M48.39 107.58v2.963h-1.338v-6.868h2.525c1.156 0 2.026.383 2.026 1.648 0 .75-.195 1.533-1.09 1.655v.024c.792.1 1.03.578 1.03 1.247 0 .276-.038 1.957.284 2.165v.128h-1.472c-.158-.438-.127-1.29-.14-1.733-.006-.426 0-.998-.456-1.132-.366-.104-.75-.098-1.133-.098h-.237zm0-1.003h1.047c.438-.024.778-.292.778-.992 0-.766-.334-.894-.833-.9h-.992v1.892zM52.332 110.543l1.71-6.862h1.793l1.62 6.863H56.03l-.352-1.737h-1.563l-.353 1.737h-1.43zm1.99-2.743h1.143l-.36-1.953c-.065-.322-.09-.626-.133-.95-.012-.164-.024-.315-.048-.46h-.012c-.03.145-.037.297-.05.46-.048.323-.078.627-.14.95l-.4 1.953zM57.71 103.678h4.448v1.01h-1.552v5.855h-1.338v-5.855H57.71M62.924 110.543v-6.865h3.753v1.01h-2.415v1.728h2.22v1.01h-2.22v2.114h2.415v1.003M67.766 110.543v-6.865h2.78c.323 0 .974.13 1.382.77.304.48.383 1.247.383 2.372 0 1.357 0 2.927-1.088 3.553-.292.152-.657.17-.992.17h-2.464zm1.91-1.006c1.193 0 1.272-.605 1.272-2.59 0-1.63-.177-2.262-.973-2.262H69.1v4.852h.577zM75.906 110.543v-6.868h2.148c.578 0 1.144.03 1.515.505.303.377.358.767.358 1.23 0 .595-.14 1.186-.857 1.44v.02c.743.103 1.035.705 1.035 1.6 0 .28-.018.56-.097.836-.286.873-.803 1.238-1.746 1.238h-2.356zm1.613-1.01c.28 0 .565.028.81-.066.358-.16.4-.614.4-.955 0-.736-.15-1.06-.973-1.06h-.517v2.082h.28zm-.038-3.08c.33 0 .742.017.956-.248.122-.176.14-.404.14-.742 0-.505-.11-.76-.725-.772h-.614v1.762h.242zM82.91 105.476c.14.34.255.694.31 1.056h.023c.098-.536.28-.916.438-1.293l.633-1.56h1.46l-1.886 3.944v2.92h-1.332v-2.92l-1.855-3.946h1.454l.755 1.798zM7.745 122.717V112.57H22.15v2.375h-8.62v1.45h7.295v2.362H13.53v1.594h8.955v2.367M36.97 115.52c-.09-.34-.413-.566-.832-.688-.414-.128-.925-.188-1.497-.188-1.27 0-1.843.22-1.843.587 0 1.513 10.16.576 10.16 4.257 0 2.354-3.413 3.498-8.268 3.498-4.66 0-7.703-1.558-7.825-3.39h5.542c.122.366.468.634.96.797.463.17 1.072.256 1.644.256 1.45 0 2.41-.268 2.41-.746 0-1.536-10.166-.483-10.166-4.353 0-2.16 3.243-3.244 7.66-3.244 4.903 0 7.136 1.442 7.556 3.212h-5.5v.002zM53.52 119.186v3.532h-5.793V112.57h8.34c5.884 0 7.825.925 7.825 2.896 0 1.174-.906 2.147-2.963 2.482 1.86.396 2.992.64 2.992 2.69 0 1.32-.08 1.772.608 1.772v.308h-5.864c-.146-.225-.292-.876-.292-1.777 0-1.325-.396-1.754-3.09-1.754H53.52zm0-2.224h2.274c1.794 0 2.75-.265 2.75-.967 0-.71-.974-1.053-2.33-1.053h-2.696v2.02zM69.543 122.717V112.57h8.438c3.98 0 7.144.543 7.144 2.554 0 1.046-1.18 1.807-2.306 2.208 1.91.28 2.938 1.232 2.938 2.324 0 2.27-3.01 3.06-7.604 3.06h-8.61zm5.786-4.234v1.868h2.523c1.43 0 2.507-.17 2.507-.93 0-.888-1.345-.937-3.194-.937H75.33zm0-3.538v1.692h2.408c1.15 0 1.99-.302 1.99-.89 0-.79-1.138-.802-2.354-.802H75.33z"/><path d="M10.19 30.588c0-2.233 1.983-4.052 4.465-4.052 2.458 0 4.435 1.82 4.435 4.052 0 2.257-1.978 4.08-4.435 4.08-2.482 0-4.465-1.823-4.465-4.08m8.116 0c0-1.837-1.625-3.334-3.65-3.334-2.032 0-3.68 1.497-3.68 3.334 0 1.855 1.648 3.364 3.68 3.364 2.026 0 3.65-1.508 3.65-3.364m-4.6.284v2.06h-.814v-4.795h1.698c.96 0 1.935.237 1.935 1.326 0 .544-.353.985-1.046 1.12v.02c.705.125.802.43.88.946.08.45.13.948.312 1.38h-1.047c-.06-.268-.14-.584-.176-.86-.05-.41-.05-.798-.293-1.014-.2-.185-.474-.164-.76-.185l-.69.002m.87-.755c.76-.02.95-.325.95-.678 0-.36-.19-.554-.84-.554h-.98v1.23h.87z"/><path fill="#FFF" d="M81.74 17.6v-2.69h3.93v-2.488h-3.93V10.12h4.06V7.61h-7.205v12.472h7.228V17.6M73.63 14.588h-.047L71.15 7.61h-3.232v12.475h2.98l-.284-6.945.036-.033 2.44 6.978h3.218V7.61h-2.98M61.81 7.39c-2.75 0-4.282 1.327-4.282 3.712v5.086c0 2.81 1.1 4.27 4.283 4.27 3.19 0 4.235-1.46 4.235-4.27v-5.085c0-2.386-1.49-3.712-4.234-3.712m1.084 9.042c0 .72-.073 1.776-1.083 1.776-1.015 0-1.148-1.056-1.148-1.776v-5.116c0-.773.133-1.683 1.13-1.683 1.03 0 1.103.91 1.103 1.683v5.116zM51.432 11.695h-.043L49.812 7.61h-3.175l3.163 7.234v5.238h3.14v-5.238l3.237-7.234h-3.14M45.494 15.556c-.048-.864-.675-1.43-1.545-1.603V13.9c1.32-.54 1.66-1.505 1.66-2.834 0-2.47-1.295-3.456-3.857-3.456h-4.6v12.477H40.3V15.16h1.046c.73.064.967.554 1.07 1.326.08.767.006 1.795.067 2.893.012.24.085.477.176.707h3.43v-.164c-.15-.113-.242-.252-.303-.417-.178-.805-.202-2.953-.293-3.95m-4.124-2.632H40.3V9.867c1.54-.024 2.195.024 2.195 1.502 0 .78-.213 1.554-1.125 1.554M31.07 14.91h3.936v-2.488H31.07V10.12h4.07V7.613h-7.21v12.472h7.41V17.6h-4.27M21.615 16.364h-.036L19.972 7.61h-3.145l2.907 12.477h3.7L26.373 7.61h-3.145M11.28 14.91h3.966v-2.488H11.28V10.12h4.094V7.613H8.122v12.472h7.464V17.6H11.28"/><path d="M16.7 38.546L64.414 26.46l4.375 15.444-28.133 7.133 1.802 6.318 28.124-7.118 4.386 15.447-28.143 7.124 1.88 6.66 28.142-7.126 4.374 15.447-47.71 12.084"/></symbol><symbol viewBox="0 0 286 192.319" id="mario-logo"><title>mario-logo</title><path fill-rule="evenodd" clip-rule="evenodd" d="M0 56.074h10.485c5.292 5.3 10.584 10.596 15.754 15.77L41.89 56.193h10.652c-1.168 5.084-.372 10.26-.512 15.394-.145 5.32-.032 10.65-.032 15.976v31.42h-8.99V71.017c-3.39.196-3.374 3.434-5.126 4.86-1.745 1.424-3.593 2.845-5.026 4.733-1.495 1.97-3.47 3.576-5.297 5.402h-2.148c-4.79-4.942-10.066-9.72-15.4-16.226-.02 9.198-.01 17.12-.01 25.04-.003 7.97 0 15.937 0 24.075H1v-3.616c0-18.475.015-36.95-.05-55.423-.004-.912.995-2.435-.952-2.786v-1zm0 75c1.673.178.964 1.49.968 2.29.047 11.317.032 22.634.032 33.95 0 7.324.01 14.647-.015 21.97-.002.722.39 1.776-.985 1.79v1h10c0-15.66 0-30.97.008-46.278 0-.14.1-.297.194-.413.088-.108.23-.174.347-.26 4.948 4.95 9.896 9.898 14.897 14.898h2.366c1.46-1.537 3.154-3.356 4.888-5.138 1.627-1.672 3.082-3.64 5.002-4.863 2.06-1.313 1.833-4.69 5.18-5.063v46.9h9.117v-15.69-15.495c0-5.165-.127-10.334.035-15.494.157-4.98-.748-10.013.64-15.008H42.018l-15.715 15.715-15.807-15.81H0v1zm0-123c.283.116.81.228.812.35.046 2.767.046 5.534 0 8.302-.002.12-.53.232-.812.348v1c2.553 2.304 5.106 4.607 7.778 7.02H19.65c1.05 1.638 2.19 3.28 4.205 4.054v4.572l-4.25 4.25h-7.757l-3.733-3.896H0v1l.83.67-.83.33v1l7.72 6.967h15.813l6.43-6.43V25.942l-6.94-6.94H11.43c-1.486-1.484-2.9-2.898-4.313-4.312v-4.233l4.218-4.217h8.958l3.61 3.727h5.955V6.434L23.64.217H7.607L0 7.074v1zm286 181c-1.37 1.006-1.37 1.994 0 3v-3zm0-2v-1c-.758.15-1.914-.496-2 1h2zM214.68 56.25l-16.435 16.435c1.454 2.18.587 4.71.72 7.09.15 2.654.035 5.323.035 7.985 0 2.496.098 4.997-.027 7.486-.125 2.51.67 5.134-.8 7.502l16.21 16.208h25.234c5.53-5.53 10.943-10.94 16.355-16.355-.216-.234-.623-.47-.623-.704-.033-10.105-.028-20.21-.028-29.91l-15.69-15.735H214.68zm25.425 47.22c-.073 3.013-3.84 3-4.53 5.56H218.81l-10.783-10.78V76.817l10.744-10.73h16.67c3.478 3.515 6.978 7.05 10.56 10.667V98.96c-1.822 1.394-3.858 2.95-5.895 4.51zM131 118.897c0-8.81 0-17.446.008-26.082 0-.142.09-.3.18-.42.095-.126.24-.216.35-.31h14.814c2.118 1.942 4.137 3.794 6.648 6.1 0 6.172 0 13.14.006 20.105 0 .146.073.306.152.433.086.14.22.246.154.176h8.596V92.31l-4.876-4.183v-1.124c1.84-1.574 3.42-2.925 4.825-4.124V66.524l-10.21-10.273h-30.57V118.9c3.55-.002 6.67-.002 9.923-.002zm21.988-42.312l-6.382 6.382h-15.463V66.3h16.37c1.522 1.577 3.246 3.36 5.475 5.664v4.622zm103.817 94.794c2.14 6.084.773 12.192 1.2 17.415l-1.047 3.15h9.92V166.29l-4.855-4.165V160.3c3.43.242 2.666-3.815 4.896-4.63V140.49l-10.316-10.314h-30.437v61.96c3.06-.23 5.973.18 9.007-.254v-25.732h16.404l5.227 5.228zM235 140.6c.11-.12.208-.263.34-.354.122-.086.282-.165.426-.165 5.492-.007 10.982-.006 16.232-.006 1.627 1.634 3.136 3.15 5.15 5.176.18.562-.823 2.267.56 3.123l-1.067 3.56c-1.422 1.424-3.187 3.188-5.14 5.142H235V140.6zM91.063 56.163h-9.04L66 72.188c0 15.176 0 30.658.007 46.142 0 .142.09.3.178.42.095.128.238.22.466.417 2.985-.842 6.526 1.356 9.325-1.45-1.217-2.626-1.46-10.417-.64-19.48l1.164-1.162c6.04 0 12.187-.04 18.332.04 1.03.012 2.053.533 3.306.883v20.912h8.777V72.015c-5.486-5.487-10.648-10.65-15.852-15.852zM75.045 86.62v-8.83L86.91 65.935c2.16 1.208 3.7 3.393 5.586 5.16 1.822 1.706 3.545 3.52 5.407 5.382V87.9H76.327l-1.282-1.28zM66.17 191.977h8.697v-19.27l1.482-1.482H96.65l1.386 1.386v19.255h8.834v-46.42l-15.22-15.22h-10.3c-5.22 5.218-10.286 10.283-15.18 15.178v46.573zm8.904-39.757l11.647-11.645 11.158 11.157v10.215H75.074v-9.726zm59.395 17.823c2.37.362 3.896 2.307 4.712 3.97 1.036 2.11 3.23 2.57 4.242 4.16 1.148 1.804 3.644 2.247 4.18 4.14.607 2.14 3.78 1.893 3.574 4.44 2.143.642 3.486 2.083 4.262 4.52 1.99.322 4.12.67 6.443 1.047v-9.863c-7.176-7.175-14.325-14.39-21.573-21.502-1.075-1.055-1.52-2.047-1.3-3.138 1.137-.95 2.125-1.668 2.968-2.526.534-.543.696-1.566 1.292-1.915 3.406-1.988 5.09-5.88 8.622-7.69 2.288-4.734 7.118-7.192 9.866-11.03v-4.57h-9.266l-7.387 7.386c-2.354 2.355-4.63 4.795-7.085 7.04-2.458 2.25-4.292 5.273-8.505 7.117.738-1.646 1.342-2.39 1.334-3.13-.01-.875-.79-1.74-.81-2.618-.09-4.327-.077-8.658-.01-12.985.015-.85.434-1.69.69-2.625h-9.622v61.608h9.882c-1.238-2.92-1.52-14.813-.687-25.615 1.816.8 3.775 1.425 4.176 3.78zm41.625-39.793v61.63h35.786v-8.896h-26.735v-17.05h21.684v-8.877h-20.563c-2.23-2.524-1.044-5.46-1.222-8.133-.196-2.93-.045-5.884-.045-8.98h26.9v-9.695h-35.805zm-12.93-105.09h11.42l4.47 4.468v14.24h6.83v-18.73l-3.69-3.073 3.643-3.642V8.058c-2.93-2.93-5.378-5.38-7.89-7.89h-21.792V43.98h7.008V25.16zm15.76-10.968c-1.54 1.534-3.052 3.036-4.808 4.784h-10.965V6.188c1.74-.036 3.662-.09 5.583-.11 1.968-.02 3.937-.004 5.765-.004l4.426 4.426v3.692zM46.816 33.29V.012c-2.377.236-4.605-.24-6.115.146.507 3.27.25 6.206.29 9.1.044 3.165.01 6.33.01 9.494 0 2.998.133 6.004-.036 8.992-.17 3.006.85 6.13-.668 8.812l7.227 7.473h16.023l6.313-6.313V.32h-7.016v34.343l-3.812 3.384h-7.55l-4.667-4.757zm139.01 22.88h-9.65v62.808h9.65V56.17zm-65.65-12.197h25.62V37.99h-18.543c-.874-3.934.65-7.913-1.02-11.646l1.357-1.357h14.264v-5.882h-14.346l-1.47-1.538c1.288-2.83 1.34-7.087.143-10.172l1.414-1.413h18.257V.175h-25.673v43.798zM81.233.235V43.92h5.917V25.08h15.87c2.433-2.435 4.647-4.65 6.905-6.907V6.505L103.66.235H81.232zm5.854 5.84c2.79 0 5.566.134 8.323-.04 2.785-.174 4.977.772 6.822 2.765.562.606 1.167 1.174 1.76 1.767v4.007l-4.505 4.5H87.085v-13zm193.164 183v3h.5v-3h-.5zm-4.992-1.965l1.637-.39-.078-.476h-1.658c.03.29.065.578.098.866zm5.34-.07c.48-.066.937-.276 1.402-.432-.603-.17-1.205-.343-2.475-.703.725.786.927 1.157 1.074 1.136zm1.402.034l.756 1 1.244-1h-2z"/></symbol></svg>